<svg xmlns="http://www.w3.org/2000/svg" width="12" height="12" viewBox="0 0 12 12">
    <defs>
        <clipPath id="clip-path">
            <path id="Rectangle_24" data-name="Rectangle 24" class="cls-1" transform="translate(1226 308)" d="M0 0h12v12H0z"/>
        </clipPath>
        <style>
            .cls-1{fill:#89a1be}
        </style>
    </defs>
    <g id="cancel_icon" data-name="cancel icon" transform="translate(-1226 -308)" style="clip-path:url(#clip-path)">
        <g id="cancel_1_" data-name="cancel (1)" transform="translate(1226 308)">
            <g id="Group_3" data-name="Group 3">
                <path id="Path_3" data-name="Path 3" class="cls-1" d="m7.322 6 4.487-4.487a.657.657 0 0 0 0-.928l-.394-.393a.658.658 0 0 0-.928 0L6 4.679 1.513.192a.658.658 0 0 0-.928 0L.192.585a.657.657 0 0 0 0 .928L4.679 6 .192 10.487a.658.658 0 0 0 0 .928l.393.393a.658.658 0 0 0 .928 0L6 7.322l4.487 4.487a.651.651 0 0 0 .464.192.651.651 0 0 0 .464-.192l.393-.393a.658.658 0 0 0 0-.928z" transform="translate(0 -.001)"/>
            </g>
        </g>
    </g>
</svg>
