<svg xmlns="http://www.w3.org/2000/svg" width="16" height="16" viewBox="0 0 16 16">
    <defs>
        <clipPath id="clip-path">
            <path id="Rectangle_5072" data-name="Rectangle 5072" class="cls-1" transform="translate(932 178)" d="M0 0h16v16H0z"/>
        </clipPath>
        <style>
            .cls-1{fill:#d9e3ef}
        </style>
    </defs>
    <g id="icon_refresh" data-name="icon refresh" transform="translate(-932 -178)" style="opacity:.8;clip-path:url(#clip-path)">
        <g id="update" transform="translate(930.4 176.4)">
            <g id="Group_3844" data-name="Group 3844">
                <path id="Path_3659" data-name="Path 3659" class="cls-1" d="m17.453 11.018-1.545-2.183a.8.8 0 0 0-1.116-.191L12.61 10.19a.8.8 0 1 0 .925 1.306l.731-.517a4.854 4.854 0 0 1-8.35 1.794.8.8 0 1 0-1.216 1.034 6.416 6.416 0 0 0 4.9 2.266 6.5 6.5 0 0 0 5.225-2.655 6.421 6.421 0 0 0 .97-1.972l.352.5a.8.8 0 0 0 1.306-.924z"/>
                <path id="Path_3660" data-name="Path 3660" class="cls-1" d="M6.78 7.9a.8.8 0 0 0-1.115-.2l-.731.517a4.854 4.854 0 0 1 8.35-1.793.8.8 0 0 0 1.216-1.031 6.417 6.417 0 0 0-4.9-2.265 6.5 6.5 0 0 0-5.225 2.655 6.42 6.42 0 0 0-.969 1.973l-.352-.5a.8.8 0 0 0-1.306.924l1.545 2.182a.8.8 0 0 0 1.115.191L6.589 9.01A.8.8 0 0 0 6.78 7.9z"/>
            </g>
        </g>
    </g>
</svg>
