<svg xmlns="http://www.w3.org/2000/svg" width="50" height="50" viewBox="0 0 50 50">
    <path data-name="Path 87474" d="M33.333 18.75a2.083 2.083 0 1 1-4.166 0V8.333a2.083 2.083 0 0 1 4.166 0z" style="fill:#d9e3ef" transform="translate(-6.25 -6.25)"/>
    <path data-name="Path 87475" d="M33.333 54.167a2.083 2.083 0 1 1-4.166 0V43.75a2.083 2.083 0 0 1 4.166 0z" style="opacity:.6;fill:#d9e3ef" transform="translate(-6.25 -6.25)"/>
    <path data-name="Path 87476" d="M18.75 29.167a2.083 2.083 0 0 1 0 4.166H8.333a2.083 2.083 0 0 1 0-4.166z" style="opacity:.8;fill:#d9e3ef" transform="translate(-6.25 -6.25)"/>
    <path data-name="Path 87477" d="M54.167 29.167a2.083 2.083 0 0 1 0 4.166H43.75a2.083 2.083 0 0 1 0-4.166z" style="opacity:.4;fill:#d9e3ef" transform="translate(-6.25 -6.25)"/>
    <path data-name="Path 87478" d="M20.939 38.615a2.083 2.083 0 0 1 2.946 2.946l-7.364 7.367a2.083 2.083 0 0 1-2.946-2.946z" style="opacity:.7;fill:#d9e3ef" transform="translate(-6.25 -6.25)"/>
    <path data-name="Path 87479" d="M45.982 13.572a2.083 2.083 0 0 1 2.946 2.946l-7.364 7.367a2.083 2.083 0 0 1-2.946-2.946z" style="opacity:.3;fill:#d9e3ef" transform="translate(-6.25 -6.25)"/>
    <path data-name="Path 87480" d="M38.615 41.561a2.083 2.083 0 0 1 2.946-2.946l7.367 7.367a2.083 2.083 0 0 1-2.946 2.946z" style="opacity:.5;fill:#d9e3ef" transform="translate(-6.25 -6.25)"/>
    <path data-name="Path 87481" d="M13.573 16.518a2.083 2.083 0 0 1 2.946-2.946l7.367 7.366a2.083 2.083 0 0 1-2.946 2.946z" style="opacity:.9;fill:#d9e3ef" transform="translate(-6.25 -6.25)"/>
</svg>
