<svg xmlns="http://www.w3.org/2000/svg" width="23.99" height="21.763" viewBox="0 0 23.99 21.763">
  <g id="warning" transform="translate(0 -1.119)">
    <path id="Path_87405" data-name="Path 87405" d="M23.52,17.487,15.112,2.923a3.578,3.578,0,0,0-6.215,0L.484,17.487a3.594,3.594,0,0,0,3.107,5.4H20.383a3.613,3.613,0,0,0,3.137-5.395ZM12,19.651a1.339,1.339,0,1,1,1.339-1.339A1.339,1.339,0,0,1,12,19.651ZM13.22,11c-.059,1.037-.124,2.07-.183,3.107-.03.336-.03.642-.03.973A1.008,1.008,0,0,1,12,16.049a.986.986,0,0,1-1.008-.944c-.089-1.615-.183-3.2-.272-4.817-.03-.425-.059-.855-.094-1.28a1.455,1.455,0,0,1,1.037-1.462,1.343,1.343,0,0,1,1.556.761,1.6,1.6,0,0,1,.124.672C13.314,9.656,13.25,10.328,13.22,11Z" fill="#fff"/>
  </g>
</svg>
