
<!-- Generator: Adobe Illustrator 20.1.0, SVG Export Plug-In . SVG Version: 6.00 Build 0)  -->
<svg version="1.1" xmlns="http://www.w3.org/2000/svg"  x="0px" y="0px"
     viewBox="0 0 593.2 423.9" style="enable-background:new 0 0 593.2 423.9;" xml:space="preserve">
<style type="text/css">
	.st0{fill:#0DAD00;}
	.st1{fill:#FFFFFF;}
	.st2{fill-rule:evenodd;clip-rule:evenodd;fill:#FFFFFF;}
</style>
  <g id="Layer_11">
</g>
  <g id="text_bet">
	<g>
		<path class="st0" d="M140.1,357.3c-7.7,7.7-11.5,16.8-11.5,27.6c0,10.7,3.8,20.2,11.5,27.6c7.7,7.7,16.8,11.5,27.6,11.5
			c10.7,0,20.2-3.8,27.6-11.5c7.7-7.7,11.5-16.8,11.5-27.6c0-10.7-3.8-20.2-11.5-27.6c-7.7-7.7-16.8-11.5-27.6-11.5
			C156.9,345.8,147.7,349.6,140.1,357.3z M190.1,385.1c0,6.1-2.3,11.5-6.6,15.8c-4.3,4.3-9.7,6.6-15.8,6.6s-11.5-2.3-15.8-6.6
			c-4.3-4.3-6.6-9.7-6.6-15.8s2.3-11.5,6.6-15.8c4.3-4.3,9.7-6.6,15.8-6.6s11.5,2.3,15.8,6.6C188,373.6,190.1,378.7,190.1,385.1z"/>
    <path class="st0" d="M251.3,362.6c0.3,0,0.3,0,0.5,0c6.1,0,11.5,2.3,15.8,6.6c2.3,2.3,3.8,4.6,4.8,7.4h17.6
			c-1.5-7.1-5.1-13.8-10.7-19.1c-7.7-7.7-16.8-11.5-27.6-11.5h-0.5c-10.7,0-19.6,3.8-27.3,11.5s-11.5,16.8-11.5,27.6
			s3.8,20.2,11.5,27.6c7.7,7.7,16.6,11.5,27.3,11.5h0.5c10.7,0,20.2-3.8,27.6-11.5c5.6-5.6,9.2-12,10.7-19.4h-17.4
			c-1,2.8-2.8,5.4-5.1,7.7c-4.3,4.3-9.7,6.6-15.8,6.6h-0.5c-6.1,0-11.2-2.3-15.3-6.6c-4.3-4.3-6.6-9.7-6.6-15.8s2.3-11.5,6.6-15.8
			C240.1,364.9,245.2,362.6,251.3,362.6z"/>
    <path class="st0" d="M363.3,357.3c-7.7-7.7-16.8-11.5-27.6-11.5l0,0c-10.7,0-20.2,3.8-27.6,11.5c-7.7,7.7-11.5,16.8-11.5,27.6
			c0,10.7,3.8,20.2,11.5,27.6c7.7,7.7,16.8,11.5,27.6,11.5l0,0c10.7,0,20.2-3.8,27.6-11.5c7.7-7.7,11.5-16.8,11.5-27.6
			C374.8,374.1,371,364.9,363.3,357.3z M351.3,400.9c-4.3,4.3-9.7,6.6-15.8,6.6l0,0c-6.1,0-11.5-2.3-15.8-6.6
			c-4.3-4.3-6.6-9.7-6.6-15.8s2.3-11.5,6.6-15.8c4.3-4.3,9.7-6.6,15.8-6.6l0,0c6.1,0,11.5,2.3,15.8,6.6s6.6,9.7,6.6,15.8
			S355.7,396.6,351.3,400.9z"/>
    <g>
			<g>
				<path class="st0" d="M60.2,393.2c-1,2.8-2.8,5.4-5.1,7.7c-4.3,4.3-9.7,6.6-15.8,6.6h-0.5c-6.1,0-11.2-2.3-15.3-6.6
					c-4.3-4.3-6.6-9.7-6.6-15.8s2.3-11.5,6.6-15.8s9.4-6.4,15.3-6.6c0.3,0,0.3,0,0.5,0c6.1,0,11.5,2.3,15.8,6.6
					c2.3,2.3,3.8,4.6,4.8,7.4h17.6c-1.5-7.1-5.1-13.8-10.7-19.1C59.2,349.9,50,346,39.3,346h-0.5c-10.7,0-19.6,3.8-27.3,11.2
					C3.8,364.9,0,374.1,0,384.8c0,10.7,3.8,20.2,11.5,27.6c7.7,7.7,16.6,11.5,27.3,11.5h0.5c10.7,0,20.2-3.8,27.6-11.5
					c5.6-5.6,9.2-12,10.7-19.4H60.2V393.2z"/>
			</g>
		</g>
    <path class="st0" d="M83.9,385.1v39h16.8v-39c0-4.1,1-7.7,2.8-11c1-1.8,2.3-3.3,3.8-4.8c4.3-4.3,9.7-6.6,15.8-6.6v-16.8
			c-7.1,0-13.8,1.8-19.6,5.1c-2.8,1.8-5.6,3.8-8.2,6.4C87.8,364.9,83.9,374.1,83.9,385.1z"/>
    <g>
			<path class="st1" d="M593.2,362.6v-16.8h-22.5V332h-16.8v53.1c0,10.7,3.8,20.2,11.5,27.6c7.7,7.7,16.8,11.5,27.6,11.5v-16.8
				c-6.1,0-11.5-2.3-15.8-6.6c-4.3-4.3-6.6-9.7-6.6-15.8v-22.2H593.2z"/>
      <path class="st1" d="M425.6,345.8c-8.4,0-15.8,2.3-22.5,6.9V332h-16.8v53.1c0,10.7,3.8,20.2,11.5,27.6
				c7.7,7.7,16.8,11.5,27.6,11.5c10.7,0,20.2-3.8,27.6-11.5c7.7-7.7,11.5-16.8,11.5-27.6s-3.8-20.2-11.5-27.6
				C445.5,349.6,436.3,345.8,425.6,345.8z M441.4,400.9c-4.3,4.3-9.7,6.6-15.8,6.6c-6.1,0-11.5-2.3-15.8-6.6
				c-4.3-4.3-6.6-9.7-6.6-15.8s2.3-11.5,6.6-15.8c4.3-4.3,9.7-6.6,15.8-6.6c6.1,0,11.5,2.3,15.8,6.6s6.6,9.7,6.6,15.8
				C447.8,391.2,445.7,396.6,441.4,400.9z"/>
      <path class="st1" d="M509.3,345.8c-10.7,0-20.2,3.8-27.6,11.5c-7.7,7.7-11.5,16.8-11.5,27.6c0,10.7,3.8,20.2,11.5,27.6
				c7.7,7.7,16.8,11.5,27.6,11.5c10.7,0,20.2-3.8,27.6-11.5c4.1-4.1,7.1-8.7,8.9-13.8h-18.9c-0.5,0.5-6.1,8.4-17.6,8.4
				c-6.1,0-11.5-2.3-15.8-6.6c-2.3-2.3-3.8-4.6-5.1-7.4h20.9h38.3c0.5-2.8,0.8-5.4,0.8-8.4c0-10.7-3.8-20.2-11.5-27.6
				C529.4,349.6,520.2,345.8,509.3,345.8z M509.3,376.7h-20.7c1-2.8,2.8-5.1,5.1-7.4c4.3-4.3,9.7-6.6,15.8-6.6
				c6.1,0,11.5,2.3,15.8,6.6c2.3,2.3,3.8,4.6,5.1,7.4H509.3z"/>
		</g>
    <path class="st2" d="M431.1,257.7c2.3,2.3,6.1,2.3,8.4,0l95.6-95.6c2.3-2.3,2.3-6.1,0-8.4l-95.6-95.6c-2.3-2.3-6.1-2.3-8.4,0
			L345.2,144l-34.7-34.7l98.6-98.6c14.4-14.4,37.9-14.4,52.2,0l121.1,121.1c14.4,14.4,14.4,37.9,0,52.2L461.4,305.1
			c-14.4,14.4-37.9,14.4-52.2,0c-95.3-95.3-190.6-190.6-285.8-285.8l8.5-8.5c14.4-14.4,37.9-14.4,52.2,0
			C266.4,93.1,348.7,175.4,431.1,257.7z"/>
    <path class="st0" d="M162.2,257.7c-2.3,2.3-6.1,2.3-8.4,0l-95.6-95.6c-2.3-2.3-2.3-6.1,0-8.4L144,67.9l-34.7-34.7l-98.6,98.6
			c-14.4,14.4-14.4,37.9,0,52.2l121.1,121.1c14.4,14.4,37.9,14.4,52.2,0l98.6-98.6L248,171.9L162.2,257.7z"/>
	</g>
</g>
</svg>
