<svg xmlns="http://www.w3.org/2000/svg" xmlns:xlink="http://www.w3.org/1999/xlink" width="16" height="16" viewBox="0 0 16 16">
  <defs>
    <clipPath id="clip-path">
      <rect id="Rectangle_656" data-name="Rectangle 656" width="16" height="16" transform="translate(-0.465)" fill="#575f6b"/>
    </clipPath>
  </defs>
  <g id="password" transform="translate(0.465)" clip-path="url(#clip-path)">
    <g id="lock-padlock-symbol-for-security-interface" transform="translate(2.214)">
      <g id="Group_1688" data-name="Group 1688">
        <path id="Path_822" data-name="Path 822" d="M8,0A4.684,4.684,0,0,0,3.321,4.679V7.351a.126.126,0,0,1-.067.091c-.253.084-.459.157-.647.23a.647.647,0,0,0-.394.578v6.14a.652.652,0,0,0,.391.579,14.646,14.646,0,0,0,10.79,0,.652.652,0,0,0,.391-.579V8.251a.647.647,0,0,0-.394-.578c-.188-.073-.394-.146-.647-.23a.126.126,0,0,1-.067-.091V4.679A4.684,4.684,0,0,0,8,0ZM6.726,10.121a1.274,1.274,0,1,1,2.549,0A1.255,1.255,0,0,1,8.637,11.2v2.107a.637.637,0,0,1-1.274,0V11.2A1.255,1.255,0,0,1,6.726,10.121ZM11.07,4.679V6.985a14.606,14.606,0,0,0-6.14,0V4.679a3.07,3.07,0,0,1,6.14,0Z" transform="translate(-2.214)" fill="#575f6b"/>
      </g>
    </g>
  </g>
</svg>
