<svg xmlns="http://www.w3.org/2000/svg" width="14" height="14" viewBox="0 0 14 14">
    <defs>
        <clipPath id="a">
            <path data-name="Rectangle 529" transform="translate(1644 251)" style="stroke:#707070;fill:#15af44" d="M0 0h14v14H0z"/>
        </clipPath>
    </defs>
    <g data-name="success icon" transform="translate(-1644 -251)" style="clip-path:url(#a)">
        <g data-name="checked (4)">
            <g data-name="Group 668">
                <path data-name="Path 718" d="M7 0a7 7 0 1 0 7 7 7.008 7.008 0 0 0-7-7zm3.912 5.158L6.439 9.6a.688.688 0 0 1-.965.018L3.105 7.456a.712.712 0 0 1-.053-.982.694.694 0 0 1 .982-.035l1.878 1.719 4-4a.707.707 0 0 1 1 1z" style="fill:#15af44" transform="translate(1644 251)"/>
            </g>
        </g>
    </g>
</svg>
