<svg xmlns="http://www.w3.org/2000/svg" width="20" height="20" viewBox="0 0 20 20">
    <defs>
        <clipPath id="clip-path">
            <path id="Rectangle_67" data-name="Rectangle 67" class="cls-1" transform="translate(0 .197)" d="M0 0h20v20H0z"/>
        </clipPath>
        <style>
            .cls-1{fill:#fff}
        </style>
    </defs>
    <g id="Mask_Group_15" data-name="Mask Group 15" transform="translate(0 -.197)" style="clip-path:url(#clip-path)">
        <g id="timer" transform="translate(1.077 -.296)">
            <g id="Group_22" data-name="Group 22" transform="translate(6.462)">
                <g id="Group_21" data-name="Group 21">
                    <path id="Path_18" data-name="Path 18" class="cls-1" d="M11.089 0H8.225a.686.686 0 0 0 0 1.373h2.864a.686.686 0 1 0 0-1.373z" transform="translate(-7.538)"/>
                </g>
            </g>
            <g id="Group_24" data-name="Group 24" transform="translate(14.621 2.456)">
                <g id="Group_23" data-name="Group 23">
                    <path id="Path_19" data-name="Path 19" class="cls-1" d="m18.734 4.521-1.87-1.87a.686.686 0 0 0-.97.97l1.846 1.846a.641.641 0 0 0 .473.189.7.7 0 0 0 .473-.189.634.634 0 0 0 .048-.946z" transform="translate(-15.698 -2.456)"/>
                </g>
            </g>
            <g id="Group_26" data-name="Group 26" transform="translate(0 2.864)">
                <g id="Group_25" data-name="Group 25">
                    <path id="Path_20" data-name="Path 20" class="cls-1" d="M9.645 2.864a8.568 8.568 0 1 0 8.568 8.568 8.566 8.566 0 0 0-8.568-8.568zm3.55 9.491h-3.55a.687.687 0 0 1-.686-.686v-4.45a.686.686 0 1 1 1.373 0v3.787H13.2a.675.675 0 1 1 0 1.349z" transform="translate(-1.077 -2.864)"/>
                </g>
            </g>
        </g>
    </g>
</svg>
