<svg id="user_icon" data-name="user icon" xmlns="http://www.w3.org/2000/svg" width="16" height="16.482" viewBox="0 0 16 16.482">
  <path id="Path_37" data-name="Path 37" d="M21.522,181.275a3.946,3.946,0,0,1-3.827,3.439c-2.759.028-5.522.014-8.28,0a4.183,4.183,0,0,1-3.751-2.851,4.277,4.277,0,0,1-.107-1.633,9.552,9.552,0,0,1,.823-3.143,10.371,10.371,0,0,1,.6-1.129.561.561,0,0,1,.836-.2.625.625,0,0,1,.148.875,8.243,8.243,0,0,0-1.046,2.508,7.744,7.744,0,0,0-.215,1.7,2.345,2.345,0,0,0,.939,1.92,2.957,2.957,0,0,0,1.94.72c2.687,0,5.374,0,8.065,0a2.708,2.708,0,0,0,2.45-1.487,2.624,2.624,0,0,0,.273-1.454,8.293,8.293,0,0,0-1.221-3.9.626.626,0,0,1,.143-.866.559.559,0,0,1,.836.212,9.486,9.486,0,0,1,1.341,3.8l.054.452C21.522,180.574,21.522,180.923,21.522,181.275Z" transform="translate(-5.526 -168.25)" fill="#575f6b"/>
  <path id="Path_38" data-name="Path 38" d="M93.538,0a3.986,3.986,0,0,1,1.245.329,4.293,4.293,0,0,1,2.481,3.524,4.389,4.389,0,0,1-3.414,5.025,4.127,4.127,0,0,1-4.574-3.726A4.42,4.42,0,0,1,92.762.038.673.673,0,0,0,93,0C93.18,0,93.359,0,93.538,0Zm-.281,1.228a3.056,3.056,0,0,0-2.941,3.218,2.951,2.951,0,1,0,5.874.028A3.061,3.061,0,0,0,93.257,1.228Z" transform="translate(-85.292)" fill="#575f6b"/>
</svg>
