<svg xmlns="http://www.w3.org/2000/svg" xmlns:xlink="http://www.w3.org/1999/xlink" width="14" height="14" viewBox="0 0 14 14">
  <defs>
    <clipPath id="clip-path">
      <rect id="Rectangle_5060" data-name="Rectangle 5060" width="14" height="14" transform="translate(1313 65)" fill="#ff2929" stroke="#707070" stroke-width="1"/>
    </clipPath>
  </defs>
  <g id="warning" transform="translate(-1313 -65)" clip-path="url(#clip-path)">
    <path id="warning-2" data-name="warning" d="M7,0a7,7,0,1,0,7,7A7.008,7.008,0,0,0,7,0ZM7,11.083a.583.583,0,1,1,.583-.583A.583.583,0,0,1,7,11.083Zm.583-2.917a.583.583,0,0,1-1.167,0V3.5a.583.583,0,0,1,1.167,0Zm0,0" transform="translate(1313 65)" fill="#ff2929"/>
  </g>
</svg>
