<svg xmlns="http://www.w3.org/2000/svg" xmlns:xlink="http://www.w3.org/1999/xlink" width="38" height="38" viewBox="0 0 38 38">
  <defs>
    <clipPath id="clip-path">
      <rect id="Rectangle_4" data-name="Rectangle 4" width="26" height="26" transform="translate(71 383)" fill="#252b33"/>
    </clipPath>
  </defs>
  <g id="chat" transform="translate(-1814 -1377)">
    <circle id="Ellipse_61" data-name="Ellipse 61" cx="19" cy="19" r="19" transform="translate(1814 1377)" fill="#d9e3ef"/>
    <g id="Mask_Group_3" data-name="Mask Group 3" transform="translate(1749 1000)" clip-path="url(#clip-path)">
      <g id="live-chat" transform="translate(71 384.645)">
        <g id="Group_1" data-name="Group 1">
          <path id="Path_3" data-name="Path 3" d="M28.178,11.477c0-5.011-4.861-9.088-10.836-9.088S6.5,6.466,6.5,11.477s4.861,9.088,10.836,9.088a13.085,13.085,0,0,0,1.5-.087c2.3,1.462,4,2.262,5.053,2.379a1.02,1.02,0,0,0,.11.006,1,1,0,0,0,.874-1.5,5.2,5.2,0,0,1-.587-2.914A8.536,8.536,0,0,0,28.178,11.477ZM14.4,12.85A1.605,1.605,0,1,1,16,11.245,1.605,1.605,0,0,1,14.4,12.85Zm5.886,0a1.605,1.605,0,1,1,1.605-1.605A1.605,1.605,0,0,1,20.284,12.85Z" transform="translate(-2.029 -2.39)" fill="#252b33"/>
          <path id="Path_4" data-name="Path 4" d="M6.765,21.112a9.847,9.847,0,0,1-2.519-3.1,8.434,8.434,0,0,1,0-7.766c.048-.094.1-.187.15-.279A8.123,8.123,0,0,0,0,16.9,7.926,7.926,0,0,0,3.814,23.47a5.652,5.652,0,0,1-.6,3.643.335.335,0,0,0,.291.5l.037,0c1.214-.135,3.351-1.368,4.969-2.408a12.369,12.369,0,0,0,1.659.111A11.628,11.628,0,0,0,15.9,23.843c-.365.029-.733.045-1.1.045A12.588,12.588,0,0,1,6.765,21.112Z" transform="translate(0 -4.753)" fill="#252b33"/>
        </g>
      </g>
    </g>
  </g>
</svg>
