<svg xmlns="http://www.w3.org/2000/svg" xmlns:xlink="http://www.w3.org/1999/xlink" width="38" height="38" viewBox="0 0 38 38">
  <defs>
    <clipPath id="clip-path">
      <rect id="Rectangle_3" data-name="Rectangle 3" width="38" height="38" transform="translate(267 383)" fill="#d9e3ef"/>
    </clipPath>
  </defs>
  <g id="viber" transform="translate(-267 -383)" clip-path="url(#clip-path)">
    <g id="viber_1_" data-name="viber (1)" transform="translate(263.377 379.377)">
      <path id="Path_1" data-name="Path 1" d="M27.769,13.384a27.423,27.423,0,0,0-10.291,0,5.936,5.936,0,0,0-3.74,3.581,19.682,19.682,0,0,0,0,8.445,5.937,5.937,0,0,0,3.74,3.582h0a.142.142,0,0,1,.115.139v4.1a.228.228,0,0,0,.393.158l1.95-2L21.77,29.51a.14.14,0,0,1,.1-.042,27.464,27.464,0,0,0,5.894-.476,5.935,5.935,0,0,0,3.74-3.582,19.654,19.654,0,0,0,0-8.445,5.932,5.932,0,0,0-3.739-3.581ZM27.82,25.62a3.169,3.169,0,0,1-1.36,1.5,3.288,3.288,0,0,1-.588.187c-.23-.07-.448-.116-.652-.2a14.8,14.8,0,0,1-5.578-3.729,14.478,14.478,0,0,1-2.134-3.265c-.274-.557-.5-1.135-.74-1.71a1.484,1.484,0,0,1,.434-1.461,3.431,3.431,0,0,1,1.149-.864.738.738,0,0,1,.923.219,11.894,11.894,0,0,1,1.427,2,.951.951,0,0,1-.267,1.288c-.108.073-.206.16-.307.242a1.011,1.011,0,0,0-.232.245.671.671,0,0,0-.045.588,5.319,5.319,0,0,0,2.988,3.308,1.522,1.522,0,0,0,.766.186c.468-.055.62-.568.948-.837a.893.893,0,0,1,1.076-.047c.345.219.68.453,1.013.69a11.565,11.565,0,0,1,.953.726.756.756,0,0,1,.226.936ZM25.1,20.712c-.132,0-.079,0-.029,0a.337.337,0,0,1-.349-.333,3.462,3.462,0,0,0-.065-.44,1.24,1.24,0,0,0-.457-.717,1.19,1.19,0,0,0-.372-.18c-.169-.049-.345-.035-.513-.077a.315.315,0,0,1-.256-.365.331.331,0,0,1,.349-.266,1.894,1.894,0,0,1,1.94,1.886.871.871,0,0,1,0,.267.275.275,0,0,1-.231.223c.008,0,.007,0-.016,0Zm-.664-2.875a3.753,3.753,0,0,0-1.041-.32c-.157-.026-.316-.042-.473-.064a.3.3,0,0,1-.284-.336.3.3,0,0,1,.33-.293,4.336,4.336,0,0,1,1.8.47A3.65,3.65,0,0,1,26.76,20.13c.009.058.022.115.027.173.011.143.018.286.029.475a1.306,1.306,0,0,1-.027.192A.313.313,0,0,1,26.2,21a.827.827,0,0,1-.033-.266,3.336,3.336,0,0,0-.422-1.674,3.117,3.117,0,0,0-1.306-1.226Zm3.531,3.941c-.221,0-.32-.182-.335-.38-.028-.392-.048-.786-.1-1.174a4.921,4.921,0,0,0-3.963-4.113c-.307-.055-.622-.069-.933-.1-.2-.02-.454-.033-.5-.277a.336.336,0,0,1,.332-.379c.053,0,.106,0,.16,0,2.635.074.181.006.009,0A5.6,5.6,0,0,1,28.13,19.98c.083.464.112.938.149,1.409a.331.331,0,0,1-.31.389Z" fill="#d9e3ef"/>
      <path id="Path_2" data-name="Path 2" d="M22.623,3.623a19,19,0,1,0,19,19A19,19,0,0,0,22.623,3.623ZM33.5,25.861l-.007.027a7.849,7.849,0,0,1-5.3,5.1l-.025.005a29.53,29.53,0,0,1-5.541.526c-.544,0-1.089-.017-1.634-.047l-2.51,2.61a1,1,0,0,1-1.714-.69V30.911a7.916,7.916,0,0,1-5.006-5.023l-.006-.027a21.69,21.69,0,0,1,0-9.345l.006-.027a7.849,7.849,0,0,1,5.3-5.1l.027-.006a29.454,29.454,0,0,1,11.082,0l.026.006a7.847,7.847,0,0,1,5.3,5.1l.007.027a21.693,21.693,0,0,1,0,9.345Z" fill="#d9e3ef"/>
    </g>
  </g>
</svg>
