<svg xmlns="http://www.w3.org/2000/svg" xmlns:xlink="http://www.w3.org/1999/xlink" width="18" height="18" viewBox="0 0 18 18">
  <defs>
    <clipPath id="clip-path">
      <rect id="Rectangle_4958" data-name="Rectangle 4958" width="18" height="18" transform="translate(396 535)" fill="#bbbdc0"/>
    </clipPath>
  </defs>
  <g id="new" transform="translate(-396 -535)" clip-path="url(#clip-path)">
    <g id="new-2" data-name="new" transform="translate(396 535)">
      <g id="Group_3697" data-name="Group 3697">
        <path id="Path_3539" data-name="Path 3539" d="M16.977,7.669c-.277-.2-.623-.459-.668-.628a2.1,2.1,0,0,1,.269-.918c.244-.56.5-1.141.216-1.624s-.917-.561-1.53-.63a2.083,2.083,0,0,1-.915-.218,2.089,2.089,0,0,1-.218-.915c-.069-.613-.14-1.247-.63-1.53-.426-.247-1.057-.031-1.624.216a2.6,2.6,0,0,1-.919.269c-.169-.045-.423-.391-.628-.668C9.977.543,9.578,0,9,0S8.023.543,7.67,1.022c-.205.278-.459.624-.7.676a2.694,2.694,0,0,1-.848-.277A1.979,1.979,0,0,0,4.5,1.205c-.491.283-.562.917-.631,1.531a2.1,2.1,0,0,1-.218.915,2.09,2.09,0,0,1-.915.218c-.614.069-1.248.141-1.531.63s-.027,1.063.216,1.624a2.087,2.087,0,0,1,.269.919c-.045.169-.391.424-.668.628C.543,8.022,0,8.422,0,9s.543.978,1.023,1.331c.277.2.623.459.668.628a2.1,2.1,0,0,1-.269.918c-.244.56-.5,1.141-.216,1.624s.917.561,1.53.63a2.083,2.083,0,0,1,.915.218,2.089,2.089,0,0,1,.218.915c.069.613.14,1.247.63,1.53.423.247,1.054.031,1.623-.216a2.408,2.408,0,0,1,.919-.269c.169.045.423.391.628.668C8.023,17.457,8.422,18,9,18s.977-.543,1.33-1.022c.205-.278.459-.624.7-.677a2.694,2.694,0,0,1,.848.277c.571.247,1.2.462,1.623.217.491-.283.562-.917.631-1.531a2.1,2.1,0,0,1,.218-.915,2.089,2.089,0,0,1,.915-.218c.614-.069,1.248-.14,1.531-.63s.027-1.063-.216-1.624a2.1,2.1,0,0,1-.269-.918c.045-.169.391-.424.668-.628C17.457,9.978,18,9.578,18,9S17.457,8.022,16.977,7.669Zm-9.934,2.9a.391.391,0,0,1-.268.371.376.376,0,0,1-.124.02.392.392,0,0,1-.313-.157L4.7,8.609v1.957a.391.391,0,0,1-.783,0V7.435a.391.391,0,0,1,.7-.235L6.261,9.391V7.435a.391.391,0,1,1,.783,0ZM9.783,8.609a.391.391,0,1,1,0,.783H8.609v.783H9.783a.391.391,0,1,1,0,.783H8.217a.391.391,0,0,1-.391-.391V7.435a.391.391,0,0,1,.391-.391H9.783a.391.391,0,1,1,0,.783H8.609v.783H9.783Zm5.075-1.079-.783,3.13a.391.391,0,0,1-.365.3h-.016a.392.392,0,0,1-.372-.268l-.41-1.233L12.5,10.689a.373.373,0,0,1-.387.267.391.391,0,0,1-.365-.3l-.783-3.13a.391.391,0,0,1,.759-.189l.456,1.827.358-1.073a.408.408,0,0,1,.743,0l.358,1.073L14.1,7.34a.392.392,0,0,1,.76.189Z" fill="#189541"/>
      </g>
    </g>
  </g>
</svg>
