<svg xmlns="http://www.w3.org/2000/svg" xmlns:xlink="http://www.w3.org/1999/xlink" width="18" height="18" viewBox="0 0 18 18">
  <defs>
    <clipPath id="clip-path">
      <rect id="Rectangle_4957" data-name="Rectangle 4957" width="18" height="18" transform="translate(292 535)" fill="#189541"/>
    </clipPath>
  </defs>
  <g id="top_slots" data-name="top slots" transform="translate(-292 -535)" clip-path="url(#clip-path)">
    <g id="best-seller" transform="translate(290.714 533.715)">
      <path id="Path_3528" data-name="Path 3528" d="M16.714,7.714a6.429,6.429,0,1,0-6.429,6.429,6.429,6.429,0,0,0,6.429-6.429Zm-2.976-.84-1.415,1.38.335,1.949a.428.428,0,0,1-.622.452l-1.75-.92-1.75.92a.429.429,0,0,1-.622-.452l.335-1.949L6.833,6.875a.428.428,0,0,1,.237-.731l1.956-.285L9.9,4.086a.446.446,0,0,1,.768,0l.876,1.773,1.956.285a.428.428,0,0,1,.237.731Z" fill="#189541"/>
      <path id="Path_3529" data-name="Path 3529" d="M10.877,6.441l-.591-1.2-.591,1.2a.428.428,0,0,1-.322.234l-1.32.192.955.932a.429.429,0,0,1,.124.379L8.905,9.493l1.181-.621a.426.426,0,0,1,.4,0l1.181.621L11.44,8.178a.429.429,0,0,1,.124-.379l.955-.932L11.2,6.675a.428.428,0,0,1-.322-.234Z" fill="#189541"/>
      <path id="Path_3530" data-name="Path 3530" d="M19.2,15.65,16.315,11.8a7.29,7.29,0,0,1-5.14,3.141L14.3,19.114a.429.429,0,0,0,.765-.182l.557-3.159,3.16.557a.429.429,0,0,0,.418-.679Z" fill="#189541"/>
      <path id="Path_3531" data-name="Path 3531" d="M4.256,11.8,1.371,15.65a.428.428,0,0,0-.022.481.424.424,0,0,0,.439.2l3.16-.557.557,3.159a.429.429,0,0,0,.765.182L9.4,14.94A7.29,7.29,0,0,1,4.256,11.8Z" fill="#189541"/>
    </g>
  </g>
</svg>
