<svg xmlns="http://www.w3.org/2000/svg" width="14" height="14" viewBox="0 0 14 14">
    <defs>
        <clipPath id="clip-path">
            <path id="Rectangle_4925" data-name="Rectangle 4925" class="cls-1" transform="translate(1413 775)" d="M0 0h14v14H0z"/>
        </clipPath>
        <style>
            .cls-1{fill:#fff}
        </style>
    </defs>
    <g id="icon" transform="translate(-1413 -775)" style="clip-path:url(#clip-path)">
        <g id="money_2_" data-name="money (2)" transform="translate(1413 775)">
            <path id="Path_3514" data-name="Path 3514" class="cls-1" d="M14.893 0h-5.5a.27.27 0 0 0-.25.286v8.831l.5-.521V2a.27.27 0 0 1 .25-.286.809.809 0 0 0 .75-.857.27.27 0 0 1 .25-.286h2.5a.27.27 0 0 1 .25.286.809.809 0 0 0 .75.857.27.27 0 0 1 .25.286v8a.27.27 0 0 1-.25.286.809.809 0 0 0-.75.857.27.27 0 0 1-.25.286h-1.965l-.417.571h3.882a.27.27 0 0 0 .25-.286V.286a.27.27 0 0 0-.25-.286zm0 0" transform="translate(-1.143)"/>
            <path id="Path_3515" data-name="Path 3515" class="cls-1" d="m7.815 5.836-2.448.777a1.335 1.335 0 0 0-.836.875l-1.044 3.184A1.963 1.963 0 0 1 2.73 11.7l-.206.138 2.919 3.337a28.728 28.728 0 0 1 2.835-1.766 2.037 2.037 0 0 0 .661-.591l3.316-4.543a.353.353 0 0 0-.04-.445 1.361 1.361 0 0 0-1.9-.022L7.734 10.5a.229.229 0 0 1-.353-.019.315.315 0 0 1 .016-.4l.418-.436zm0 0" transform="translate(-.316)"/>
            <path id="Path_3516" data-name="Path 3516" class="cls-1" d="M.25 16h3.8a.22.22 0 0 0 .159-.065 6.045 6.045 0 0 1 .493-.439l-2.94-3.364-1.514 1.011a.593.593 0 0 0-.248.492v2.079A.27.27 0 0 0 .25 16zm0 0"/>
            <path id="Path_3517" data-name="Path 3517" class="cls-1" d="M11.988 10.857h1.323a1.354 1.354 0 0 1 .975-1.114V2.257a1.354 1.354 0 0 1-.975-1.114h-2.05a1.354 1.354 0 0 1-.975 1.114v5.819l.677-.706a1.983 1.983 0 0 1 .477-.325 1.573 1.573 0 0 1-.316-1.585 1.259 1.259 0 0 1 1.186-.9 1.277 1.277 0 0 1 1.153.952 1.563 1.563 0 0 1-.373 1.568 1.966 1.966 0 0 1 .415.3.986.986 0 0 1 .106 1.247zm.3-7.143a.809.809 0 0 1-.75-.857.757.757 0 1 1 1.5 0 .923.923 0 0 1-.22.606.705.705 0 0 1-.53.251zm0 0" transform="translate(-1.286)"/>
            <path id="Path_3518" data-name="Path 3518" class="cls-1" d="M13.214 6a.757.757 0 1 1-1.5 0 .757.757 0 1 1 1.5 0zm0 0" transform="translate(-1.464)"/>
            <path id="Path_3519" data-name="Path 3519" class="cls-1" d="M12.786 2.857a.252.252 0 1 1-.5 0 .252.252 0 1 1 .5 0zm0 0" transform="translate(-1.536)"/>
        </g>
    </g>
</svg>
