<svg id="Logo_bog" data-name="Logo bog" xmlns="http://www.w3.org/2000/svg" width="138" height="20" viewBox="0 0 138 20">
  <g id="Group-22">
    <rect id="Rectangle" width="138" height="20" transform="translate(0)" fill="none"/>
    <path id="Combined-Shape" d="M19.629,0a11.094,11.094,0,0,1,8.329,3.916l.017.022c.991,1.229,1.229,1.429.951,1.892a20.232,20.232,0,0,1-1.341,1.678l-.009.01-.035.031c-.25.234-1.35,1.393-1.465,1.515l-.01.01V14.6c0,2.916-2.775,5.292-6.245,5.394l-.232,0H8.583a7.1,7.1,0,0,1-5.126-2.086,4.347,4.347,0,0,1-.675.033c-.795,0-2.782-.427-2.782-1.49a.822.822,0,0,1,.313-.633,1.187,1.187,0,0,1,.76-.261,2.019,2.019,0,0,1,.477.067s.468.139.546-.067l.011-.065V5.4C2.106,2.481,4.881.106,8.351,0l.232,0Zm3.656,2.152A3.859,3.859,0,0,0,19.63,4.3a20.367,20.367,0,0,1-5.483,2.187c-2.662.6-5.4.033-7.231.132A4.169,4.169,0,0,0,4.2,7.579,2.873,2.873,0,0,0,3.14,9.87c.04,1.722,1.47,3.278,1.47,4.9a1.624,1.624,0,0,1-.6,1.278A2.349,2.349,0,0,1,2.5,16.59c-1.033,0-1.072-.331-1.391-.331a.3.3,0,0,0-.216.035.2.2,0,0,0-.1.163c0,.431,1.275.828,1.987.828a3.391,3.391,0,0,0,2.7-1.125,2.477,2.477,0,0,0,2.384,1.159c1.51,0,2.146-.6,2.146-1.092,0-.4-.278-.562-.517-.828a1.065,1.065,0,0,1-.278-.762q.4.035.8.033c1.073,0,1.43-.364,1.43-.729,0-.237-.166-.344-.329-.494l-.069-.067.081.1a2.429,2.429,0,0,1,.159.23s-.394.563-1.669.364c0,0,1.086-.18,1.259-.655l.022-.1-.007-.1.124.131a.843.843,0,0,1-.208-.6.68.68,0,0,1,.715-.762c.358,0,1.748.1,3.457.265a2.127,2.127,0,0,1,1.945,2.128l.005.19v.662l0,.107c.034,1.074.592,2.377,2.9,2.377,1.589,0,2.5-.729,2.5-1.291,0-.364-.358-.5-.556-.729a1.494,1.494,0,0,1-.325-1.308l.044-.15.194.046a2.846,2.846,0,0,0,.6.053c1.192,0,1.708-.4,1.708-.861a.526.526,0,0,0-.278-.432c0,.232-.557.729-1.589.6,0,0,1.3-.24,1.044-.864l-.05-.1.136.1.129.086a2.473,2.473,0,0,0,.278.149c-.257-.157-.578-.277-.625-.569A7.3,7.3,0,0,1,24.109,7.91l.128-.161.835.3.124.041a1.527,1.527,0,0,0,.393.058.81.81,0,0,0,.557-.232,13.822,13.822,0,0,0,2.147-2.45,9.866,9.866,0,0,0-2.583-2.616A4.508,4.508,0,0,0,23.285,2.152ZM20.937,13.546l0,.015-.008.037c-.071.35-.293,1.987.809,2.691-.6.828-2.5.629-2.5.629a4.662,4.662,0,0,0,1.47-.625A2.88,2.88,0,0,1,20.937,13.546Zm53.924-1.333a2.583,2.583,0,0,1,1.664.567,1.788,1.788,0,0,1,.681,1.386,1.986,1.986,0,0,1-1.447,1.8,2.7,2.7,0,0,1-2.555-.423,1.724,1.724,0,0,1-.508-2.129A2.389,2.389,0,0,1,74.861,12.213Zm-20.384,0a2.583,2.583,0,0,1,1.664.567,1.787,1.787,0,0,1,.681,1.386,1.986,1.986,0,0,1-1.447,1.8,2.7,2.7,0,0,1-2.555-.423,1.724,1.724,0,0,1-.508-2.129A2.389,2.389,0,0,1,54.477,12.213Zm-7.351.1V13.8h.4l1.51-1.49h1.112l-1.868,1.821L50.3,16.054H49.151L47.522,14.5l-.4,0v1.556h-.914V12.312Zm24.638,0v.662H69.34V13.8h2.345v.7H69.34v.861H71.8v.7l-3.34,0V12.312Zm-32.9,0,1.748,3.742h-.953l-.4-.861H37.351l-.4.861H36.04l1.748-3.742Zm52.928,0,1.748,3.742h-.953l-.4-.861H90.278l-.4.861h-.913l1.748-3.742Zm-26.3-.166a3.014,3.014,0,0,1,1.669.662h0l-.636.53a1.573,1.573,0,0,0-1.073-.4A1.363,1.363,0,0,0,64,14.151a1.347,1.347,0,0,0,1.4,1.241,1.138,1.138,0,0,0,1.275-.828H65.563v-.629H67.63v.2a1.636,1.636,0,0,1-.588,1.359,2.391,2.391,0,0,1-1.6.562,2.455,2.455,0,0,1-2.02-.991,1.676,1.676,0,0,1,.02-1.954A2.471,2.471,0,0,1,65.484,12.147Zm22.887.166v3.742H87.5V12.312Zm-46.331,0L44.3,14.8V12.312h.914v3.742h-.836l-2.3-2.516v2.516h-.874V12.312Zm42.481-.166a3.148,3.148,0,0,1,1.708.662h0l-.636.53a1.574,1.574,0,0,0-1.073-.4,1.363,1.363,0,0,0-1.437,1.209,1.347,1.347,0,0,0,1.4,1.241,1.138,1.138,0,0,0,1.275-.828H84.6v-.629h2.066v.2a1.637,1.637,0,0,1-.589,1.359,2.391,2.391,0,0,1-1.6.562,2.455,2.455,0,0,1-2.021-.991,1.676,1.676,0,0,1,.02-1.954A2.471,2.471,0,0,1,84.521,12.147Zm-23.6.166v.662H58.492v.861h2.265v.7H58.49v1.523h-.875V12.312Zm19.031,0c1.033,0,1.589.4,1.589,1.125a1,1,0,0,1-.379.776,1.439,1.439,0,0,1-.932.316h-.04l1.39,1.49H80.5l-1.311-1.49h-.278v1.523H78.04V12.312Zm-45.973,0c.993,0,1.669.3,1.669,1.026a.857.857,0,0,1-.636.795.972.972,0,0,1,.755.828c0,.729-.6,1.062-1.669,1.062H32.146V12.312ZM10.625,11.057l.217.012a3.238,3.238,0,0,1,.839.188s-2.423-.232-3.258,1.556A3.391,3.391,0,0,0,8.552,15.6l.108.2.115.187-.152-.115-.171-.146a2.9,2.9,0,0,1-.872-1.427l-.042-.2-.024-.186L7.5,13.757a2.843,2.843,0,0,1,2.724-2.681l.178-.017ZM33.973,14.5H32.98v.894h.994c.477,0,.8-.1.8-.464C34.769,14.6,34.451,14.5,33.973,14.5Zm40.848-1.556a1.543,1.543,0,0,0-1.04.349,1.054,1.054,0,0,0-.391.876,1.342,1.342,0,0,0,1.457,1.16,1.32,1.32,0,0,0,1.4-1.2A1.331,1.331,0,0,0,74.822,12.942Zm-20.384,0a1.542,1.542,0,0,0-1.04.349,1.054,1.054,0,0,0-.391.876,1.342,1.342,0,0,0,1.457,1.16,1.32,1.32,0,0,0,1.4-1.2A1.331,1.331,0,0,0,54.437,12.942Zm-16.133.1L37.669,14.5l1.271,0Zm52.968,0L90.636,14.5h1.272Zm-11.4-.068h-.994V13.9h.994c.477,0,.755-.166.755-.464S80.344,12.973,79.868,12.973Zm-45.973,0H32.98v.861h.914c.437,0,.795-.066.795-.431S34.331,12.974,33.894,12.974Zm-12.119-.722a.319.319,0,0,1,.318.265.323.323,0,1,1-.318-.265ZM6.886,7.277H7.2c1.4.021,3.414.239,4.919.141l.4-.035.084.282a8.453,8.453,0,0,0,3.1,3.866l.215.16.192.139-.024-.015.23.139q.338.194.7.365l.361.164.153.075.079.034h0l.08.032.159.055-.172-.054a2.963,2.963,0,0,1-.339-.142l-.378-.157h0l-.371-.169-.011-.006-.335-.136c-1.677-.742-3.37-2.341-5.307-3.238-2.146-.993-4.331-1.159-5.483-.265a2.214,2.214,0,0,0-.77,2.126l.041.163.052.156-.135-.121L4.5,10.7a1.9,1.9,0,0,1-.489-1.265A2.408,2.408,0,0,1,6.428,7.291L6.6,7.284Zm13.1,4.71a.354.354,0,0,1,.318.265.241.241,0,0,1-.092.189.349.349,0,0,1-.226.076.277.277,0,0,1-.278-.265.211.211,0,0,1,.068-.184A.31.31,0,0,1,19.987,11.987Zm-1.708-.5a.319.319,0,0,1,.318.265.323.323,0,1,1-.318-.265Zm-3.16-4.709.058.006.055.019a.2.2,0,0,1,.106.115,7.023,7.023,0,0,0,2.025,2.715A8.284,8.284,0,0,0,22.33,11.49a8.443,8.443,0,0,1-5.364-1.854,7.354,7.354,0,0,1-2.025-2.582A.151.151,0,0,1,14.92,6.9a.19.19,0,0,1,.094-.092l.046-.016Zm1.65,3.848a.354.354,0,0,1,.318.265.269.269,0,0,1-.2.245.365.365,0,0,1-.347-.057.234.234,0,0,1-.069-.289A.324.324,0,0,1,16.768,10.629Zm5.245-.431a.349.349,0,0,1,.226.076.241.241,0,0,1,.092.188.323.323,0,1,1-.318-.265Zm-1.788-.464a.349.349,0,0,1,.226.076.241.241,0,0,1,.092.188.222.222,0,0,1-.085.195.329.329,0,0,1-.233.07.269.269,0,1,1,0-.53Zm-4.689-.066a.318.318,0,0,1,.318.265.323.323,0,1,1-.318-.265Zm3.1-.794a.269.269,0,1,1,0,.53.319.319,0,0,1-.318-.265A.3.3,0,0,1,18.636,8.874Zm-.913-2.948a6.6,6.6,0,0,0,1.549,1.921,6.427,6.427,0,0,0,3.267,1.486l.269.037-.3-.028a6.941,6.941,0,0,1-3.873-1.693,7.469,7.469,0,0,1-1.311-1.523.176.176,0,0,1,.079-.265A.259.259,0,0,1,17.722,5.927ZM131.526,4.2V5.262a1.188,1.188,0,0,1-1.033,1.092,1.318,1.318,0,0,1,1.192,1.357c0,.927-.994,1.625-2.5,1.625-1.51-.066-2.464-.762-2.464-1.921l0,0v-.2h1.191v.166a.885.885,0,0,0,.364.741,1.3,1.3,0,0,0,.911.252c.795,0,1.275-.265,1.275-.828,0-.53-.477-.762-1.275-.762h-.516V5.887h.636c.715,0,1.032-.232,1.032-.762V4.2Zm-13.2-.033V4.4c0,1.092,1.95,1.192,1.95,2.947a1.7,1.7,0,0,1-.7,1.435,3.218,3.218,0,0,1-3.542-.092,1.69,1.69,0,0,1-.606-1.508h0V6.849h1.192v.265a1.094,1.094,0,0,0,1.232,1.225,1.221,1.221,0,0,0,.878-.261.824.824,0,0,0,.313-.732c0-1.159-1.907-1.49-1.907-2.881v-.3Zm-66.477,0V4.4c0,1.092,1.95,1.192,1.95,2.947a1.7,1.7,0,0,1-.7,1.435,3.219,3.219,0,0,1-3.543-.092,1.691,1.691,0,0,1-.606-1.508h0V6.849h1.192v.265a1.094,1.094,0,0,0,1.231,1.225,1.223,1.223,0,0,0,.879-.261.823.823,0,0,0,.313-.732c0-1.159-1.907-1.49-1.907-2.881v-.3Zm-11.245,0V4.4c0,1.092,1.95,1.192,1.95,2.947a1.7,1.7,0,0,1-.7,1.435,2.507,2.507,0,0,1-1.764.486,2.508,2.508,0,0,1-1.779-.577,1.692,1.692,0,0,1-.606-1.509V6.849H38.9v.265a1.094,1.094,0,0,0,1.232,1.225,1.223,1.223,0,0,0,.879-.261.823.823,0,0,0,.313-.732c0-1.159-1.907-1.49-1.907-2.881v-.3Zm82.65,0H125.6v.861h-2.186c-.556,0-1.033.2-1.033.7v.662a1.684,1.684,0,0,1,1.47-.562,2.316,2.316,0,0,1,1.512.481A1.6,1.6,0,0,1,126,7.545c0,.993-.993,1.722-2.424,1.722s-2.383-.729-2.383-1.725V5.624a1.51,1.51,0,0,1,.665-1.09A2.158,2.158,0,0,1,123.258,4.167Zm-56.543.794A1.819,1.819,0,0,1,68.424,4.1a2.272,2.272,0,0,1,1.505.577,1.556,1.556,0,0,1,.52,1.311V9.2H69.257V5.988a.953.953,0,1,0-1.9,0V7.18a2.058,2.058,0,0,1-2.345,2.086A2.026,2.026,0,0,1,62.7,7.18V6.187A2.031,2.031,0,0,1,64.967,4.1,1.81,1.81,0,0,1,66.715,4.961Zm36.556-.794V7.113a1.082,1.082,0,0,0,1.192,1.225c.755,0,1.232-.331,1.232-.894,0-.662-.875-.795-.875-1.589h1.192c.04.431.914.629.914,1.687,0,.993-1.033,1.722-2.464,1.722s-2.384-.7-2.384-2.086h0V4.167Zm-69.973,0V7.113a1.082,1.082,0,0,0,1.192,1.225c.755,0,1.232-.331,1.232-.894,0-.662-.875-.795-.875-1.589h1.192c.04.431.914.629.914,1.687,0,.993-1.033,1.722-2.464,1.722S32.106,8.57,32.106,7.18V4.167Zm78.916,0c0,.464.756.53.756,1.159v.562a1.791,1.791,0,0,1,1.708,1.656h0c0,.993-.954,1.722-2.424,1.722s-2.424-.726-2.424-1.722a1.878,1.878,0,0,1,1.95-1.687V5.49c0-.53-.755-.53-.755-1.324Zm-38.148-.1c1.391,0,2.384.7,2.384,1.556a1.051,1.051,0,0,1-.954.993,1.057,1.057,0,0,1,1.033,1.092c0,.894-.994,1.523-2.5,1.523-1.51.033-2.464-.662-2.464-1.788V7.18h1.192v.2a.889.889,0,0,0,.388.7,1.292,1.292,0,0,0,.887.226c.795,0,1.275-.265,1.275-.662,0-.431-.477-.6-.993-.6h-.636V6.154h.636c.517,0,.874-.132.874-.53,0-.364-.437-.662-1.152-.662-.795,0-1.275.4-1.275.861v.132h-1.2V5.789C71.563,4.829,72.557,4.067,74.066,4.067Zm5.682-.033a2.507,2.507,0,0,1,1.778.578,1.692,1.692,0,0,1,.606,1.508v.993c0,1.391-.954,2.086-2.384,2.086a2.371,2.371,0,0,1-1.712-.438,1.6,1.6,0,0,1-.672-1.384V7.047h1.192v.3a.839.839,0,0,0,.332.707,1.233,1.233,0,0,0,.859.253A1.044,1.044,0,0,0,80.9,7.115V6.154a1.06,1.06,0,0,0-1.152-1.192,1.253,1.253,0,0,0-.852.259.857.857,0,0,0-.34.7v.1H77.364v-.1a1.7,1.7,0,0,1,.684-1.389A2.481,2.481,0,0,1,79.748,4.034ZM48.116,4.1V7.113c0,1.391-.954,2.086-2.384,2.086a2.332,2.332,0,0,1-1.7-.441,1.572,1.572,0,0,1-.647-1.38h0V7.047h1.192v.265a.828.828,0,0,0,.3.716,1.221,1.221,0,0,0,.848.277A1.082,1.082,0,0,0,46.926,7.08V6.319a.733.733,0,0,0-.253-.667,1.09,1.09,0,0,0-.78-.26.992.992,0,0,0-.7.173.678.678,0,0,0-.3.555v.1H43.708v-.1a1.457,1.457,0,0,1,.556-1.161A2.117,2.117,0,0,1,45.658,4.5a1.534,1.534,0,0,1,1.275.562V4.1Zm88.112.277a1.9,1.9,0,0,1,1.137,1.776V9.2h-1.192V6.187a1.05,1.05,0,0,0-1.152-1.159,1.039,1.039,0,0,0-1.112,1.159V9.2h-1.192V6.154h-.041a1.9,1.9,0,0,1,1.136-1.776A2.756,2.756,0,0,1,136.228,4.377Zm-45.354-.31a2.079,2.079,0,0,1,1.386.52,1.422,1.422,0,0,1,.481,1.2V7.113H91.55V5.822a.761.761,0,0,0-.795-.861.987.987,0,0,0-.64.243.679.679,0,0,0-.235.552V6.948H88.689V5.755a.633.633,0,0,0-.2-.553.93.93,0,0,0-.631-.242.95.95,0,0,0-.623.248.652.652,0,0,0-.212.547V6.947H85.828V5.755a.741.741,0,0,0-.795-.795.82.82,0,0,0-.835.894v.5c0,1.291.675,1.921,2.822,1.921h3.938V9.2H86.864c-1.748-.033-3.854-.53-3.854-2.781l0,0V5.789a1.473,1.473,0,0,1,.514-1.2,2.141,2.141,0,0,1,1.394-.522,1.7,1.7,0,0,1,1.51.795,1.677,1.677,0,0,1,1.47-.795,1.6,1.6,0,0,1,1.391.795A1.747,1.747,0,0,1,90.874,4.067ZM60.08,4.134V5.06H58.411c-1.311,0-2.344.331-2.5,1.159a1.45,1.45,0,0,1,1.072-.431,1.434,1.434,0,0,1,1.311.795,1.857,1.857,0,0,1,1.629-.795,2.167,2.167,0,0,1,1.4.542,1.494,1.494,0,0,1,.509,1.213V9.169H60.6V7.613a.761.761,0,0,0-.795-.861.967.967,0,0,0-.647.238.661.661,0,0,0-.228.557V8.571H57.7V7.508a.753.753,0,0,0-.835-.795.829.829,0,0,0-.875.894V9.133H54.755V6.883c0-2.25,1.95-2.75,3.536-2.75Zm38.86-.064a2.117,2.117,0,0,1,1.4.516,1.447,1.447,0,0,1,.5,1.206V9.164H99.616V5.852a.761.761,0,0,0-.795-.861.967.967,0,0,0-.647.238.661.661,0,0,0-.228.557V7.872H96.715V5.789a.753.753,0,0,0-.835-.795.829.829,0,0,0-.874.894V9.166H93.775V5.791a1.512,1.512,0,0,1,.553-1.214,2.2,2.2,0,0,1,1.434-.508,1.722,1.722,0,0,1,1.549.795A1.774,1.774,0,0,1,98.94,4.069ZM14.583,8.477a.319.319,0,0,1,.318.265.323.323,0,1,1-.318-.265Zm8.185-.3a.349.349,0,0,1,.226.076.241.241,0,0,1,.092.189A.222.222,0,0,1,23,8.638a.329.329,0,0,1-.234.07.269.269,0,1,1,0-.53Zm89.486-1.563a1.15,1.15,0,0,0-.994.428.771.771,0,0,0,0,.932,1.15,1.15,0,0,0,.994.428,1.221,1.221,0,0,0,.834-.226.865.865,0,0,0,.35-.56l.008-.109a.84.84,0,0,0-.358-.668A1.221,1.221,0,0,0,112.255,6.615Zm11.321.033a.948.948,0,0,0-.96.936,1,1,0,0,0,1.1.822.968.968,0,0,0,1.012-.9.827.827,0,0,0-.352-.639A1.2,1.2,0,0,0,123.576,6.648ZM65.048,4.995a1.05,1.05,0,0,0-1.112,1.192v.927c0,.861.477,1.225,1.112,1.225A1.079,1.079,0,0,0,66.16,7.113V6.187A1.05,1.05,0,0,0,65.048,4.995Zm-47.6,2.72a.277.277,0,0,1,.278.265.211.211,0,0,1-.068.184.31.31,0,0,1-.21.081.269.269,0,1,1,0-.53Zm3.815-.2a.269.269,0,1,1,0,.53.265.265,0,1,1,0-.53Zm-7.352-.331a.349.349,0,0,1,.226.076.241.241,0,0,1,.092.189.269.269,0,0,1-.2.245.366.366,0,0,1-.347-.057.234.234,0,0,1-.069-.289A.324.324,0,0,1,13.907,7.186ZM19.7,4.9l.062.005A.211.211,0,0,1,19.907,5,5.3,5.3,0,0,0,21.5,6.691a6.39,6.39,0,0,0,2.344.961,5.847,5.847,0,0,1-2.663-.894A5.048,5.048,0,0,1,19.51,5.2c-.04-.1-.04-.232.08-.265l.055-.024h0Zm.123,1.686a.269.269,0,1,1,0,.53.319.319,0,0,1-.318-.265A.3.3,0,0,1,19.828,6.589Zm-3.258-.1a.269.269,0,1,1,0,.53.319.319,0,0,1-.318-.265A.3.3,0,0,1,16.57,6.49Zm7.43,0a.318.318,0,0,1,.318.265A.323.323,0,1,1,24,6.49Zm1.351-.166a.3.3,0,0,1,.2.066.208.208,0,0,1,.079.166.283.283,0,1,1-.278-.232Zm-2.781-.2a.328.328,0,0,1,.234.07.222.222,0,0,1,.084.195.323.323,0,1,1-.318-.265Zm3.735-.5a.255.255,0,0,1,.172.056.175.175,0,0,1,.067.143.242.242,0,1,1-.239-.2Zm-7.47-.2a.3.3,0,0,1,.318.265.3.3,0,0,1-.318.265.319.319,0,0,1-.318-.265A.3.3,0,0,1,18.835,5.431Zm7.351-.894a1.786,1.786,0,0,1-1.867,1.391,3.232,3.232,0,0,1-1.391-.265.2.2,0,0,1-.119-.265.508.508,0,0,1,.263-.126l.056.006.038.021.17.087a2.707,2.707,0,0,0,1.141.244A1.588,1.588,0,0,0,26.185,4.536Zm-4.649.828a.319.319,0,0,1,.318.265.323.323,0,0,1-.636,0A.3.3,0,0,1,21.536,5.364Zm3.179-1.954a1.335,1.335,0,0,1,.862.359.92.92,0,0,1,.29.766,1.313,1.313,0,0,1-1.549.729,1.336,1.336,0,0,1-.862-.359.92.92,0,0,1-.29-.766A1.313,1.313,0,0,1,24.715,3.411Zm2.066,1.457a.2.2,0,0,1,.2.166.2.2,0,1,1-.2-.166Zm-3.019-.629a.651.651,0,0,0,.2.536.94.94,0,0,0,.6.259.989.989,0,0,0,1.061-.417.568.568,0,0,1-.505.153.429.429,0,0,1-.437-.431.528.528,0,0,1,.6-.3.5.5,0,0,1,.366.187.713.713,0,0,0-.167-.259.94.94,0,0,0-.6-.259A.956.956,0,0,0,23.762,4.238Zm-1.59.166a.318.318,0,0,1,.318.265.323.323,0,0,1-.636,0A.3.3,0,0,1,22.172,4.4Zm-1.232,0a.354.354,0,0,1,.318.265.323.323,0,0,1-.636,0A.3.3,0,0,1,20.941,4.4Zm2.981-1.621a2.558,2.558,0,0,1,2.095.926l.091.13.079.134-.09-.118L26,3.744a2.419,2.419,0,0,0-3.426.1.377.377,0,0,1-.321.1.328.328,0,0,1-.261-.184.247.247,0,0,1,.066-.28A2.668,2.668,0,0,1,23.921,2.783Zm-2.941.76a.255.255,0,0,1,.172.056.175.175,0,0,1,.067.143.242.242,0,0,1-.477,0A.238.238,0,0,1,20.98,3.543Zm.715-.729a.184.184,0,0,1,.2.166.184.184,0,0,1-.2.166.2.2,0,0,1-.2-.166A.184.184,0,0,1,21.7,2.814Z" transform="translate(0)" fill="#6a7787"/>
  </g>
</svg>
