<svg id="Logo_liberty" data-name="Logo liberty" xmlns="http://www.w3.org/2000/svg" width="96" height="20" viewBox="0 0 96 20">
  <g id="Group-19">
    <rect id="Rectangle" width="96" height="20" fill="none"/>
    <path id="Combined-Shape" d="M10.5-7v-3.267H4.2V-21H0V-7Zm7.2,0V-21H13.5V-7Zm8.31,0c2.97,0,4.59-.56,5.64-1.96a3.24,3.24,0,0,0-.51-4.713c-.57-.49-.57-.513.03-1.4,1.35-1.96.42-4.363-2.04-5.39C27.96-20.93,27.39-21,24.24-21H20.7v3.033h2.64c2.91,0,3.96.327,3.96,1.26,0,.793-.57,1.073-2.16,1.073H23.7V-12.6h1.53c1.95,0,2.67.3,2.67,1.143,0,.91-.63,1.26-2.58,1.377l-1.62.093V-7ZM46.8-7v-3.267H39.6v-2.1h6.6v-3.267H39.6v-2.1h7.2V-21H35.4V-7Zm14.7-.187A30.046,30.046,0,0,0,59.73-9.66l-1.74-2.31,1.26-.957c2.55-1.983,2.46-4.853-.21-6.837C57.6-20.837,56.76-21,52.92-21H49.5v2.987l3.03.093c2.76.07,3.09.117,3.6.63a1.317,1.317,0,0,1-.18,2.24c-.6.49-1.02.583-2.4.583H51.9v1.815c0,1.2.06,1.219.84,1.219.72,0,1.02.257,2.46,2.217L56.85-7h2.34A6.94,6.94,0,0,0,61.5-7.187ZM72.9-7V-17.733h4.5V-21H63.9v3.267h4.5V-7ZM90-7v-5.063l3-4.27c1.65-2.357,3-4.363,3-4.48A8.293,8.293,0,0,0,93.6-21H91.2l-1.62,2.5-1.62,2.52L86.37-18.5,84.75-21H82.29a12.8,12.8,0,0,0-2.49.117c0,.07,1.35,2.053,3,4.41l3,4.27V-7Z" transform="translate(0 24)" fill="#6a7787"/>
  </g>
</svg>
