<svg id="Logo_tbc" data-name="Logo tbc" xmlns="http://www.w3.org/2000/svg" width="90" height="20" viewBox="0 0 90 20">
  <g id="Group-21">
    <rect id="Rectangle" width="90" height="20" transform="translate(0 0)" fill="none"/>
    <path id="Combined-Shape" d="M15.214,13.636a34.8,34.8,0,0,1,6.568,2.409,26.144,26.144,0,0,1,3.195,1.8c.633.45,1.06.876.743,1.349a1.15,1.15,0,0,1-.868.415A105.449,105.449,0,0,1,14.291,20H13.272c-4.888-.011-10.989-.2-12.035-.311-.151-.023-.358-.081-.344-.231,0-.127.124-.184.22-.219a1.935,1.935,0,0,1,.234-.058,37.755,37.755,0,0,0,11.168-4.957A3.087,3.087,0,0,1,15.214,13.636ZM12.267.021a.236.236,0,0,1,.11.277c0,.012-.041.138-.055.2a24.608,24.608,0,0,0-.455,10.583,2.022,2.022,0,0,1-.743,2.237,30.167,30.167,0,0,1-5.77,3.562,28.356,28.356,0,0,1-3.47,1.418c-.785.231-1.432.334-1.763-.138a.782.782,0,0,1,0-.83A69.12,69.12,0,0,1,5.01,9.463c.165-.23.33-.484.5-.726C7.957,5.2,11.207.863,11.854.159A.394.394,0,0,1,12.267.021ZM14,.113a1.139,1.139,0,0,1,.854.427A71.332,71.332,0,0,1,20.543,8c.165.242.33.484.5.738,2.437,3.551,5.3,8.07,5.7,8.877.055.115.1.3-.055.38a.383.383,0,0,1-.344-.058c-.014-.012-.124-.1-.179-.138a36.38,36.38,0,0,0-10.713-5.626c-1.033-.392-1.57-.6-1.942-1.66a21.125,21.125,0,0,1-.8-5.96,17.713,17.713,0,0,1,.262-3.228C13.12.644,13.341.113,14,.113ZM51.388,5.592a6.929,6.929,0,0,1,1.955.265l-.4,1.418a3.6,3.6,0,0,0-1.432-.265,3.4,3.4,0,0,0-1.363.219A1.246,1.246,0,0,0,49.488,8,5.111,5.111,0,0,0,49.3,9.592a5.028,5.028,0,0,0,.193,1.579,1.184,1.184,0,0,0,.647.749,3.151,3.151,0,0,0,1.336.219,3.8,3.8,0,0,0,1.666-.334l.385,1.464a6.747,6.747,0,0,1-2.134.3,4.509,4.509,0,0,1-3.181-.98,3.943,3.943,0,0,1-1.06-3Q47.147,5.6,51.388,5.592Zm-13.233.115V7.171h-2.41v6.295H33.611V7.171h-2.4V5.707Zm4.613,0q2.892,0,2.892,2.075a1.6,1.6,0,0,1-.4,1.164,1.737,1.737,0,0,1-1.157.461,2.249,2.249,0,0,1,1.46.507,1.725,1.725,0,0,1,.509,1.314c0,1.487-1.088,2.236-3.25,2.236H39.436V5.707Zm18.631,0c1.776,0,2.658.669,2.658,2.006a1.8,1.8,0,0,1-.386,1.234,1.474,1.474,0,0,1-1.088.473,2.038,2.038,0,0,1,1.4.507,1.836,1.836,0,0,1,.5,1.372c0,1.453-1.033,2.167-3.085,2.167H58.618V5.707Zm8.345,0,3.332,7.759H71.989l-.757-1.879H67.293l-.757,1.879H65.461l3.332-7.759Zm5.8,0,4.751,6.1v-6.1h.95v7.759H80.43l-4.765-6.1v6.1h-.95V5.707Zm9.13,0V9.4l3.69-3.689h1.267L85.676,9.5,90,13.466H88.637l-3.966-3.85v3.85H83.666V5.707Zm-23.382,4.1H59.6v2.94h1.776a4.654,4.654,0,0,0,1.294-.138,1.031,1.031,0,0,0,.62-.427,1.767,1.767,0,0,0,.193-.9,1.815,1.815,0,0,0-.193-.911,1.021,1.021,0,0,0-.661-.438A5.54,5.54,0,0,0,61.289,9.812Zm-18.673.3H41.5v2.017h1.115a3.125,3.125,0,0,0,.84-.081.7.7,0,0,0,.4-.3,1.532,1.532,0,0,0,.11-.634,1.435,1.435,0,0,0-.11-.622.69.69,0,0,0-.413-.3A3.011,3.011,0,0,0,42.617,10.111ZM69.262,6.687l-1.68,4.185h3.36Zm-7.9-.265H59.6V9.085h1.653a4.057,4.057,0,0,0,1.129-.115.883.883,0,0,0,.551-.4,1.633,1.633,0,0,0,.165-.819,1.854,1.854,0,0,0-.152-.819.846.846,0,0,0-.523-.392A3.585,3.585,0,0,0,61.358,6.422Zm-18.81.588H41.5V8.866h1.033a2.7,2.7,0,0,0,.716-.081.6.6,0,0,0,.33-.277,1.451,1.451,0,0,0,.1-.576,1.429,1.429,0,0,0-.1-.565.6.6,0,0,0-.33-.277A2.589,2.589,0,0,0,42.548,7.01Z" transform="translate(0 0)" fill="#6a7787"/>
  </g>
</svg>
