<svg id="Logo_visa_mastercard" data-name="Logo visa/mastercard" xmlns="http://www.w3.org/2000/svg" width="94" height="20" viewBox="0 0 94 20">
  <g id="Group-18" transform="translate(0 0)">
    <rect id="Rectangle" width="94" height="20" transform="translate(0 0)" fill="none"/>
    <path id="Combined-Shape" d="M81.965,0C88.612,0,94,4.477,94,10S88.612,20,81.965,20a13.776,13.776,0,0,1-6.637-1.657.292.292,0,0,1,.1-.1,10.638,10.638,0,0,0,1.3-1.046A10.79,10.79,0,0,0,79.2,13.794a9.084,9.084,0,0,0,.749-2.561A8.908,8.908,0,0,0,79.895,8.5,9.442,9.442,0,0,0,78.864,5.56a10.94,10.94,0,0,0-3.412-3.753c-.091-.063-.127-.11-.12-.152A13.776,13.776,0,0,1,81.965,0ZM67.206,0a13.774,13.774,0,0,1,6.642,1.66c.007.042-.04.081-.113.132-.216.148-.427.3-.627.465a10.781,10.781,0,0,0-3.282,4.327,9.15,9.15,0,0,0-.678,3.167,8.889,8.889,0,0,0,.282,2.49,9.609,9.609,0,0,0,.894,2.261,11.139,11.139,0,0,0,3.438,3.759.272.272,0,0,1,.084.081A13.775,13.775,0,0,1,67.206,20C60.559,20,55.17,15.523,55.17,10c0-.229.01-.456.028-.681l0,0V9.259C55.66,4.082,60.859,0,67.206,0Zm7.337,2.116a.3.3,0,0,1,.191.065A10.662,10.662,0,0,1,78,5.606,8.666,8.666,0,0,1,79.023,8.28a8.384,8.384,0,0,1,.182,1.88,8.664,8.664,0,0,1-.739,3.3,10.456,10.456,0,0,1-3.721,4.354.367.367,0,0,1-.158.071,9.533,9.533,0,0,1-4.625-7.9A9.521,9.521,0,0,1,74.543,2.116ZM35.94,4.343c-.18.9-.369,1.8-.552,2.7a8.551,8.551,0,0,0-4.034-.583,2.03,2.03,0,0,0-1.557.747.7.7,0,0,0,.361.877c1.122.736,2.575,1.011,3.677,1.775a2.836,2.836,0,0,1,1.505,2.388,3.508,3.508,0,0,1-1.864,3.082,10.417,10.417,0,0,1-5.208,1.178,15.5,15.5,0,0,1-4.386-.666c.135-.932.371-1.853.546-2.782a10.4,10.4,0,0,0,4.992.8,2.619,2.619,0,0,0,1.446-.578.717.717,0,0,0,.08-1,4.179,4.179,0,0,0-1.593-.923,7.708,7.708,0,0,1-3.3-1.98,2.573,2.573,0,0,1-.112-2.984,5.069,5.069,0,0,1,2.85-2.041A12.481,12.481,0,0,1,35.94,4.343Zm6.823-.285c1.147-.033,2.3-.01,3.445-.009,1.081,4.092,2.187,8.179,3.246,12.275q-1.879,0-3.757,0c-.158-.608-.33-1.213-.476-1.822-1.707-.035-3.416-.024-5.123-.007-.265.614-.556,1.22-.832,1.831-1.421,0-2.841,0-4.263,0q2.988-5.64,5.989-11.276A1.964,1.964,0,0,1,42.763,4.059ZM18.287,4.044C16.21,8.135,14.063,12.2,11.979,16.289c-1.431.02-2.863,0-4.3.009C6.5,12.757,5.291,9.224,4.136,5.678A19.392,19.392,0,0,0,0,4.348c0-.072,0-.217,0-.289q3.181,0,6.362,0a2.332,2.332,0,0,1,1.516.406A1.77,1.77,0,0,1,8.388,5.5c.421,1.753.886,3.5,1.3,5.255l.018.028c.131.518.262,1.036.373,1.558,1.323-2.757,2.6-5.529,3.911-8.289C15.424,4.033,16.855,4.05,18.287,4.044Zm5.614,0c-.811,4.088-1.663,8.171-2.5,12.256-1.351,0-2.7,0-4.053,0,.841-4.085,1.664-8.172,2.517-12.255C21.208,4.043,22.556,4.049,23.9,4.041ZM43.357,7.474c-.671,1.487-1.367,2.964-2.064,4.442q.54.006,1.08.006h2.161C44.144,10.438,43.778,8.95,43.357,7.474Z" transform="translate(0 0)" fill="#6a7787"/>
  </g>
</svg>
