<svg xmlns="http://www.w3.org/2000/svg" width="16" height="16" viewBox="0 0 16 16">
    <defs>
        <clipPath id="clip-path">
            <path id="Rectangle_5055" data-name="Rectangle 5055" transform="translate(1298 765)" style="stroke:#707070;fill:#b3bdc7" d="M0 0h16v16H0z"/>
        </clipPath>
        <style>
            .cls-3{fill:#b3bdc7}
        </style>
    </defs>
    <g id="icon_add_new_game" data-name="icon add new game" transform="translate(-1298 -765)" style="clip-path:url(#clip-path)">
        <g id="plus" transform="translate(1298 765)">
            <path id="Path_3631" data-name="Path 3631" class="cls-3" d="M11.5 8.5h-7a.5.5 0 0 1 0-1h7a.5.5 0 0 1 0 1zm0 0"/>
            <path id="Path_3632" data-name="Path 3632" class="cls-3" d="M8 12a.5.5 0 0 1-.5-.5v-7a.5.5 0 0 1 1 0v7a.5.5 0 0 1-.5.5zm0 0"/>
            <path id="Path_3633" data-name="Path 3633" class="cls-3" d="M14.167 16H1.833A1.835 1.835 0 0 1 0 14.167V1.833A1.835 1.835 0 0 1 1.833 0h12.334A1.835 1.835 0 0 1 16 1.833v12.334A1.835 1.835 0 0 1 14.167 16zM1.833 1A.835.835 0 0 0 1 1.833v12.334a.835.835 0 0 0 .833.833h12.334a.835.835 0 0 0 .833-.833V1.833A.835.835 0 0 0 14.167 1zm0 0"/>
        </g>
    </g>
</svg>
