<svg xmlns="http://www.w3.org/2000/svg" width="16" height="15.333" viewBox="0 0 18 18">
  <defs>
    <clipPath id="clip-path">
      <rect id="Rectangle_4967" data-name="Rectangle 4967" width="18" height="18" transform="translate(147 608)" fill="#189541"/>
    </clipPath>
  </defs>
  <g id="fav_icon_active" data-name="fav icon active" transform="translate(-147 -608)" clip-path="url(#clip-path)">
    <path id="star_15_" data-name="star (15)" d="M17.953,6.537a.955.955,0,0,0-.823-.657l-5.2-.472L9.881.6A.957.957,0,0,0,8.12.6L6.067,5.408.87,5.88A.958.958,0,0,0,.326,7.554L4.254,11,3.1,16.1a.957.957,0,0,0,1.424,1.034L9,14.454l4.48,2.679A.957.957,0,0,0,14.9,16.1L13.746,11l3.928-3.444a.958.958,0,0,0,.279-1.017ZM9.086,14.4" transform="translate(147 608.356)" fill="#189541"/>
  </g>
</svg>
