<svg height="15.333" viewBox="0 0 16 15.333" width="16" xmlns="http://www.w3.org/2000/svg">
  <path d="M3.581 15.349a.852.852 0 0 1-.829-1.04l1.03-4.535L.291 6.713a.851.851 0 0 1 .482-1.488l4.619-.419L7.218.532a.85.85 0 0 1 1.564 0l1.826 4.274 4.618.419a.851.851 0 0 1 .483 1.488l-3.49 3.061 1.029 4.534a.85.85 0 0 1-1.265.919L8 12.846l-3.983 2.382a.852.852 0 0 1-.436.121zM8 11.821a.852.852 0 0 1 .436.121l3.759 2.248-.971-4.28a.85.85 0 0 1 .269-.829l3.3-2.891-4.361-.4a.849.849 0 0 1-.707-.515L8 1.247 6.277 5.28a.847.847 0 0 1-.7.513l-4.361.4 3.3 2.891a.849.849 0 0 1 .269.829l-.971 4.279 3.759-2.247A.852.852 0 0 1 8 11.821zM5.357 4.888zm5.285 0zm0 0"
        data-name="icon fav"
        style="fill:#fff" transform="translate(0 -.015)"/>
</svg>
