<svg xmlns="http://www.w3.org/2000/svg" width="20" height="20" viewBox="0 0 20 20">
    <defs>
        <clipPath id="clip-path">
            <path id="Rectangle_517" data-name="Rectangle 517" class="cls-1" transform="translate(0 -.308)" d="M0 0h20v20H0z"/>
        </clipPath>
        <style>
            .cls-1{fill:#96a5b8}
        </style>
    </defs>
    <g id="icon" transform="translate(0 .308)" style="clip-path:url(#clip-path)">
        <g id="wallet_2_" data-name="wallet (2)">
            <g id="Group_521" data-name="Group 521" transform="translate(0 5)">
                <path id="Path_737" data-name="Path 737" class="cls-1" d="M20.1 7H3.9A1.967 1.967 0 0 0 2 8.9v11.2A1.967 1.967 0 0 0 3.9 22h16.2a1.839 1.839 0 0 0 1.9-1.9V19h-5a4 4 0 0 1 0-8h5V8.9A1.967 1.967 0 0 0 20.1 7z" transform="translate(-2 -7)"/>
                <path id="Path_738" data-name="Path 738" class="cls-1" d="M15 15a2.006 2.006 0 0 0 2 2h5v-4h-5a2.006 2.006 0 0 0-2 2zm3-1a1 1 0 1 1-1 1 1 1 0 0 1 1-1z" transform="translate(-2 -7)"/>
            </g>
            <path id="Path_739" data-name="Path 739" class="cls-1" d="m18 6-4-4-4 4z" transform="translate(-2 -2)"/>
            <path id="Path_740" data-name="Path 740" class="cls-1" d="M11.1 3.1 10 2 6 6h2.2z" transform="translate(-2 -2)"/>
        </g>
    </g>
</svg>
