<svg xmlns="http://www.w3.org/2000/svg" width="16" height="16" viewBox="0 0 16 16">
    <defs>
        <clipPath id="clip-path">
            <path id="Rectangle_528" data-name="Rectangle 528" class="cls-1" d="M0 0h16v16H0z"/>
        </clipPath>
        <style>
            .cls-1{fill:#96a5b8}
        </style>
    </defs>
    <g id="icon" style="opacity:.8;clip-path:url(#clip-path)">
        <g id="XMLID_2_" transform="translate(0 2.051)">
            <path id="XMLID_4_" class="cls-1" d="M2.483 8.091h8.426a.727.727 0 0 0 0-1.455H2.483l.94-.94a.727.727 0 0 0-1.028-1.028L.213 6.849C.2 6.866.18 6.884.165 6.9l-.01.014a.685.685 0 0 0-.032.043l-.008.013c-.015.018-.02.03-.029.05v.01l-.026.054v.007a.608.608 0 0 0-.021.06v.008c-.006.02-.011.04-.015.061s0 .013 0 .019-.019.035-.024.052a.717.717 0 0 0 0 .145c0 .018 0 .035.008.052s0 .012 0 .018.01.041.015.062v.007a.53.53 0 0 0 .022.06v.007l.026.055v.01c.009.017.019.032.029.048l.008.013.032.043.01.014a.792.792 0 0 0 .048.053l2.197 2.182a.727.727 0 1 0 1.028-1.029z" transform="translate(0 -1.414)"/>
            <path id="XMLID_5_" class="cls-1" d="M9.428 1.795a5.945 5.945 0 0 0-4.941 2.634.727.727 0 0 0 1.207.811 4.495 4.495 0 1 1 .006 5.016.727.727 0 0 0-1.205.814 5.949 5.949 0 1 0 4.933-9.275z" transform="translate(.623 -1.795)"/>
        </g>
    </g>
</svg>
