<svg xmlns="http://www.w3.org/2000/svg" width="20" height="20" viewBox="0 0 20 20">
    <defs>
        <clipPath id="clip-path">
            <path id="Rectangle_521" data-name="Rectangle 521" class="cls-1" transform="translate(0 -.042)" d="M0 0h20v20H0z"/>
        </clipPath>
        <style>
            .cls-1{fill:#96a5b8}
        </style>
    </defs>
    <g id="icon" transform="translate(0 .042)" style="clip-path:url(#clip-path)">
        <g id="pay" transform="translate(0 3.2)">
            <g id="Group_529" data-name="Group 529">
                <g id="Group_528" data-name="Group 528">
                    <path id="Path_752" data-name="Path 752" class="cls-1" d="M18.8 3.2H1.2A1.2 1.2 0 0 0 0 4.4v2h20v-2a1.2 1.2 0 0 0-1.2-1.2z" transform="translate(0 -3.2)"/>
                    <path id="Path_753" data-name="Path 753" class="cls-1" d="M0 15.6a1.2 1.2 0 0 0 1.2 1.2h17.6a1.2 1.2 0 0 0 1.2-1.2V8.8H0zm3.6-4.4h7.2a.4.4 0 1 1 0 .8H3.6a.4.4 0 1 1 0-.8zm0 1.6h4a.4.4 0 1 1 0 .8h-4a.4.4 0 1 1 0-.8z" transform="translate(0 -3.2)"/>
                </g>
            </g>
        </g>
    </g>
</svg>
