<svg xmlns="http://www.w3.org/2000/svg" width="20" height="20" viewBox="0 0 20 20">
    <defs>
        <clipPath id="clip-path">
            <path id="Rectangle_522" data-name="Rectangle 522" class="cls-1" transform="translate(0 .142)" d="M0 0h20v20H0z"/>
        </clipPath>
        <style>
            .cls-1{fill:#96a5b8}
        </style>
    </defs>
    <g id="icon" transform="translate(0 -.142)" style="clip-path:url(#clip-path)">
        <g id="star_5_" data-name="star (5)">
            <g id="Group_530" data-name="Group 530">
                <path id="Path_754" data-name="Path 754" class="cls-1" d="M10 0a10 10 0 1 0 10 10A10.011 10.011 0 0 0 10 0zm6.506 8.246-3.531 2.746 1.177 4.316a.416.416 0 0 1-.632.456L10 13.418l-3.519 2.345a.416.416 0 0 1-.633-.456l1.177-4.316-3.531-2.745A.417.417 0 0 1 3.75 7.5h4.3l1.563-3.905a.434.434 0 0 1 .774 0L11.948 7.5h4.3a.417.417 0 0 1 .256.746z"/>
            </g>
        </g>
    </g>
</svg>
