<svg xmlns="http://www.w3.org/2000/svg" width="14" height="14">
    <defs>
        <clipPath id="clip-path">
            <path id="Rectangle_4926" data-name="Rectangle 4926" class="cls-1" transform="translate(1695 775)" d="M0 0h14v14H0z"/>
        </clipPath>
        <style>
            .cls-1{fill:#fff}
        </style>
    </defs>
    <g id="Mask_Group_1297" data-name="Mask Group 1297" transform="translate(-1695 -775)" style="clip-path:url(#clip-path)">
        <g id="Payment" transform="translate(1695 775)">
            <path id="Path_3520" data-name="Path 3520" class="cls-1" d="M3.72 7.12h1.12V5.44H3.72a.84.84 0 1 0 0 1.68z" transform="translate(-2.32 -2.64)"/>
            <path id="Path_3521" data-name="Path 3521" class="cls-1" d="M15.12 6.28a.842.842 0 0 0-.84-.84h-.84v1.68h1.68z" transform="translate(-3.64 -2.64)"/>
            <path id="Path_3522" data-name="Path 3522" class="cls-1" d="M14.72 12.96a1.12 1.12 0 0 0 1.12 1.12h1.96v-2.24h-1.96a1.12 1.12 0 0 0-1.12 1.12zm1.68 0a.56.56 0 1 1-.56-.56.56.56 0 0 1 .56.56z" transform="translate(-3.8 -3.44)"/>
            <path id="Path_3523" data-name="Path 3523" class="cls-1" d="M14.84 7.8H3.64a1.4 1.4 0 0 1-1.4-1.4v8.96a1.4 1.4 0 0 0 1.4 1.4h11.2a1.4 1.4 0 0 0 1.4-1.4v-1.4h-1.96a1.68 1.68 0 0 1 0-3.36h1.96V9.2a1.4 1.4 0 0 0-1.4-1.4z" transform="translate(-2.24 -2.76)"/>
            <path id="Path_3524" data-name="Path 3524" class="cls-1" d="M8.729 7.32h.964a.555.555 0 0 0-.964 0z" transform="translate(-3.051 -2.84)"/>
            <path id="Path_3525" data-name="Path 3525" class="cls-1" d="M10.121 6.92h.6V4.932A1.4 1.4 0 0 1 9.628 3.84H8.452A1.4 1.4 0 0 1 7.36 4.932V6.92h.6a1.115 1.115 0 0 1 2.162 0z" transform="translate(-2.88 -2.44)"/>
            <path id="Path_3526" data-name="Path 3526" class="cls-1" d="M6.6 4.48a.282.282 0 0 1 .284-.28.843.843 0 0 0 .836-.836A.282.282 0 0 1 8 3.08h1.68a.282.282 0 0 1 .28.284.843.843 0 0 0 .84.836.282.282 0 0 1 .284.28v2.24h.84v-4.2a.28.28 0 0 0-.28-.28H6.04a.28.28 0 0 0-.28.28v4.2h.84z" transform="translate(-2.68 -2.24)"/>
        </g>
    </g>
</svg>
