<svg xmlns="http://www.w3.org/2000/svg" xmlns:xlink="http://www.w3.org/1999/xlink" width="17" height="17" viewBox="0 0 17 17">
  <defs>
    <clipPath id="clip-path">
      <rect id="Rectangle_650" data-name="Rectangle 650" width="17" height="17" fill="#d9e3ef"/>
    </clipPath>
  </defs>
  <g id="jackpot_icon" data-name="jackpot icon" clip-path="url(#clip-path)">
    <g id="seven_1_" data-name="seven (1)" transform="translate(1.262)">
      <path id="Path_813" data-name="Path 813" d="M15.954.517,15.961,0H12.973V.332A.994.994,0,0,1,12.038,1a4.129,4.129,0,0,1-.752-.125A12.234,12.234,0,0,0,8.3.495a15.39,15.39,0,0,0-3.832.522V0H1.484V4.98H4.472v-1a7.679,7.679,0,0,1,3.145-.491,25.194,25.194,0,0,1,4,.346l.011,0-.017.017C7.653,7.822,5.656,12,5.511,16.486L5.494,17h5.975l-.112-.59A12.2,12.2,0,0,1,13.53,6.455,10.035,10.035,0,0,0,15.954.517Z" transform="translate(-1.484)" fill="#d9e3ef"/>
    </g>
  </g>
</svg>
