<svg xmlns="http://www.w3.org/2000/svg" width="20" height="20" viewBox="0 0 20 20">
    <defs>
        <clipPath id="clip-path">
            <path id="Rectangle_5073" data-name="Rectangle 5073" transform="translate(110 649)" style="stroke:#707070;fill:#b6bfcb" d="M0 0h20v20H0z"/>
        </clipPath>
        <style>
            .cls-3{fill:#b6bfcb}
        </style>
    </defs>
    <g id="secret_card" data-name="secret card" transform="translate(-110 -649)" style="clip-path:url(#clip-path)">
        <g id="credit-card" transform="translate(110 649)">
            <path id="Path_3579" data-name="Path 3579" class="cls-3" d="M20 6.367V5.313a2.187 2.187 0 0 0-2.187-2.187H2.188A2.187 2.187 0 0 0 0 5.313v1.054a.2.2 0 0 0 .2.2h19.6a.2.2 0 0 0 .2-.2z"/>
            <path id="Path_3580" data-name="Path 3580" class="cls-3" d="M0 8.008v6.68a2.187 2.187 0 0 0 2.188 2.188h15.625A2.187 2.187 0 0 0 20 14.688v-6.68a.2.2 0 0 0-.2-.2H.2a.2.2 0 0 0-.2.2zm5 5.117a.625.625 0 0 1-.625.625H3.75a.625.625 0 0 1-.625-.625V12.5a.625.625 0 0 1 .625-.625h.625A.625.625 0 0 1 5 12.5z"/>
        </g>
    </g>
</svg>
