<svg xmlns="http://www.w3.org/2000/svg" xmlns:xlink="http://www.w3.org/1999/xlink" width="20" height="20" viewBox="0 0 20 20">
  <defs>
    <clipPath id="clip-path">
      <rect id="Rectangle_5064" data-name="Rectangle 5064" width="20" height="20" transform="translate(110 587)" fill="#b6bfcb" stroke="#707070" stroke-width="1"/>
    </clipPath>
  </defs>
  <g id="verification" transform="translate(-110 -587)" clip-path="url(#clip-path)">
    <g id="verified" transform="translate(110 587)">
      <path id="Path_3562" data-name="Path 3562" d="M17.956,3.239,10.3.06a.781.781,0,0,0-.6,0L2.044,3.239a.781.781,0,0,0-.482.722V7.824A13.083,13.083,0,0,0,9.7,19.942a.781.781,0,0,0,.59,0A13.083,13.083,0,0,0,18.438,7.824V3.96A.781.781,0,0,0,17.956,3.239ZM16.875,7.824A11.523,11.523,0,0,1,10,18.37,11.524,11.524,0,0,1,3.125,7.824V4.482L10,1.627l6.875,2.854ZM9.136,10.458,12.494,7.1a.781.781,0,1,1,1.1,1.1l-3.91,3.91a.781.781,0,0,1-1.1,0L6.4,9.932a.781.781,0,0,1,1.1-1.1Z" fill="#b6bfcb"/>
    </g>
  </g>
</svg>
