<svg xmlns="http://www.w3.org/2000/svg" width="8" height="8" viewBox="0 0 8 8">
    <defs>
        <clipPath id="clip-path">
            <path id="Rectangle_445" data-name="Rectangle 445" class="cls-1" d="M0 0h8v8H0z"/>
        </clipPath>
        <style>
            .cls-1{fill:#fff}
        </style>
    </defs>
    <g id="arrow" style="opacity:.8;clip-path:url(#clip-path)">
        <g id="down-arrow_9_" data-name="down-arrow (9)" transform="translate(0 1.725)">
            <g id="Group_395" data-name="Group 395">
                <path id="Path_663" data-name="Path 663" class="cls-1" d="m8.295 2.872-.276-.278a.462.462 0 0 0-.652 0l-3.15 3.15-3.154-3.153a.462.462 0 0 0-.652 0l-.276.276a.462.462 0 0 0 0 .652l3.754 3.768a.471.471 0 0 0 .327.148.471.471 0 0 0 .326-.148l3.753-3.758A.466.466 0 0 0 8.43 3.2a.461.461 0 0 0-.135-.328z" transform="translate(0 -2.456)"/>
            </g>
        </g>
    </g>
</svg>
