<svg xmlns="http://www.w3.org/2000/svg" xmlns:xlink="http://www.w3.org/1999/xlink" width="14" height="14" viewBox="0 0 14 14">
  <defs>
    <clipPath id="clip-path">
      <rect id="Rectangle_4811" data-name="Rectangle 4811" width="14" height="14" transform="translate(1663 13)" fill="#fff"/>
    </clipPath>
  </defs>
  <g id="not_visible" data-name="not visible" transform="translate(-1663 -13)" clip-path="url(#clip-path)">
    <g id="invisible" transform="translate(1663 13)">
      <g id="Group_3886" data-name="Group 3886">
        <g id="Group_3885" data-name="Group 3885">
          <path id="Path_3687" data-name="Path 3687" d="M6.893,4.783l2,2,.01-.1A1.91,1.91,0,0,0,7,4.773Z" fill="#fff"/>
          <path id="Path_3688" data-name="Path 3688" d="M7,3.5A3.182,3.182,0,0,1,10.18,6.682a3.132,3.132,0,0,1-.226,1.161L11.815,9.7A7.556,7.556,0,0,0,14,6.682,7.529,7.529,0,0,0,7,1.91a7.441,7.441,0,0,0-2.535.445L5.837,3.727A3.2,3.2,0,0,1,7,3.5Z" fill="#fff"/>
          <path id="Path_3689" data-name="Path 3689" d="M.636,1.767,2.087,3.218l.289.289A7.536,7.536,0,0,0,0,6.682a7.524,7.524,0,0,0,7,4.772,7.46,7.46,0,0,0,2.79-.538l.27.27,1.855,1.858.811-.808L1.447.956ZM4.155,5.282l.983.983a2.016,2.016,0,0,0-.048.417A1.91,1.91,0,0,0,7,8.591a1.961,1.961,0,0,0,.414-.048l.983.983A3.13,3.13,0,0,1,7,9.863,3.16,3.16,0,0,1,4.155,5.282Z" fill="#fff"/>
        </g>
      </g>
    </g>
  </g>
</svg>
