<svg xmlns="http://www.w3.org/2000/svg" width="14" height="9.545" viewBox="0 0 14 9.545">
  <g id="Group_3884" data-name="Group 3884" transform="translate(-1663 -15.227)">
    <g id="show" transform="translate(1663 13)">
      <g id="Group_3883" data-name="Group 3883">
        <g id="Group_3882" data-name="Group 3882">
          <path id="Path_3685" data-name="Path 3685" d="M7,5.091A1.909,1.909,0,1,0,8.909,7,1.911,1.911,0,0,0,7,5.091Z" fill="#fff"/>
          <path id="Path_3686" data-name="Path 3686" d="M7,2.227A7.526,7.526,0,0,0,0,7,7.52,7.52,0,0,0,14,7,7.523,7.523,0,0,0,7,2.227Zm0,7.955A3.182,3.182,0,1,1,10.182,7,3.183,3.183,0,0,1,7,10.182Z" fill="#fff"/>
        </g>
      </g>
    </g>
  </g>
</svg>
