<svg xmlns="http://www.w3.org/2000/svg" width="83.934" height="31.53" viewBox="0 0 83.934 31.53">
    <defs>
        <linearGradient id="linear-gradient" x1=".5" y1="1" x2=".5" gradientUnits="objectBoundingBox">
            <stop offset="0" stop-color="#00aeef"/>
            <stop offset=".211" stop-color="#1bb7c1"/>
            <stop offset=".686" stop-color="#5dcc4f"/>
            <stop offset="1" stop-color="#8bdb00"/>
        </linearGradient>
        <style>
            .cls-1{fill:#00aeef}.cls-2{fill:#8bdb00}.cls-3{fill:url(#linear-gradient)}
        </style>
    </defs>
    <g id="main_logo.ka" transform="translate(.001)">
        <g id="Group_157" data-name="Group 157" transform="translate(39.397 9.467)">
            <g id="Group_151" data-name="Group 151" transform="translate(4.919 16.071)">
                <g id="Group_149" data-name="Group 149">
                    <path id="Path_264" data-name="Path 264" class="cls-1" d="M536.19 308.6h-.319a.346.346 0 0 0-.345.345v.205h.242v-.205a.1.1 0 0 1 .1-.1h.319a.1.1 0 0 1 .1.1v2.53a.1.1 0 0 1-.1.1h-.319a.1.1 0 0 1-.1-.1v-1.265h-.242v1.265a.345.345 0 0 0 .345.345h.319a.346.346 0 0 0 .345-.345v-2.53a.346.346 0 0 0-.345-.345z" transform="translate(-535.526 -308.6)"/>
                    <path id="Path_265" data-name="Path 265" class="cls-2" d="M708.57 310.09h-.319a.339.339 0 0 0-.1.016v-1.161a.1.1 0 0 1 .1-.1h.664v-.245h-.664a.346.346 0 0 0-.345.345v2.53a.345.345 0 0 0 .345.345h.319a.346.346 0 0 0 .345-.345v-1.041a.346.346 0 0 0-.345-.344zm.1 1v.386a.1.1 0 0 1-.1.1h-.319a.1.1 0 0 1-.1-.1v-1.041a.1.1 0 0 1 .1-.1h.319a.1.1 0 0 1 .1.1z" transform="translate(-693.641 -308.6)"/>
                    <path id="Path_266" data-name="Path 266" class="cls-2" d="M682.829 308.6h-.466a.346.346 0 0 0-.345.345v2.855h.242v-2.858a.1.1 0 0 1 .1-.1h.112v.859h.242v-.859h.112a.1.1 0 0 1 .1.1v2.858h.242v-2.858a.346.346 0 0 0-.339-.342z" transform="translate(-669.895 -308.6)"/>
                    <path id="Path_267" data-name="Path 267" class="cls-2" d="M780.913 308.6h-.319a.346.346 0 0 0-.345.345v2.855h.242v-2.858a.1.1 0 0 1 .1-.1h.319a.1.1 0 0 1 .1.1v2.858h.242v-2.858a.346.346 0 0 0-.339-.342z" transform="translate(-759.998 -308.6)"/>
                    <path id="Path_268" data-name="Path 268" class="cls-2" d="M658.247 308.842h.318a.1.1 0 0 1 .1.1h.242a.346.346 0 0 0-.345-.345h-.318a.346.346 0 0 0-.345.345v2.858h.242v-1.368a.1.1 0 0 1 .1-.1h.318a.1.1 0 0 1 .1.1v1.368h.242v-1.368a.345.345 0 0 0-.345-.345h-.318a.34.34 0 0 0-.1.016v-1.161a.1.1 0 0 1 .109-.1z" transform="translate(-647.775 -308.6)"/>
                    <path id="Path_269" data-name="Path 269" class="cls-2" d="M632.826 308.847h-.112v-.241h-.242v.241h-.112a.346.346 0 0 0-.345.345v2.289a.345.345 0 0 0 .345.345h.465a.346.346 0 0 0 .345-.345v-2.289a.346.346 0 0 0-.344-.345zm.1 2.634a.1.1 0 0 1-.1.1h-.465a.1.1 0 0 1-.1-.1v-2.289a.1.1 0 0 1 .1-.1h.112v.617h.242v-.617h.112a.1.1 0 0 1 .1.1v2.289z" transform="translate(-624.03 -308.605)"/>
                    <path id="Path_270" data-name="Path 270" class="cls-1" d="M560.3 308.6h-.319a.346.346 0 0 0-.345.345v2.53a.346.346 0 0 0 .345.345h.543v-.241h-.543a.1.1 0 0 1-.1-.1v-2.53a.1.1 0 0 1 .1-.1h.319a.1.1 0 0 1 .1.1v1.041h.241v-1.041a.346.346 0 0 0-.341-.349z" transform="translate(-557.644 -308.6)"/>
                    <path id="Path_271" data-name="Path 271" class="cls-2" d="M756.8 308.6h-.318a.346.346 0 0 0-.345.345v2.53a.345.345 0 0 0 .345.345h.543v-.241h-.543a.1.1 0 0 1-.1-.1v-2.53a.1.1 0 0 1 .1-.1h.318a.1.1 0 0 1 .1.1v1.041h.242v-1.041a.346.346 0 0 0-.342-.349z" transform="translate(-737.88 -308.6)"/>
                    <path id="Path_272" data-name="Path 272" class="cls-2" d="M584.421 308.6h-.321a.345.345 0 0 0-.345.345v.205H584v-.205a.1.1 0 0 1 .1-.1h.319a.1.1 0 0 1 .1.1v2.53a.1.1 0 0 1-.1.1h-.319a.1.1 0 0 1-.1-.1v-1.265h-.242v1.265a.345.345 0 0 0 .345.345h.319a.346.346 0 0 0 .345-.345v-2.53a.346.346 0 0 0-.346-.345z" transform="translate(-579.766 -308.6)"/>
                    <path id="Path_273" data-name="Path 273" class="cls-2" d="M732.683 308.6h-.319a.346.346 0 0 0-.345.345h.242a.1.1 0 0 1 .1-.1h.039v.859h.241v-.859h.039a.1.1 0 0 1 .1.1v2.53a.1.1 0 0 1-.1.1h-.319a.1.1 0 0 1-.1-.1v-1.265h-.242v1.265a.346.346 0 0 0 .345.345h.319a.345.345 0 0 0 .345-.345v-2.53a.346.346 0 0 0-.345-.345z" transform="translate(-715.759 -308.6)"/>
                    <path id="Path_274" data-name="Path 274" class="cls-2" d="M608.533 308.6v.242a.1.1 0 0 1 .1.1v.92h-.422a.346.346 0 0 0-.345.345h.241a.1.1 0 0 1 .1-.1h.422v1.369a.1.1 0 0 1-.1.1h-.318a.1.1 0 0 1-.1-.1v-.386h-.241v.386a.346.346 0 0 0 .345.345h.318a.345.345 0 0 0 .345-.345v-2.53a.346.346 0 0 0-.345-.346z" transform="translate(-601.882 -308.6)"/>
                </g>
                <g id="Group_150" data-name="Group 150" transform="translate(23.615)">
                    <path id="Path_275" data-name="Path 275" class="cls-1" d="M869.938 308.6h-.465a.346.346 0 0 0-.345.345v1.041a.345.345 0 0 0 .345.345h.027a.346.346 0 0 0 .345-.345v-1.041a.348.348 0 0 0-.016-.1h.109a.1.1 0 0 1 .1.1v1.041a.1.1 0 0 1-.1.1h-.015v.241h.015a.1.1 0 0 1 .1.1v1.041a.1.1 0 0 1-.1.1h-.465a.1.1 0 0 1-.1-.1v-.386h-.241v.386a.345.345 0 0 0 .345.345h.465a.345.345 0 0 0 .345-.345v-1.041a.344.344 0 0 1 0-.449v-1.041a.345.345 0 0 0-.349-.337zm-.335 1.386a.1.1 0 0 1-.1.1h-.027a.1.1 0 0 1-.1-.1v-1.041a.1.1 0 0 1 .1-.1h.027a.1.1 0 0 1 .1.1z" transform="translate(-865.135 -308.6)"/>
                    <path id="Path_276" data-name="Path 276" class="cls-1" d="M919.791 308.6h-.319a.346.346 0 0 0-.345.345v2.53a.345.345 0 0 0 .345.345h.543v-.241h-.543a.1.1 0 0 1-.1-.1v-2.53a.1.1 0 0 1 .1-.1h.319a.1.1 0 0 1 .1.1v1.041h.242v-1.041a.346.346 0 0 0-.342-.349z" transform="translate(-910.998 -308.6)"/>
                    <path id="Path_277" data-name="Path 277" class="cls-1" d="M943.908 308.6h-.318a.346.346 0 0 0-.345.345v.205h.241v-.205a.1.1 0 0 1 .1-.1h.318a.1.1 0 0 1 .1.1v2.53a.1.1 0 0 1-.1.1h-.318a.1.1 0 0 1-.1-.1v-1.265h-.241v1.265a.346.346 0 0 0 .345.345h.318a.346.346 0 0 0 .345-.345v-2.53a.346.346 0 0 0-.345-.345z" transform="translate(-933.119 -308.6)"/>
                    <path id="Path_278" data-name="Path 278" class="cls-1" d="M845.674 308.6h-.319v.242h.319a.1.1 0 0 1 .1.1v2.53a.1.1 0 0 1-.1.1h-.319a.1.1 0 0 1-.1-.1v-.386h-.242v.386a.346.346 0 0 0 .345.345h.319a.345.345 0 0 0 .345-.345v-2.53a.345.345 0 0 0-.348-.342z" transform="translate(-843.014 -308.6)"/>
                    <path id="Path_279" data-name="Path 279" class="cls-1" d="M821.66 311.482a.1.1 0 0 1-.1.1h-.318a.1.1 0 0 1-.1-.1v-2.875h-.241v2.875a.345.345 0 0 0 .345.345h.318a.345.345 0 0 0 .345-.345v-.382h-.241z" transform="translate(-820.893 -308.606)"/>
                    <path id="Path_280" data-name="Path 280" class="cls-1" d="M895.679 308.6h-.318a.346.346 0 0 0-.345.345h.241a.1.1 0 0 1 .1-.1h.038v.859h.242v-.859h.038a.1.1 0 0 1 .1.1v2.53a.1.1 0 0 1-.1.1h-.318a.1.1 0 0 1-.1-.1h-.241a.345.345 0 0 0 .345.345h.318a.346.346 0 0 0 .345-.345v-2.53a.346.346 0 0 0-.345-.345z" transform="translate(-888.881 -308.6)"/>
                </g>
            </g>
            <g id="Group_156" data-name="Group 156">
                <g id="Group_152" data-name="Group 152" transform="translate(12.904)">
                    <path id="Path_281" data-name="Path 281" class="cls-2" d="M639.407 246.062a2.665 2.665 0 0 1-1.824.719h-5.039a.521.521 0 0 0 0 1.042h5.039a3.7 3.7 0 0 0 2.535-1 .521.521 0 0 0-.711-.762z" transform="translate(-632.023 -235.038)"/>
                    <path id="Path_282" data-name="Path 282" class="cls-2" d="M647.6 120.617a3.148 3.148 0 0 0 .649-1.921 3.187 3.187 0 0 0-3.184-3.183H641.4v-.591a.521.521 0 0 0-1.042 0v1.112a.521.521 0 0 0 .521.521h4.191a2.144 2.144 0 0 1 2.142 2.141 2.119 2.119 0 0 1-.5 1.371 3.691 3.691 0 0 0-1.487-.313h-1.842a.521.521 0 0 0 0 1.042h1.842a2.676 2.676 0 0 1 2.673 2.673q0 .112-.009.221a.521.521 0 0 0 .478.561h.042a.521.521 0 0 0 .519-.479c.008-.1.012-.2.012-.3a3.709 3.709 0 0 0-1.34-2.855z" transform="translate(-639.667 -114.4)"/>
                </g>
                <g id="Group_153" data-name="Group 153" transform="translate(22.92)">
                    <path id="Path_283" data-name="Path 283" class="cls-2" d="M760.994 157.991a3.181 3.181 0 0 0 .613-2.4.521.521 0 1 0-1.03.156 2.151 2.151 0 0 1 .024.325 2.128 2.128 0 0 1-.5 1.371 3.7 3.7 0 0 0-1.486-.312h-1.842a.521.521 0 0 0 0 1.042h1.842a2.674 2.674 0 1 1 0 5.347h-5.039a.521.521 0 1 0 0 1.042h5.039a3.713 3.713 0 0 0 2.377-6.567z" transform="translate(-753.057 -151.774)"/>
                    <path id="Path_284" data-name="Path 284" class="cls-2" d="M761.915 116.554h4.191a2.135 2.135 0 0 1 1.106.307.521.521 0 1 0 .539-.891 3.177 3.177 0 0 0-1.645-.458h-3.67v-.591a.521.521 0 0 0-1.042 0v1.112a.521.521 0 0 0 .521.521z" transform="translate(-760.704 -114.4)"/>
                </g>
                <g id="Group_154" data-name="Group 154" transform="translate(0 .491)">
                    <path id="Path_285" data-name="Path 285" class="cls-2" d="M485.413 122.335a.509.509 0 0 0 .594-.828 6.223 6.223 0 0 0-3.624-1.169h-.024a6.271 6.271 0 0 0-1.825 12.271.5.5 0 0 0 .148.022.509.509 0 0 0 .148-1 5.252 5.252 0 0 1 1.034-10.253v5.241a.509.509 0 1 0 1.019 0v-5.238a5.2 5.2 0 0 1 2.53.954z" transform="translate(-476.088 -120.337)"/>
                    <path id="Path_286" data-name="Path 286" class="cls-2" d="M570.14 153.483a.509.509 0 1 0-.865.538 5.254 5.254 0 0 1-2.935 7.795.509.509 0 0 0 .148 1 .5.5 0 0 0 .148-.022 6.272 6.272 0 0 0 3.5-9.307z" transform="translate(-558.54 -150.519)"/>
                </g>
                <g id="Group_155" data-name="Group 155" transform="translate(33.209 .591)">
                    <path id="Path_287" data-name="Path 287" class="cls-2" d="M897.17 128.143c0-3.173-2.171-6.6-5.678-6.6h-4.366a.521.521 0 0 0 0 1.042h4.366c2.864 0 4.636 2.884 4.636 5.556 0 .139-.008.278-.021.416 0 .01-.005.019-.006.029a4.633 4.633 0 0 1-1.247 2.723.521.521 0 0 0 .756.717 5.682 5.682 0 0 0 1.292-2.206.448.448 0 0 0 .032-.066 5.587 5.587 0 0 0 .236-1.611z" transform="translate(-885.843 -121.545)"/>
                    <path id="Path_288" data-name="Path 288" class="cls-2" d="M884.7 199.673a4.622 4.622 0 0 1-6.23-3.8h1.191a.521.521 0 1 0 0-1.042h-1.743a.521.521 0 0 0-.521.521 5.665 5.665 0 0 0 7.673 5.293.521.521 0 0 0-.37-.974z" transform="translate(-877.397 -188.767)"/>
                </g>
            </g>
        </g>
        <g id="Group_158" data-name="Group 158" transform="translate(-.001)">
            <path id="Path_289" data-name="Path 289" class="cls-3" d="M6.609 23.457a.514.514 0 0 0 .068-.084c.007-.009.01-.019.017-.029a.585.585 0 0 0 .034-.064c.006-.014.009-.028.014-.041s.013-.039.017-.058l.008-.045c.003-.015 0-.04.005-.059s0-.03 0-.045a.408.408 0 0 0-.006-.059c0-.014-.005-.029-.009-.044a.41.41 0 0 0-.017-.056l-.017-.044a.4.4 0 0 0-.027-.051c-.008-.015-.018-.029-.027-.042a.208.208 0 0 0-.011-.018 11.36 11.36 0 0 1-1.168-1.875.2.2 0 0 0-.012-.031.562.562 0 0 0-.753-.258l-1.164.57a.563.563 0 0 0 .5 1.011l.667-.327A12.646 12.646 0 0 0 5.47 23l-1.48 1.48A14.654 14.654 0 0 1 1.2 17.3l2.056-.135A12.97 12.97 0 0 0 3.5 18.57a.563.563 0 1 0 1.1-.25 11.523 11.523 0 0 1-.27-1.986h2.076a9.322 9.322 0 0 0 1.631 4.734V21.081l.032.037a.449.449 0 0 0 .033.041h.005a.513.513 0 0 0 .052.042l.035.028.053.028c.018.01.029.016.045.023l.049.015c.018 0 .036.011.054.015a.381.381 0 0 0 .054.005.481.481 0 0 0 .054.005.472.472 0 0 0 .056-.006.382.382 0 0 0 .052-.005.453.453 0 0 0 .048-.013.51.51 0 0 0 .057-.018.359.359 0 0 0 .038-.019.775.775 0 0 0 .062-.034.512.512 0 0 0 .08-.066l2.335-2.335a.6.6 0 0 0 .066-.081.419.419 0 0 0 .017-.028.577.577 0 0 0 .032-.06.366.366 0 0 0 .014-.036.572.572 0 0 0 .018-.063l.008-.034a.533.533 0 0 0 .008-.089v-.009a.567.567 0 0 0-.009-.1c0-.01-.005-.02-.008-.028a.61.61 0 0 0-.02-.067.346.346 0 0 0-.016-.037c0-.011-.009-.022-.014-.033a5 5 0 0 1-.235-4.272.563.563 0 1 0-1.043-.423 6.117 6.117 0 0 0 .1 4.849l-1.539 1.55A8.186 8.186 0 0 1 7.516 15.8v-.06a8.216 8.216 0 0 1 .071-1.046l.222-1.1a8.246 8.246 0 0 1 4.855-5.455l.653 2a6.111 6.111 0 0 0-.979.531l-.012.01h-.005a.564.564 0 0 0-.153.781l.849 1.258a.563.563 0 0 0 .781.152.541.541 0 0 0 .085-.07.565.565 0 0 0 .068-.712l-.516-.763a4.913 4.913 0 0 1 .736-.316.2.2 0 0 0 .022 0l.033-.013a4.989 4.989 0 0 1 3.2.054l-1.8 1.8a2.926 2.926 0 0 0-2.808 3.069.563.563 0 0 0 1.125-.053 1.8 1.8 0 0 1 1.891-1.891h.013a.629.629 0 0 0 .074 0h.041a.775.775 0 0 0 .077-.022c.009 0 .021-.005.031-.009a.568.568 0 0 0 .188-.125l2.542-2.558a.656.656 0 0 0 .064-.079.3.3 0 0 0 .016-.027l.017-.025c.006-.009.006-.018.011-.027s.017-.037.023-.056l.015-.05c.005-.016.008-.037.011-.054s0-.036 0-.055v-.107c0-.018-.006-.036-.01-.054s-.01-.034-.016-.05a.548.548 0 0 0-.02-.051.5.5 0 0 0-.026-.049l-.028-.044a.545.545 0 0 0-.039-.046c-.007-.008-.011-.016-.018-.023a.155.155 0 0 0-.018-.015.491.491 0 0 0-.045-.037c-.015-.012-.032-.022-.048-.033l-.02-.012a6.115 6.115 0 0 0-4.285-.585l-.653-2a8.205 8.205 0 0 1 2.494-.239.563.563 0 1 0 .065-1.124 9.594 9.594 0 0 0-.443-.015l-.1-2.075a11.383 11.383 0 0 1 6.43 1.97l-1.508 1.5a9.273 9.273 0 0 0-1.781-.856.563.563 0 1 0-.376 1.061 8.177 8.177 0 0 1 1.914.978c.012.008.024.012.036.019a.435.435 0 0 0 .059.031l.039.013a.536.536 0 0 0 .061.018.314.314 0 0 0 .04.006.348.348 0 0 0 .062.007h.042a.421.421 0 0 0 .06-.007l.043-.007.058-.017.04-.016a.474.474 0 0 0 .062-.033l.029-.016a.629.629 0 0 0 .082-.068l2.3-2.3a.582.582 0 0 0 .05-.057c0-.005.006-.011.01-.017a.475.475 0 0 0 .032-.051l.024-.046a.365.365 0 0 0 .019-.053.422.422 0 0 0 .015-.051c0-.018.006-.035.009-.053s0-.036.005-.054 0-.036 0-.054 0-.036-.005-.053-.008-.036-.012-.054-.009-.035-.015-.051-.014-.032-.022-.049a.354.354 0 0 0-.026-.05.392.392 0 0 0-.03-.043c-.012-.015-.024-.031-.038-.046l-.013-.015c-.009-.009-.019-.015-.028-.023s-.017-.018-.027-.026a12.452 12.452 0 0 0-3.647-1.918l.569-1.992a14.8 14.8 0 0 1 4.654 2.534.562.562 0 0 0 .751-.041.47.47 0 0 0 .041-.044.563.563 0 0 0-.085-.792 15.837 15.837 0 0 0-2.853-1.834A15.746 15.746 0 0 0 .6 11.448a.252.252 0 0 0-.01.023c0 .01 0 .021-.006.032A15.781 15.781 0 0 0 .03 16.72a.562.562 0 0 0 0 .088c0 .025.008.047.011.07a15.784 15.784 0 0 0 3.459 8.81c.006.008.014.013.021.021a.243.243 0 0 0 .019.022l.021.018.044.037c.015.01.03.021.046.03a.4.4 0 0 0 .049.025.412.412 0 0 0 .051.021.321.321 0 0 0 .051.015.454.454 0 0 0 .054.01.509.509 0 0 0 .052.006h.052a.408.408 0 0 0 .054-.005.5.5 0 0 0 .053-.01.48.48 0 0 0 .051-.015l.052-.021.047-.024a.553.553 0 0 0 .049-.033l.023-.014c.008-.006.013-.015.021-.021l.023-.018 2.274-2.274zm4.53-21.578c.188-.062.377-.119.567-.175l1.094-.27a14.47 14.47 0 0 1 6.428.113l-.57 2A12.617 12.617 0 0 0 7.272 6.492L5.805 5.025a14.6 14.6 0 0 1 5.334-3.146zM1.532 12.324l.306-1.083A14.666 14.666 0 0 1 5.01 5.822l1.465 1.466a12.514 12.514 0 0 0-2.065 3.056.564.564 0 0 0 .265.751l.035.013 1.329.637a.566.566 0 0 0 .642-.11.574.574 0 0 0 .11-.156.563.563 0 0 0-.265-.75l-.841-.4a11.428 11.428 0 0 1 8.938-5.934l.1 2.076a9.355 9.355 0 0 0-3.9 1.349l-.923.647a9.343 9.343 0 0 0-3.5 6.741H4.324a11.74 11.74 0 0 1 .161-1.454.563.563 0 1 0-1.109-.2 12.711 12.711 0 0 0-.193 2.48l-2.054.136a14.728 14.728 0 0 1 .403-3.846z" transform="translate(.001)"/>
            <path id="Path_290" data-name="Path 290" class="cls-3" d="M93.476 74.627a.674.674 0 0 0-.013-.085.431.431 0 0 0-.018-.049 15.738 15.738 0 0 0-3.02-6.056c-.007-.008-.015-.013-.021-.021a.244.244 0 0 0-.019-.023l-.02-.017-.045-.037a.785.785 0 0 0-.095-.056l-.05-.021-.052-.015-.053-.012a.465.465 0 0 0-.054 0 .454.454 0 0 0-.053 0 .448.448 0 0 0-.054.005l-.052.01-.052.015-.052.021-.047.025c-.015.009-.034.021-.05.033s-.015.009-.022.014-.014.015-.022.021-.016.011-.022.018l-2.275 2.275-.013.015a.603.603 0 0 0-.035.043.467.467 0 0 0-.033.047.368.368 0 0 0-.023.044.4.4 0 0 0-.025.055c-.006.015-.009.031-.014.047s-.01.038-.013.057a.423.423 0 0 0 0 .051v.056c0 .019 0 .036.005.054l.008.053a.79.79 0 0 0 .016.052.444.444 0 0 0 .019.052 1.07 1.07 0 0 0 .056.098l.011.016a11.416 11.416 0 0 1 1.126 1.815.564.564 0 0 0 .756.251.574.574 0 0 0 .147-.105.566.566 0 0 0 .105-.65 12.6 12.6 0 0 0-.962-1.6l1.481-1.481a14.623 14.623 0 0 1 2.288 4.63l-2.535.631a.563.563 0 0 0-.41.682c0 .005 0 .01.006.016a11.517 11.517 0 0 1 .319 2.19h-2.084a9.325 9.325 0 0 0-1.627-4.735V73.043a.327.327 0 0 0-.032-.038.437.437 0 0 0-.033-.041c-.017-.016-.035-.03-.054-.044s-.022-.019-.034-.026a.541.541 0 0 0-.053-.028l-.045-.023a.5.5 0 0 0-.049-.014c-.019-.005-.037-.012-.055-.016s-.036 0-.053 0a.3.3 0 0 0-.111 0c-.017 0-.034 0-.051.005a.362.362 0 0 0-.048.015.332.332 0 0 0-.057.018c-.014.006-.026.014-.038.02a.547.547 0 0 0-.061.034c-.015.01-.027.024-.04.035a.476.476 0 0 0-.039.031l-.008.008-2.33 2.33c-.007.007-.011.015-.018.021s-.027.031-.039.049l-.028.042c-.009.014-.018.034-.026.051l-.02.049c-.006.016-.011.035-.016.052s-.008.034-.01.051a.522.522 0 0 0-.005.057.26.26 0 0 0 0 .051.353.353 0 0 0 .005.056c0 .018.007.036.01.054a.511.511 0 0 0 .015.051.492.492 0 0 0 .023.055c0 .008.007.017.011.027a5.014 5.014 0 0 1-6.086 7.11l1.8-1.8a2.926 2.926 0 0 0 2.791-3.069.563.563 0 0 0-1.125.054 1.8 1.8 0 0 1-1.89 1.89h-.013a.494.494 0 0 0-.061 0 .269.269 0 0 0-.05 0c-.02 0-.036.009-.055.014l-.051.015-.05.024a.454.454 0 0 0-.047.026c-.014.009-.027.02-.041.031l-.047.038-.01.008-2.54 2.54c-.006.005-.009.012-.014.017a.444.444 0 0 0-.037.047.424.424 0 0 0-.033.048c0 .006-.009.011-.013.019l-.011.026c-.004.008-.017.037-.024.057s-.01.034-.014.05l-.011.054a.431.431 0 0 0 0 .054v.054a.44.44 0 0 0 0 .054c0 .018.006.035.011.054l.014.049a.47.47 0 0 0 .021.051.507.507 0 0 0 .025.049l.028.045c.01.015.026.031.039.047l.018.022.018.015c.014.013.029.024.046.037a.539.539 0 0 0 .048.033l.019.013a6.063 6.063 0 0 0 1.675.607l-.236 2.092a8.227 8.227 0 0 1-3.189-1.312.527.527 0 0 0-.062-.034.276.276 0 0 0-.037-.02.412.412 0 0 0-.063-.02c-.015 0-.028-.01-.042-.012a.377.377 0 0 0-.065-.007h-.043a.59.59 0 0 0-.068.006h-.04a.448.448 0 0 0-.06.017c-.015 0-.031.008-.046.013a.419.419 0 0 0-.04.021.463.463 0 0 0-.057.03c-.01.006-.018.015-.027.021a.438.438 0 0 0-.061.051l-2.3 2.3-.023.029c-.008.01-.018.017-.025.027a.1.1 0 0 0-.01.016.564.564 0 0 0-.031.051.415.415 0 0 0-.025.047.457.457 0 0 0-.02.053c-.005.017-.011.034-.015.052a.5.5 0 0 0-.009.052.493.493 0 0 0 0 .054v.054c0 .018 0 .035.005.053l.012.053a.5.5 0 0 0 .016.051.486.486 0 0 0 .022.049l.026.05a.5.5 0 0 0 .03.043c.013.015.024.031.039.047l.012.014c.01.01.02.015.029.024s.017.018.027.026a12.478 12.478 0 0 0 1.951 1.229l-.847 1.884-.045-.022a14.736 14.736 0 0 1-2.649-1.7.563.563 0 0 0-.708.877A15.759 15.759 0 0 0 82.9 93.381a.217.217 0 0 0 .026-.005l.036-.014a15.733 15.733 0 0 0 10.514-18.735zm-20.8 17.3.848-1.885c.272.11.548.21.83.3a.562.562 0 0 0 .569-.139.556.556 0 0 0 .139-.228.563.563 0 0 0-.367-.706 11.443 11.443 0 0 1-1.219-.468h-.016a11.321 11.321 0 0 1-1.717-.962l1.507-1.507A9.364 9.364 0 0 0 77.6 87.7v2.086c-.248-.013-.5-.029-.742-.057h-.011a.562.562 0 0 0-.623.5.666.666 0 0 0 0 .087l-.162 1.413a.563.563 0 0 0 .957.462.556.556 0 0 0 .161-.334l.109-.954a12.622 12.622 0 0 0 4.128-.4l.622 1.964a14.582 14.582 0 0 1-9.36-.543zm10.435.2-.621-1.964a12.406 12.406 0 0 0 2.567-1.288.5.5 0 0 0 .09-.072.563.563 0 0 0-.708-.868 11.442 11.442 0 0 1-5.714 1.855V87.7a9.427 9.427 0 0 0 1.719-.261.563.563 0 0 0-.274-1.093 8.219 8.219 0 0 1-2.37.237l.237-2.094A6.168 6.168 0 0 0 82.51 82.7a6.064 6.064 0 0 0 1.113-1.534l1.955.79A8.25 8.25 0 0 1 83.16 84.9a8.512 8.512 0 0 1-.73.5.564.564 0 0 0-.189.773l.664 1.094a.562.562 0 0 0 .773.19.553.553 0 0 0 .106-.084.562.562 0 0 0 .083-.689l-.383-.634c.12-.084.239-.168.355-.257a9.362 9.362 0 0 0 3.008-3.942.564.564 0 0 0-.312-.733h-.015l-.014-.007-2.468-1a6.175 6.175 0 0 0-.284-4.3l1.554-1.554a8.165 8.165 0 0 1 .716 1.636l.262 1.1a8.216 8.216 0 0 1 .114 1.359c0 .2-.01.405-.025.608l-.811-.116a.563.563 0 0 0-.161 1.115l1.354.194.035.009a.563.563 0 0 0 .638-.477c.037-.258.061-.516.077-.774H89.6a11.448 11.448 0 0 1-1.452 5.044l-.007.012a.052.052 0 0 1 0 .008 11.375 11.375 0 0 1-1 1.489l-.614-.54a.563.563 0 0 0-.743.845l1.048.923a.563.563 0 0 0 .769-.025l.025-.026a12.435 12.435 0 0 0 1.216-1.638l1.8 1.014a14.585 14.585 0 0 1-7.527 6.105zm9.6-12.212a14.567 14.567 0 0 1-1.464 5c-.021.044-.045.085-.067.129l-1.8-1.013a12.589 12.589 0 0 0 1.1-8.165l2-.5a14.7 14.7 0 0 1 .3 3.422z" transform="translate(-62.412 -62.584)"/>
        </g>
    </g>
</svg>
