<svg xmlns="http://www.w3.org/2000/svg" width="120" height="48" viewBox="0 0 120 48">
    <defs>
        <clipPath id="clip-path">
            <path id="Rectangle_253" data-name="Rectangle 253" transform="translate(197 611)" style="fill:#fff" d="M0 0h120v48H0z"/>
        </clipPath>
        <style>
            .cls-3{fill:#00adee;fill-rule:evenodd}
        </style>
    </defs>
    <g id="Mask_Group_30" data-name="Mask Group 30" transform="translate(-197 -611)" style="clip-path:url(#clip-path)">
        <g id="new-logo.421be624" transform="translate(197 617.372)">
            <g id="Group_142" data-name="Group 142" transform="translate(0 .426)">
                <path id="Path_249" data-name="Path 249" class="cls-3" d="M13 14.607a2.953 2.953 0 0 1-.82 2.933 33.09 33.09 0 0 1-6.32 4.66 27.14 27.14 0 0 1-3.8 1.852c-.855.309-1.574.439-1.931-.18a1.189 1.189 0 0 1 0-1.09 94.432 94.432 0 0 1 5.356-10.276c.178-.312.362-.632.55-.957C8.719 6.918 12.278 1.249 12.978.34c.1-.132.285-.285.455-.185a.328.328 0 0 1 .121.36c0 .021-.045.187-.061.252A38.322 38.322 0 0 0 13 14.607"/>
            </g>
            <path id="Path_250" data-name="Path 250" class="cls-3" d="M16.917 16.475c-1.128-.514-1.716-.782-2.13-2.177a33.108 33.108 0 0 1-.875-7.8 27.193 27.193 0 0 1 .294-4.213C14.367 1.391 14.614.7 15.328.7a1.187 1.187 0 0 1 .941.548 94.408 94.408 0 0 1 6.223 9.768q.272.466.554.955c2.669 4.64 5.8 10.557 6.236 11.617.063.154.1.389-.066.488a.331.331 0 0 1-.371-.076 8.622 8.622 0 0 1-.188-.179 38.327 38.327 0 0 0-11.739-7.35m-3.208 2.674a2.952 2.952 0 0 1 2.95-.756 33.122 33.122 0 0 1 7.191 3.141 27.221 27.221 0 0 1 3.5 2.361c.7.587 1.167 1.144.81 1.763a1.188 1.188 0 0 1-.945.542 94.434 94.434 0 0 1-11.571.5h-1.1C9.188 26.7 2.5 26.451 1.362 26.3c-.162-.022-.389-.1-.389-.3 0-.16.145-.245.252-.285.02-.007.184-.055.248-.073a38.343 38.343 0 0 0 12.236-6.491"/>
            <path id="Path_251" data-name="Path 251" d="M37.944 16.8v6.167h-1.75V16.8h-1.968v-1.437h5.688V16.8zm6.318 4.771a.537.537 0 0 0 .323-.292 2.046 2.046 0 0 0 0-1.229.54.54 0 0 0-.328-.291 2.126 2.126 0 0 0-.683-.084h-.916v1.979h.917a2.121 2.121 0 0 0 .687-.083zm-.172-3.193a.476.476 0 0 0 .271-.265 2.068 2.068 0 0 0 0-1.126.474.474 0 0 0-.271-.265 1.553 1.553 0 0 0-.567-.079h-.865v1.813h.854a1.625 1.625 0 0 0 .579-.078zm-.39-3.015q2.374 0 2.375 2.031a1.766 1.766 0 0 1-.333 1.14 1.268 1.268 0 0 1-.948.454 1.674 1.674 0 0 1 1.193.5 1.824 1.824 0 0 1 .421 1.28q0 2.2-2.666 2.2h-2.771v-7.6zm4.458 6.74a4.286 4.286 0 0 1-.864-2.927q0-3.917 3.468-3.917a4.852 4.852 0 0 1 1.6.25l-.323 1.4a2.475 2.475 0 0 0-1.177-.261 2.344 2.344 0 0 0-1.121.214 1.186 1.186 0 0 0-.535.75 5.921 5.921 0 0 0-.157 1.568 5.991 5.991 0 0 0 .151 1.546 1.143 1.143 0 0 0 .532.734 2.327 2.327 0 0 0 1.1.209 2.665 2.665 0 0 0 1.365-.323l.313 1.427a4.706 4.706 0 0 1-1.751.3 3.311 3.311 0 0 1-2.6-.969M37.946 6.709a3.427 3.427 0 0 0-.1-.94.812.812 0 0 0-.33-.477 1.2 1.2 0 0 0-.642-.144 1.1 1.1 0 0 0-.612.144.813.813 0 0 0-.314.477 3.643 3.643 0 0 0-.1.94V8.75a3.637 3.637 0 0 0 .1.94.813.813 0 0 0 .314.478 1.1 1.1 0 0 0 .612.143 1.2 1.2 0 0 0 .642-.143.81.81 0 0 0 .329-.478 3.394 3.394 0 0 0 .1-.94zm4.463-2.2A3.177 3.177 0 0 1 43 6.593v1.87a7.936 7.936 0 0 1-.563 3.082h-1.549a9.225 9.225 0 0 0 .51-3.082V6.6a2.245 2.245 0 0 0-.206-1.126.771.771 0 0 0-.707-.329.789.789 0 0 0-.723.334A2.189 2.189 0 0 0 39.55 6.6v2.16a3.1 3.1 0 0 1-.675 2.173 2.6 2.6 0 0 1-2 .728 2.544 2.544 0 0 1-1.977-.733 3.116 3.116 0 0 1-.669-2.168V6.7a3.187 3.187 0 0 1 .647-2.162 2.383 2.383 0 0 1 1.89-.738 2.492 2.492 0 0 1 1.254.287 1.554 1.554 0 0 1 .7.839 1.934 1.934 0 0 1 .759-.855 2.379 2.379 0 0 1 1.2-.27 2.13 2.13 0 0 1 1.729.709zm6.709.02a3.1 3.1 0 0 1 .674 2.171v1.763a7.934 7.934 0 0 1-.563 3.082h-1.572a9.256 9.256 0 0 0 .51-3.082V6.709a3.568 3.568 0 0 0-.1-.939.818.818 0 0 0-.313-.479 1.377 1.377 0 0 0-1.223 0 .813.813 0 0 0-.313.479 3.577 3.577 0 0 0-.1.94v1.743a9.433 9.433 0 0 0 .51 3.091h-1.564a8.049 8.049 0 0 1-.564-3.071V6.7a3.12 3.12 0 0 1 .669-2.168 3.024 3.024 0 0 1 3.947 0m5.419 5.536a1.37 1.37 0 0 0 .25-.913 1.371 1.371 0 0 0-.25-.914 1.009 1.009 0 0 0-.8-.287.971.971 0 0 0-.777.287 1.4 1.4 0 0 0-.244.915 1.369 1.369 0 0 0 .25.913.978.978 0 0 0 .78.287.991.991 0 0 0 .791-.287m1.876-.9q0 2.5-2.667 2.5t-2.656-2.5a2.189 2.189 0 0 1 2.018-2.476v-.43a.631.631 0 0 0-.133-.409 3.645 3.645 0 0 0-.462-.441 2.838 2.838 0 0 1-.313-.3.963.963 0 0 1-.171-.313 1.639 1.639 0 0 1-.068-.526v-.359h1.646v.17a.582.582 0 0 0 .112.366 2.439 2.439 0 0 0 .388.367 1.857 1.857 0 0 1 .478.515 1.381 1.381 0 0 1 .149.685v.734a2.171 2.171 0 0 1 1.679 2.411m5.968-4.633a3.105 3.105 0 0 1 .674 2.17v1.763a7.956 7.956 0 0 1-.563 3.082h-1.573a9.225 9.225 0 0 0 .51-3.082V6.709a3.6 3.6 0 0 0-.1-.939.814.814 0 0 0-.314-.479 1.374 1.374 0 0 0-1.222 0 .814.814 0 0 0-.314.479 3.635 3.635 0 0 0-.1.94v1.743a9.386 9.386 0 0 0 .51 3.091h-1.562a8.072 8.072 0 0 1-.563-3.071V6.7a3.117 3.117 0 0 1 .669-2.168 3.024 3.024 0 0 1 3.947 0m2.173-.616h1.626v5.227a1.332 1.332 0 0 0 .266.924 1.12 1.12 0 0 0 .86.287 1.141 1.141 0 0 0 .862-.281 1.315 1.315 0 0 0 .265-.919 1.463 1.463 0 0 0-.079-.49 5.069 5.069 0 0 0-.24-.541 4.878 4.878 0 0 1-.28-.665 2.143 2.143 0 0 1-.091-.653v-.158h1.626a1.931 1.931 0 0 0 .091.552 5.971 5.971 0 0 0 .248.616c.121.284.209.515.266.7a2.216 2.216 0 0 1 .085.653q0 2.5-2.752 2.5t-2.753-2.514V3.915zm11.407.615a3.105 3.105 0 0 1 .674 2.169v1.763a7.956 7.956 0 0 1-.562 3.082H74.5a9.256 9.256 0 0 0 .51-3.082V6.709a3.63 3.63 0 0 0-.1-.939.814.814 0 0 0-.314-.479 1.374 1.374 0 0 0-1.222 0 .818.818 0 0 0-.315.479 3.639 3.639 0 0 0-.095.94v1.743a9.386 9.386 0 0 0 .51 3.091H71.9a8.072 8.072 0 0 1-.563-3.071V6.7a3.116 3.116 0 0 1 .669-2.168 3.025 3.025 0 0 1 3.948 0m7.609 2.775a1.81 1.81 0 0 0 .34-1.207 1.8 1.8 0 0 0-.34-1.218 1.32 1.32 0 0 0-1.037-.382 1.286 1.286 0 0 0-1.03.382 1.842 1.842 0 0 0-.329 1.218 1.821 1.821 0 0 0 .333 1.211 1.561 1.561 0 0 0 2.065-.005m3.817.988a2.393 2.393 0 0 1 .256 1.119 1.949 1.949 0 0 1-.774 1.678 4 4 0 0 1-4.015.058 1.617 1.617 0 0 1-.743-1.4 1.416 1.416 0 0 1 .073-.449l.763.1a1.815 1.815 0 0 0-.03.334 1.009 1.009 0 0 0 .481.931 2.772 2.772 0 0 0 1.421.293 2.56 2.56 0 0 0 1.538-.356 1.4 1.4 0 0 0 .46-1.182 1.838 1.838 0 0 0-.282-1.1 1.074 1.074 0 0 0-.931-.387h-.062v-.715h.323a1.155 1.155 0 0 0 .921-.319 1.6 1.6 0 0 0 .272-1.041q0-1.358-1.172-1.359a1.116 1.116 0 0 0-.873.329 1.329 1.329 0 0 0-.3.926V6.1a2.326 2.326 0 0 1-.58 1.736 2.489 2.489 0 0 1-3.163 0 2.27 2.27 0 0 1-.603-1.736 2.276 2.276 0 0 1 .6-1.735 2.205 2.205 0 0 1 1.575-.565 1.724 1.724 0 0 1 1.746 1.014 1.492 1.492 0 0 1 .659-.785 2.19 2.19 0 0 1 1.046-.229 1.655 1.655 0 0 1 1.427.6 2.436 2.436 0 0 1 .445 1.49 1.934 1.934 0 0 1-.34 1.129 1.556 1.556 0 0 1-1.03.628 1.286 1.286 0 0 1 .894.647m5.328-4.219a2.092 2.092 0 0 1 .816.79 2.322 2.322 0 0 1 .3 1.2v3.223a2.382 2.382 0 0 1-.616 1.751 2.307 2.307 0 0 1-1.716.622 2.6 2.6 0 0 1-1.213-.271 1.97 1.97 0 0 1-.8-.748 2.04 2.04 0 0 1-.283-1.061 2.232 2.232 0 0 1 .282-1.151l.732.167a2.667 2.667 0 0 0-.188.973 1.387 1.387 0 0 0 .35 1.04 1.566 1.566 0 0 0 1.124.341 1.52 1.52 0 0 0 1.193-.387 2.025 2.025 0 0 0 .334-1.317V6.109a1.706 1.706 0 0 0-.366-1.234A1.428 1.428 0 0 0 91.6 4.51q-1.369 0-1.369 1.234a2.532 2.532 0 0 0 .135.826l-.763.166a2.12 2.12 0 0 1-.2-.961 1.752 1.752 0 0 1 .3-1 2.141 2.141 0 0 1 .811-.711A2.323 2.323 0 0 1 91.6 3.8a2.294 2.294 0 0 1 1.109.276m6.7.4A2.976 2.976 0 0 1 100 6.5v1.355a11.224 11.224 0 0 1-.183 2.123 5.224 5.224 0 0 1-.539 1.569h-.8a7.487 7.487 0 0 0 .732-3.7v-1.3a4.075 4.075 0 0 0-.14-1.213 1.044 1.044 0 0 0-.461-.612 2.225 2.225 0 0 0-1.767 0 1.045 1.045 0 0 0-.461.612 4.086 4.086 0 0 0-.14 1.213v1.3a9.91 9.91 0 0 0 .215 2.128 6.657 6.657 0 0 0 .517 1.574h-.826a6.61 6.61 0 0 1-.507-1.585 10.116 10.116 0 0 1-.214-2.107V6.486a2.94 2.94 0 0 1 .6-2.013 2.171 2.171 0 0 1 1.7-.663 2.135 2.135 0 0 1 1.689.668m-39.54 14.609a.834.834 0 0 0 .443-.474 2.787 2.787 0 0 0 .13-.968 2.8 2.8 0 0 0-.13-.969.832.832 0 0 0-.443-.474 2.252 2.252 0 0 0-.9-.141h-1.454v3.167h1.448a2.311 2.311 0 0 0 .906-.14m1.364-1.443a2 2 0 0 1-2.229 2.291h-1.49v3.032h-.82v-7.6h2.323a1.989 1.989 0 0 1 2.218 2.282m3.136-1.324-1.386 4.1h2.759zm-1.615 4.8-.624 1.844h-.878l2.729-7.6h.782l2.729 7.6h-.9l-.614-1.844H62.76zm4.324-5.76h.926l1.958 3.822 1.959-3.822h.9l-2.49 4.646v2.959h-.76v-2.963z" style="fill:#6c6e70;fill-rule:evenodd"/>
        </g>
    </g>
</svg>
