<svg xmlns="http://www.w3.org/2000/svg" width="20" height="20" viewBox="0 0 20 20">
  <g id="top_matches_icon" data-name="top matches icon" transform="translate(-132 -885)">
    <path id="football_9_" data-name="football (9)" d="M10,0A10,10,0,1,0,20,10,10,10,0,0,0,10,0Zm.357,2.883,3.476-1.39a9.354,9.354,0,0,1,1.142.616l.009.006a9.387,9.387,0,0,1,1.029.755l.028.024q.219.187.426.386l.053.051q.217.212.42.437l.033.039c.119.133.233.271.344.412l.079.1c.12.156.237.315.347.478l-.693,2.946-3.41,1.137L10.358,6.251ZM2.6,4.32l.079-.1q.165-.209.34-.407l.037-.042q.2-.225.419-.437c.017-.016.033-.033.051-.048q.205-.2.422-.384l.033-.028A9.423,9.423,0,0,1,5,2.123l.013-.008A9.364,9.364,0,0,1,6.151,1.5L9.643,2.883V6.25L6.358,8.877,2.949,7.743,2.256,4.8c.111-.163.226-.322.346-.477Zm-.4,10.8q-.147-.224-.281-.457L1.9,14.621q-.133-.231-.252-.471l0-.005A9.287,9.287,0,0,1,1.2,13.112v0c-.059-.167-.113-.337-.163-.509l-.018-.063Q.953,12.294.9,12.047c0-.016-.007-.031-.011-.047a9.278,9.278,0,0,1-.176-1.129L2.746,8.429,6.132,9.557l.983,3.931L5.5,15.636Zm10.02,3.949c-.167.041-.338.077-.509.109l-.072.013c-.146.026-.293.048-.441.067l-.118.015c-.137.016-.275.028-.414.038l-.13.01c-.177.011-.356.017-.536.017q-.247,0-.492-.013c-.02,0-.039,0-.058,0q-.218-.012-.433-.033l-.017,0a9.5,9.5,0,0,1-.94-.15L6.088,16.042l1.589-2.119h4.645l1.615,2.133ZM19.115,12l-.011.047q-.056.247-.124.489l-.018.063c-.05.172-.1.342-.163.509v0a9.256,9.256,0,0,1-.439,1.033l0,.005q-.12.239-.252.471l-.022.037q-.133.233-.281.456l-3.289.519-1.626-2.147.982-3.93,3.386-1.129,2.035,2.442A9.256,9.256,0,0,1,19.115,12Zm0,0" transform="translate(132 885)" fill="#d9e3ef"/>
  </g>
</svg>
