<svg xmlns="http://www.w3.org/2000/svg" width="10" height="10" viewBox="0 0 10 10">
    <defs>
        <clipPath id="clip-path">
            <path id="Rectangle_491" data-name="Rectangle 491" class="cls-1" d="M0 0h10v10H0z"/>
        </clipPath>
        <style>
            .cls-1{fill:#fff}
        </style>
    </defs>
    <g id="delete" style="opacity:.9;clip-path:url(#clip-path)">
        <g id="cancel_8_" data-name="cancel (8)">
            <g id="Group_571" data-name="Group 571">
                <path id="Path_699" data-name="Path 699" class="cls-1" d="m6.1 5 3.74-3.739a.548.548 0 0 0 0-.773L9.513.16a.548.548 0 0 0-.774 0L5 3.9 1.261.16a.548.548 0 0 0-.773 0L.16.488a.547.547 0 0 0 0 .773L3.9 5 .16 8.739a.549.549 0 0 0 0 .774l.328.328a.548.548 0 0 0 .773 0L5 6.1l3.739 3.74a.543.543 0 0 0 .387.16.543.543 0 0 0 .387-.16l.328-.328a.548.548 0 0 0 0-.773z"/>
            </g>
        </g>
    </g>
</svg>
