<svg xmlns="http://www.w3.org/2000/svg" width="161.633" height="28.24" viewBox="0 0 161.633 28.24">
    <defs>
        <clipPath id="clip-path">
            <path id="Rectangle_10363" data-name="Rectangle 10363" style="fill:none" d="M0 0h161.633v28.24H0z"/>
        </clipPath>
        <style>
            .cls-3{fill:#fff}
        </style>
    </defs>
    <g id="bog_en" data-name="bog en" style="clip-path:url(#clip-path)">
        <path id="Path_575" data-name="Path 575" class="cls-3" d="M32.918 5.56C32.682 5.19 29.176 0 23.1 0h-13a7.622 7.622 0 0 0-7.622 7.62v14.262c0 .421-.655.187-.655.187a2.009 2.009 0 0 0-.561-.094A1.258 1.258 0 0 0 0 23.237c0 1.5 2.338 2.1 3.273 2.1a4.278 4.278 0 0 0 .794-.047 7.716 7.716 0 0 0 6.033 2.95h12.95a7.622 7.622 0 0 0 7.621-7.62v-7.809s1.589-2.01 1.776-2.2 1.262-1.73 1.589-2.383.047-.935-1.123-2.665"/>
        <path id="Path_576" data-name="Path 576" d="M26.357 23.566a2.812 2.812 0 0 0 .935.14c1.4 0 2.01-.561 2.01-1.215 0-.748-1.029-.748-1.123-1.449-.14-.842-.047-4.582 1.4-6.639l.982.421a1.522 1.522 0 0 0 .608.14.883.883 0 0 0 .655-.327 18.913 18.913 0 0 0 2.527-3.459c.14-.234-1.917-2.805-3.039-3.693a4.677 4.677 0 0 0-2.848-.985 4.513 4.513 0 0 0-4.3 3.039 21.842 21.842 0 0 1-6.452 3.089c-3.133.842-6.358.047-8.509.187A4.432 4.432 0 0 0 4.76 17.4c.047 2.431 1.73 4.629 1.73 6.92a2.5 2.5 0 0 1-2.48 2.566c-1.215 0-1.262-.468-1.636-.468A.3.3 0 0 0 2 26.7c0 .608 1.5 1.169 2.338 1.169a3.707 3.707 0 0 0 3.177-1.589 2.794 2.794 0 0 0 2.805 1.636c1.776 0 2.525-.842 2.525-1.543 0-.561-.327-.794-.608-1.169a1.693 1.693 0 0 1-.327-1.076 8.337 8.337 0 0 0 .935.047c1.262 0 1.683-.515 1.683-1.029 0-.655-.748-.608-.748-1.683 0-.842.468-1.076.842-1.076.421 0 2.057.14 4.067.374.655.047 2.295.7 2.295 3.273v.935c0 1.543.608 3.507 3.414 3.507 1.87 0 2.946-1.029 2.946-1.823 0-.515-.421-.7-.655-1.029a2.415 2.415 0 0 1-.327-2.057" transform="translate(-1.065 -3.461)" style="fill:#f26724"/>
        <path id="Path_577" data-name="Path 577" class="cls-3" d="M63.427 19.1a.327.327 0 1 0 .327.327.319.319 0 0 0-.327-.327" transform="translate(-33.598 -10.17)"/>
        <path id="Path_578" data-name="Path 578" class="cls-3" d="M65.881 17a.281.281 0 1 0 .281.281.269.269 0 0 0-.281-.281" transform="translate(-34.928 -9.051)"/>
        <path id="Path_579" data-name="Path 579" class="cls-3" d="M67.134 14.7a.234.234 0 1 0 .234.234.251.251 0 0 0-.234-.234" transform="translate(-35.62 -7.827)"/>
        <path id="Path_580" data-name="Path 580" class="cls-3" d="M46.974 17.148a.374.374 0 1 0-.374-.374c.047.234.187.374.374.374" transform="translate(-24.812 -8.732)"/>
        <path id="Path_581" data-name="Path 581" class="cls-3" d="M49.927 36.2a.334.334 0 0 0-.327.374.361.361 0 0 0 .327.374.369.369 0 0 0 .374-.374c-.047-.187-.187-.374-.374-.374" transform="translate(-26.409 -19.274)"/>
        <path id="Path_582" data-name="Path 582" class="cls-3" d="M54.374 37a.374.374 0 1 0 .374.374c-.048-.234-.187-.374-.374-.374" transform="translate(-28.752 -19.7)"/>
        <path id="Path_583" data-name="Path 583" class="cls-3" d="M50.474 29.4a.374.374 0 1 0 0 .748.344.344 0 0 0 .374-.374.369.369 0 0 0-.374-.374" transform="translate(-26.676 -15.654)"/>
        <path id="Path_584" data-name="Path 584" class="cls-3" d="M53.121 23.448a.378.378 0 1 0-.326-.374.374.374 0 0 0 .326.374" transform="translate(-28.106 -12.086)"/>
        <path id="Path_585" data-name="Path 585" class="cls-3" d="M41.274 20.348a.374.374 0 1 0-.374-.374c.047.234.187.374.374.374" transform="translate(-21.777 -10.436)"/>
        <path id="Path_586" data-name="Path 586" class="cls-3" d="M45.574 34.7a.374.374 0 1 0 .374.374c-.047-.234-.187-.374-.374-.374" transform="translate(-24.067 -18.476)"/>
        <path id="Path_587" data-name="Path 587" class="cls-3" d="M43.474 24.048a.334.334 0 0 0 .327-.374.361.361 0 0 0-.327-.374.374.374 0 0 0 0 .748" transform="translate(-22.949 -12.406)"/>
        <path id="Path_588" data-name="Path 588" class="cls-3" d="M38.674 29.2a.374.374 0 1 0 .374.374.4.4 0 0 0-.374-.374" transform="translate(-20.393 -15.548)"/>
        <path id="Path_589" data-name="Path 589" class="cls-3" d="M46.474 27.548a.374.374 0 1 0-.374-.374c.047.234.187.374.374.374" transform="translate(-24.546 -14.269)"/>
        <path id="Path_590" data-name="Path 590" class="cls-3" d="M34.574 21.7a.374.374 0 1 0 .374.374.369.369 0 0 0-.374-.374" transform="translate(-18.21 -11.554)"/>
        <path id="Path_591" data-name="Path 591" class="cls-3" d="M36.274 25.6a.374.374 0 1 0 .374.374c-.047-.234-.187-.374-.374-.374" transform="translate(-19.115 -13.631)"/>
        <path id="Path_592" data-name="Path 592" class="cls-3" d="M41.774 32.1a.374.374 0 1 0 .374.374c-.047-.187-.187-.374-.374-.374" transform="translate(-22.043 -17.091)"/>
        <path id="Path_593" data-name="Path 593" class="cls-3" d="M49.474 20.648a.374.374 0 1 0-.374-.374c.047.234.187.374.374.374" transform="translate(-26.143 -10.596)"/>
        <path id="Path_594" data-name="Path 594" class="cls-3" d="M54.974 30.8a.374.374 0 1 0 .374.374.369.369 0 0 0-.374-.374" transform="translate(-29.072 -16.399)"/>
        <path id="Path_595" data-name="Path 595" class="cls-3" d="M56.874 24.7a.374.374 0 0 0 0 .748.344.344 0 0 0 .374-.374.369.369 0 0 0-.374-.374" transform="translate(-30.083 -13.152)"/>
        <path id="Path_596" data-name="Path 596" class="cls-3" d="M56.374 18.5a.374.374 0 1 0 .374.374.344.344 0 0 0-.374-.374" transform="translate(-29.817 -9.85)"/>
        <path id="Path_597" data-name="Path 597" class="cls-3" d="M59.974 19.6a.374.374 0 1 0 .374.374.4.4 0 0 0-.374-.374" transform="translate(-31.734 -10.436)"/>
        <path id="Path_598" data-name="Path 598" class="cls-3" d="M53.774 16.2a.374.374 0 1 0 .374.374c-.047-.234-.187-.374-.374-.374" transform="translate(-28.433 -8.625)"/>
        <path id="Path_599" data-name="Path 599" class="cls-3" d="M52.274 13.3a.374.374 0 1 0 .374.374c-.047-.187-.187-.374-.374-.374" transform="translate(-27.634 -7.082)"/>
        <path id="Path_600" data-name="Path 600" class="cls-3" d="M55.374 13.3a.374.374 0 1 0 .374.374.4.4 0 0 0-.374-.374" transform="translate(-29.285 -7.082)"/>
        <path id="Path_601" data-name="Path 601" class="cls-3" d="M52.2 10.981a.3.3 0 0 1 .281-.281.269.269 0 0 1 .281.281.281.281 0 0 1-.561 0" transform="translate(-27.793 -5.697)"/>
        <path id="Path_602" data-name="Path 602" class="cls-3" d="M54.1 8.734a.234.234 0 1 1 .234.234.251.251 0 0 1-.234-.234" transform="translate(-28.806 -4.526)"/>
        <path id="Path_603" data-name="Path 603" class="cls-3" d="M56.5 7.687a.187.187 0 1 1 .187.187.2.2 0 0 1-.187-.187" transform="translate(-30.083 -3.993)"/>
        <path id="Path_604" data-name="Path 604" class="cls-3" d="M66.9 12.887a.187.187 0 1 1 .187.187.2.2 0 0 1-.187-.187" transform="translate(-35.62 -6.762)"/>
        <path id="Path_605" data-name="Path 605" class="cls-3" d="M66.3 20.387a.187.187 0 1 1 .187.187c-.047 0-.14-.094-.187-.187" transform="translate(-35.301 -10.755)"/>
        <path id="Path_606" data-name="Path 606" class="cls-3" d="M67.4 18.987a.187.187 0 1 1 .187.187.2.2 0 0 1-.187-.187" transform="translate(-35.887 -10.01)"/>
        <path id="Path_607" data-name="Path 607" class="cls-3" d="M65.2 21.887a.187.187 0 1 1 .187.187.2.2 0 0 1-.187-.187" transform="translate(-34.716 -11.554)"/>
        <path id="Path_608" data-name="Path 608" class="cls-3" d="M63.9 23.187a.187.187 0 1 1 .187.187c-.094 0-.14-.094-.187-.187" transform="translate(-34.024 -12.247)"/>
        <path id="Path_609" data-name="Path 609" class="cls-3" d="M68.4 17.487a.187.187 0 1 1 .187.187.2.2 0 0 1-.187-.187" transform="translate(-36.42 -9.211)"/>
        <path id="Path_610" data-name="Path 610" class="cls-3" d="M69.1 16.187a.187.187 0 1 1 .187.187c-.094 0-.14-.047-.187-.187" transform="translate(-36.792 -8.519)"/>
        <path id="Path_611" data-name="Path 611" class="cls-3" d="M20.391 40.357a5.662 5.662 0 0 1-.421-4.488 3.738 3.738 0 0 1 3.834-2.2 3.285 3.285 0 0 0-1.5-.281 3.739 3.739 0 0 0-3.4 4.021 4.3 4.3 0 0 0 1.5 2.946" transform="translate(-10.058 -17.774)"/>
        <path id="Path_612" data-name="Path 612" class="cls-3" d="M10.989 27.176a3 3 0 0 1-.889-2.151 3.094 3.094 0 0 1 3.039-3.039c1.73-.094 4.909.421 6.967.14.7 3.133 3.039 5.33 4.766 6.733-2.1-.935-4.208-3.414-6.639-4.766-2.525-1.4-5.1-1.636-6.452-.374a3.493 3.493 0 0 0-.794 3.46" transform="translate(-5.378 -11.701)"/>
        <path id="Path_613" data-name="Path 613" class="cls-3" d="M25.7 39.9c.14.889-1.5 1.215-1.5 1.215 1.5.281 1.964-.514 1.964-.514a3.569 3.569 0 0 0-.468-.7" transform="translate(-12.885 -21.245)"/>
        <path id="Path_614" data-name="Path 614" class="cls-3" d="M50.41 40.9a4.689 4.689 0 0 0-.281 3.883 5.049 5.049 0 0 1-1.73.883s2.244.281 2.946-.889c-1.4-1.076-.982-3.693-.935-3.883" transform="translate(-25.771 -21.776)"/>
        <path id="Path_615" data-name="Path 615" class="cls-3" d="M60.1 10.266a1.489 1.489 0 0 0-1.823 1.029 1.453 1.453 0 0 0 1.356 1.589 1.489 1.489 0 0 0 1.823-1.029 1.453 1.453 0 0 0-1.356-1.589m1.123 1.543a1.085 1.085 0 0 1-1.309.748 1.029 1.029 0 0 1-.935-1.123 1.085 1.085 0 0 1 1.309-.748 1.029 1.029 0 0 1 .935 1.123" transform="translate(-31.02 -5.45)"/>
        <path id="Path_616" data-name="Path 616" class="cls-3" d="M62.094 12.612a.6.6 0 0 1 .7-.421.565.565 0 0 1 .515.608.6.6 0 0 1-.7.421.565.565 0 0 1-.514-.608" transform="translate(-33.058 -6.487)"/>
        <path id="Path_617" data-name="Path 617" class="cls-3" d="M56.868 38.3c.514.982-1.169 1.356-1.169 1.356 1.215.187 1.87-.514 1.87-.842a3.027 3.027 0 0 1-.7-.514" transform="translate(-29.657 -20.393)"/>
        <path id="Path_618" data-name="Path 618" class="cls-3" d="M35.395 31.294s.234.281.608.655a15 15 0 0 0 1.5 1.262 11.435 11.435 0 0 0 1.636 1.029 3.075 3.075 0 0 0 .561.281 1.965 1.965 0 0 1 .234.094 1.965 1.965 0 0 0-.234-.094 3.213 3.213 0 0 1-.608-.281 14.045 14.045 0 0 1-1.73-.982 11.856 11.856 0 0 1-1.543-1.215 6.857 6.857 0 0 1-.655-.655.142.142 0 0 1 0-.187.353.353 0 0 1 .234.094" transform="translate(-18.703 -16.612)"/>
        <path id="Path_619" data-name="Path 619" class="cls-3" d="M60.249 10.081a2.526 2.526 0 0 0-4.255-.187.4.4 0 1 1-.607-.515 2.86 2.86 0 0 1 2.2-.98 2.824 2.824 0 0 1 2.665 1.683" transform="translate(-29.437 -4.47)"/>
        <path id="Path_620" data-name="Path 620" class="cls-3" d="M54.165 18.683a6.151 6.151 0 0 1-3.133-1.262 6.547 6.547 0 0 1-1.964-2.2c-.047-.14-.047-.327.094-.374a.252.252 0 0 1 .374.094 7.109 7.109 0 0 0 1.87 2.383 6.89 6.89 0 0 0 2.759 1.357" transform="translate(-26.112 -7.879)"/>
        <path id="Path_621" data-name="Path 621" class="cls-3" d="M50 22.6a7.59 7.59 0 0 1-4.909-2.431 10.266 10.266 0 0 1-1.543-2.151.273.273 0 1 1 .468-.281 9.215 9.215 0 0 0 1.823 2.712A7.065 7.065 0 0 0 50 22.6" transform="translate(-23.161 -9.371)"/>
        <path id="Path_622" data-name="Path 622" class="cls-3" d="M37.7 20.487a.265.265 0 0 1 .327.187 9.991 9.991 0 0 0 2.383 3.834 8.86 8.86 0 0 0 5.845 2.618 8.954 8.954 0 0 1-6.312-2.618 10.342 10.342 0 0 1-2.383-3.647.248.248 0 0 1 .14-.374" transform="translate(-19.977 -10.902)"/>
        <path id="Path_623" data-name="Path 623" class="cls-3" d="M57.8 14.776a2.745 2.745 0 0 0 1.543.468 1.9 1.9 0 0 0 2.011-1.544 2.206 2.206 0 0 1-2.2 1.964 3.258 3.258 0 0 1-1.636-.374.3.3 0 0 1-.14-.374c.14-.14.327-.234.421-.14" transform="translate(-30.542 -7.295)"/>
        <path id="Path_624" data-name="Path 624" class="cls-3" d="M85.014 41.149a1.191 1.191 0 0 1-.748 1.123 1.312 1.312 0 0 1 .889 1.169c0 1.029-.7 1.5-1.964 1.5H80.9V39.7h2.151c1.168 0 1.964.421 1.964 1.449m-3.133.7h1.076c.514 0 .935-.094.935-.608s-.421-.608-.935-.608h-1.076zm0 2.2h1.169c.561 0 .935-.14.935-.655 0-.468-.374-.608-.935-.608h-1.169z" transform="translate(-43.075 -21.138)"/>
        <path id="Path_625" data-name="Path 625" class="cls-3" d="m94.955 44.984-.468-1.215h-2.244l-.468 1.215H90.7l2.057-5.284h1.262l2.057 5.284zm-.842-2.2-.748-2.057-.747 2.06z" transform="translate(-48.293 -21.138)"/>
        <path id="Path_626" data-name="Path 626" class="cls-3" d="m107.44 44.984-2.712-3.553v3.553H103.7V39.7h.982l2.665 3.507V39.7h1.076v5.284z" transform="translate(-55.215 -21.138)"/>
        <path id="Path_627" data-name="Path 627" class="cls-3" d="M117.376 42.789v2.2H116.3V39.7h1.076v2.1h.468l1.776-2.1h1.309l-2.2 2.572 2.383 2.712h-1.356l-1.917-2.2z" transform="translate(-61.923 -21.138)"/>
        <path id="Path_628" data-name="Path 628" class="cls-3" d="M136.717 42.159a2.736 2.736 0 1 1-.8-1.958 2.759 2.759 0 0 1 .8 1.958m-4.488 0a1.684 1.684 0 1 0 1.683-1.73 1.633 1.633 0 0 0-1.683 1.73" transform="translate(-69.857 -20.979)"/>
        <path id="Path_629" data-name="Path 629" class="cls-3" d="M146.029 42.833v2.151H145V39.7h3.883v.935h-2.852v1.215h2.669v.982z" transform="translate(-77.205 -21.138)"/>
        <path id="Path_630" data-name="Path 630" class="cls-3" d="m163.569 40.135-.748.748a1.686 1.686 0 0 0-1.262-.561 1.731 1.731 0 0 0-.047 3.46 1.367 1.367 0 0 0 1.5-1.169H161.7v-.889h2.431v.281a2.543 2.543 0 0 1-2.572 2.712 2.759 2.759 0 0 1 .047-5.517 3.246 3.246 0 0 1 1.964.935" transform="translate(-84.556 -20.872)"/>
        <path id="Path_631" data-name="Path 631" class="cls-3" d="M172.3 44.984V39.7h3.883v.935h-2.852V41.8h2.759v.984h-2.759V44h2.9v.982z" transform="translate(-91.74 -21.138)"/>
        <path id="Path_632" data-name="Path 632" class="cls-3" d="M188.017 42.159a2.736 2.736 0 1 1-.8-1.958 2.759 2.759 0 0 1 .8 1.958m-4.488 0a1.684 1.684 0 1 0 1.683-1.73 1.633 1.633 0 0 0-1.683 1.73" transform="translate(-97.171 -20.979)"/>
        <path id="Path_633" data-name="Path 633" class="cls-3" d="M200.514 41.289a1.524 1.524 0 0 1-1.543 1.543h-.047l1.636 2.1h-1.26l-1.543-2.1h-.327v2.151h-1.03V39.7h2.244c1.215 0 1.87.561 1.87 1.589m-3.133.655h1.169c.561 0 .889-.234.889-.655s-.327-.655-.889-.655h-1.169z" transform="translate(-104.572 -21.138)"/>
        <path id="Path_634" data-name="Path 634" class="cls-3" d="m211.52 40.135-.748.748a1.686 1.686 0 0 0-1.262-.561 1.731 1.731 0 0 0-.047 3.46 1.367 1.367 0 0 0 1.5-1.169h-1.356v-.889h2.431v.281a2.544 2.544 0 0 1-2.572 2.712 2.759 2.759 0 1 1 .047-5.517 3.38 3.38 0 0 1 2.01.935" transform="translate(-110.06 -20.872)"/>
        <path id="Rectangle_493" data-name="Rectangle 493" class="cls-3" transform="translate(102.955 18.562)" d="M0 0h1.029v5.284H0z"/>
        <path id="Path_635" data-name="Path 635" class="cls-3" d="m228.155 44.984-.468-1.215h-2.244l-.468 1.215H223.9l2.057-5.284h1.262l2.057 5.284zm-.794-2.2-.748-2.057-.748 2.057z" transform="translate(-119.214 -21.138)"/>
        <path id="Path_636" data-name="Path 636" class="cls-3" d="M80.8 19.355V15.1h1.4v4.161c0 1.215.561 1.73 1.4 1.73.889 0 1.449-.468 1.449-1.262 0-.935-1.029-1.123-1.029-2.244h1.4c.047.608 1.076.889 1.076 2.383 0 1.4-1.215 2.431-2.9 2.431a2.62 2.62 0 0 1-2.8-2.944" transform="translate(-43.022 -8.04)"/>
        <path id="Path_637" data-name="Path 637" class="cls-3" d="M94.9 19.355v-.468h1.4v.374c0 1.215.561 1.73 1.449 1.73a1.28 1.28 0 0 0 1.4-1.4c0-1.636-2.244-2.1-2.244-4.067V15.1h1.4v.327c0 1.543 2.295 1.683 2.295 4.161a2.606 2.606 0 0 1-2.9 2.712 2.648 2.648 0 0 1-2.8-2.945" transform="translate(-50.527 -8.04)"/>
        <path id="Path_638" data-name="Path 638" class="cls-3" d="M109.2 19.529v-.468h1.4v.374a1.289 1.289 0 0 0 1.356 1.4c.842 0 1.4-.515 1.4-1.73v-1.072a1.154 1.154 0 0 0-1.215-1.309 1.024 1.024 0 0 0-1.169 1.029v.14h-1.4v-.14a2.237 2.237 0 0 1 2.295-2.295 1.694 1.694 0 0 1 1.5.794V14.9h1.392v4.255a2.623 2.623 0 0 1-2.805 2.946 2.415 2.415 0 0 1-2.759-2.572" transform="translate(-58.142 -7.933)"/>
        <path id="Path_639" data-name="Path 639" class="cls-3" d="M123.2 19.355v-.468h1.4v.374c0 1.215.561 1.73 1.449 1.73a1.28 1.28 0 0 0 1.4-1.4c0-1.636-2.244-2.1-2.244-4.067V15.1h1.4v.327c0 1.543 2.295 1.683 2.295 4.161A2.606 2.606 0 0 1 126 22.3a2.648 2.648 0 0 1-2.805-2.946" transform="translate(-65.595 -8.04)"/>
        <path id="Path_640" data-name="Path 640" class="cls-3" d="M146.122 19.816v2.294h-1.449v-2.2c0-.794-.374-1.215-.935-1.215a1.034 1.034 0 0 0-1.029 1.123v1.446h-1.449v-1.5c0-.7-.374-1.123-.982-1.123-.561 0-1.029.421-1.029 1.262v2.157H137.8v-3.177c0-3.177 2.295-3.883 4.161-3.883h2.1v1.309H142.1c-1.543 0-2.759.468-2.946 1.636a1.574 1.574 0 0 1 1.262-.608 1.686 1.686 0 0 1 1.543 1.123 2.089 2.089 0 0 1 1.917-1.123 2.332 2.332 0 0 1 2.244 2.478" transform="translate(-73.371 -7.987)"/>
        <path id="Path_641" data-name="Path 641" class="cls-3" d="M157.8 19.247v-1.4c0-1.964 1.169-2.946 2.665-2.946a2.047 2.047 0 0 1 2.057 1.215 2.063 2.063 0 0 1 2.01-1.215 2.443 2.443 0 0 1 2.383 2.665V22.1h-1.4v-4.536c0-.842-.468-1.356-1.123-1.356s-1.119.514-1.119 1.356v1.683a2.633 2.633 0 0 1-2.759 2.946c-1.589 0-2.712-.982-2.712-2.946m4.067-.094v-1.308c0-1.169-.561-1.683-1.309-1.683s-1.309.515-1.309 1.683v1.309c0 1.215.561 1.73 1.309 1.73.7 0 1.309-.515 1.309-1.73" transform="translate(-84.02 -7.932)"/>
        <path id="Path_642" data-name="Path 642" class="cls-3" d="M180.1 19.566v-.371h1.4v.282a1.334 1.334 0 0 0 1.5 1.309c.935 0 1.5-.374 1.5-.935 0-.608-.561-.842-1.168-.842h-.748v-1.262h.748c.608 0 1.029-.187 1.029-.748 0-.515-.514-.935-1.356-.935-.935 0-1.5.561-1.5 1.215v.187H180.1v-.234c0-1.356 1.169-2.431 2.946-2.431 1.636 0 2.805.982 2.805 2.2a1.4 1.4 0 0 1-1.123 1.4 1.412 1.412 0 0 1 1.215 1.543c0 1.262-1.169 2.151-2.946 2.151-1.776.047-2.9-.935-2.9-2.525" transform="translate(-95.894 -7.88)"/>
        <path id="Path_643" data-name="Path 643" class="cls-3" d="M194.7 19.421v-.468h1.4v.423a1.289 1.289 0 0 0 1.4 1.356c.842 0 1.356-.515 1.356-1.683v-1.358c0-1.169-.561-1.683-1.356-1.683a1.313 1.313 0 0 0-1.4 1.356v.14h-1.4v-.14a2.591 2.591 0 0 1 2.8-2.664 2.648 2.648 0 0 1 2.805 2.946v1.4a2.623 2.623 0 0 1-2.805 2.946 2.452 2.452 0 0 1-2.805-2.572" transform="translate(-103.667 -7.826)"/>
        <path id="Path_644" data-name="Path 644" class="cls-3" d="M208.9 18.12v-.889a2.295 2.295 0 0 1 2.244-2.431 1.942 1.942 0 0 1 1.777 1.123 1.923 1.923 0 0 1 1.73-1.123 1.853 1.853 0 0 1 1.636 1.123 1.977 1.977 0 0 1 1.871-1.123 2.229 2.229 0 0 1 2.2 2.431V19.1h-1.4v-1.822c0-.794-.374-1.215-.935-1.215a1.059 1.059 0 0 0-1.029 1.123v1.683h-1.4v-1.686a1 1 0 0 0-.982-1.123 1.026 1.026 0 0 0-.982 1.123v1.683h-1.4v-1.683c0-.7-.374-1.123-.935-1.123-.514 0-.982.421-.982 1.262v.7c0 1.823.794 2.712 3.32 2.712h4.633v1.309h-4.816c-2.069-.043-4.55-.743-4.55-3.926" transform="translate(-111.227 -7.88)"/>
        <path id="Path_645" data-name="Path 645" class="cls-3" d="M244.322 17.231V22h-1.449v-4.681c0-.794-.374-1.215-.935-1.215a1.034 1.034 0 0 0-1.029 1.123v2.946h-1.449v-2.942c0-.7-.374-1.123-.982-1.123-.561 0-1.029.421-1.029 1.262V22H236v-4.766a2.338 2.338 0 0 1 2.338-2.431 1.957 1.957 0 0 1 1.823 1.123 2 2 0 0 1 1.917-1.123 2.265 2.265 0 0 1 2.244 2.431" transform="translate(-125.657 -7.88)"/>
        <path id="Path_646" data-name="Path 646" class="cls-3" d="M256.9 19.355V15.1h1.4v4.161c0 1.215.561 1.73 1.4 1.73.889 0 1.449-.468 1.449-1.262 0-.935-1.029-1.123-1.029-2.244h1.4c.047.608 1.076.889 1.076 2.383 0 1.4-1.215 2.431-2.9 2.431a2.623 2.623 0 0 1-2.805-2.946" transform="translate(-136.785 -8.04)"/>
        <path id="Path_647" data-name="Path 647" class="cls-3" d="M282.1 19.865c0 1.4-1.123 2.431-2.852 2.431s-2.852-1.025-2.852-2.431a2.4 2.4 0 0 1 2.295-2.383v-.515c0-.748-.889-.748-.889-1.87h1.4c0 .655.889.748.889 1.636v.794a2.348 2.348 0 0 1 2.01 2.338m-1.449-.047a1.269 1.269 0 1 0-.42.944 1.269 1.269 0 0 0 .42-.944" transform="translate(-147.168 -8.04)"/>
        <path id="Path_648" data-name="Path 648" class="cls-3" d="M290.5 19.355v-.468h1.4v.374c0 1.215.561 1.73 1.449 1.73a1.28 1.28 0 0 0 1.4-1.4c0-1.636-2.244-2.1-2.244-4.067V15.1h1.4v.327c0 1.543 2.295 1.683 2.295 4.161a2.606 2.606 0 0 1-2.9 2.712 2.648 2.648 0 0 1-2.805-2.946" transform="translate(-154.674 -8.04)"/>
        <path id="Path_649" data-name="Path 649" class="cls-3" d="M305 19.864v-2.708a2.228 2.228 0 0 1 2.431-2.057h2.759v1.215h-2.572c-.655 0-1.216.281-1.216.982v.935a1.825 1.825 0 0 1 1.73-.794 2.434 2.434 0 0 1 2.525 2.431A2.565 2.565 0 0 1 307.8 22.3a2.523 2.523 0 0 1-2.8-2.436m4.161-.047a1.244 1.244 0 1 0-1.191 1.267 1.245 1.245 0 0 0 1.191-1.267" transform="translate(-162.397 -8.039)"/>
        <path id="Path_650" data-name="Path 650" class="cls-3" d="M318.9 19.735v-.281h1.4v.234a1.352 1.352 0 0 0 1.5 1.4c.935 0 1.5-.374 1.5-1.169 0-.748-.561-1.076-1.5-1.076h-.608v-1.26h.748c.842 0 1.215-.327 1.215-1.076V15.2h1.4v1.5a1.588 1.588 0 0 1-1.215 1.543 1.79 1.79 0 0 1 1.4 1.917c0 1.309-1.169 2.295-2.946 2.295-1.776-.094-2.9-1.076-2.9-2.712" transform="translate(-169.797 -8.093)"/>
        <path id="Path_651" data-name="Path 651" class="cls-3" d="M333.9 17.8a2.762 2.762 0 1 1 5.517 0v4.3h-1.4v-4.255c0-1.123-.561-1.636-1.356-1.636-.748 0-1.309.515-1.309 1.636V22.1h-1.4v-4.3z" transform="translate(-177.783 -7.933)"/>
    </g>
</svg>
