<svg xmlns="http://www.w3.org/2000/svg" width="104.97" height="27.626" viewBox="0 0 104.97 27.626">
    <defs>
        <style>
            .cls-1{fill:#fff}
        </style>
    </defs>
    <g id="tbc_en_" data-name="tbc en" transform="translate(.703 -.42)">
        <path id="Path_87457" data-name="Path 87457" class="cls-1" d="M2272.239 749.023v8.7h-2.468v-8.7H2267V747h8.026v2.023z" transform="translate(-2230.718 -738.58)"/>
        <path id="Path_87458" data-name="Path 87458" class="cls-1" d="M2868.65 755.759a.845.845 0 0 0 .462-.414 2.485 2.485 0 0 0 .127-.876 2.327 2.327 0 0 0-.127-.86.826.826 0 0 0-.478-.414 2.944 2.944 0 0 0-.956-.111h-1.29v2.787h1.29a3.052 3.052 0 0 0 .972-.112zm-.239-4.507a.746.746 0 0 0 .382-.382 2.354 2.354 0 0 0 .112-.8 2.316 2.316 0 0 0-.112-.78.745.745 0 0 0-.382-.382 2.536 2.536 0 0 0-.812-.112h-1.21v2.564h1.194a2.65 2.65 0 0 0 .828-.108zm-.557-4.252q3.344 0 3.344 2.867a2.481 2.481 0 0 1-.462 1.608 1.852 1.852 0 0 1-1.338.637 2.358 2.358 0 0 1 1.688.7 2.646 2.646 0 0 1 .589 1.815c0 2.054-1.258 3.089-3.758 3.089H2864V747z" transform="translate(-2818.211 -738.58)"/>
        <path id="Path_87459" data-name="Path 87459" class="cls-1" d="M3425.226 746.666a6.093 6.093 0 0 1-1.226-4.141q0-5.518 4.9-5.526a6.8 6.8 0 0 1 2.261.366l-.462 1.959a3.58 3.58 0 0 0-1.656-.366 3.367 3.367 0 0 0-1.577.3 1.669 1.669 0 0 0-.764 1.067 8.363 8.363 0 0 0-.223 2.2 8.228 8.228 0 0 0 .223 2.182 1.581 1.581 0 0 0 .749 1.035 3.123 3.123 0 0 0 1.545.3 3.792 3.792 0 0 0 1.927-.462l.446 2.022a6.633 6.633 0 0 1-2.468.414 4.682 4.682 0 0 1-3.675-1.35z" transform="translate(-3369.293 -728.58)"/>
        <path id="Path_87460" data-name="Path 87460" class="cls-1" d="M4261.682 756.539a1.221 1.221 0 0 0 .717-.589 2.849 2.849 0 0 0 .223-1.242 2.928 2.928 0 0 0-.223-1.258 1.2 1.2 0 0 0-.765-.605 5.4 5.4 0 0 0-1.544-.175h-1.958v4.061h2.054a4.552 4.552 0 0 0 1.496-.192zm-.334-5.032a1.058 1.058 0 0 0 .637-.557 2.629 2.629 0 0 0 .191-1.131 2.992 2.992 0 0 0-.175-1.131 1.017 1.017 0 0 0-.6-.541 3.508 3.508 0 0 0-1.226-.159h-2.038v3.679h1.911a3.968 3.968 0 0 0 1.3-.16zm-1.131-4.507c2.054 0 3.074.924 3.074 2.771a2.817 2.817 0 0 1-.446 1.7 1.6 1.6 0 0 1-1.258.653 2.15 2.15 0 0 1 1.625.7 2.838 2.838 0 0 1 .573 1.9c0 2.007-1.195 2.994-3.567 2.994H4257V747z" transform="translate(-4189.027 -738.58)"/>
        <path id="Path_87461" data-name="Path 87461" class="cls-1" d="m4758.4 748.354-1.943 5.781h3.886zm-2.277 6.768-.876 2.6H4754l3.854-10.722h1.1l3.854 10.718h-1.258l-.876-2.6z" transform="translate(-4678.113 -738.58)"/>
        <path id="Path_87462" data-name="Path 87462" class="cls-1" d="m5426.956 747 5.494 8.424V747h1.1v10.718h-.94l-5.509-8.424v8.424H5426V747z" transform="translate(-5339.41 -738.58)"/>
        <path id="Path_87463" data-name="Path 87463" class="cls-1" d="M6077.163 752.4v5.319H6076V747h1.163v5.1l4.268-5.1h1.465l-4.57 5.239 5 5.478h-1.577z" transform="translate(-5979.059 -738.58)"/>
        <g id="Group_22643" data-name="Group 22643" transform="translate(-.887 .25)">
            <path id="Path_87464" data-name="Path 87464" class="cls-1" d="M13.908 15.471a3.118 3.118 0 0 1-.86 3.089 34.631 34.631 0 0 1-6.673 4.921 30.023 30.023 0 0 1-4.013 1.959c-.908.318-1.656.462-2.038-.191a1.261 1.261 0 0 1 0-1.147 100.113 100.113 0 0 1 5.653-10.861c.191-.318.382-.669.573-1C9.385 7.349 13.144 1.361 13.892.39c.1-.127.3-.287.478-.191a.357.357 0 0 1 .13.382c0 .016-.048.191-.064.271a40.427 40.427 0 0 0-.528 14.619z"/>
            <path id="Path_87465" data-name="Path 87465" class="cls-1" d="M926.169 26.658c-1.194-.541-1.815-.828-2.245-2.293a34.5 34.5 0 0 1-.924-8.234 29.13 29.13 0 0 1 .3-4.459c.175-.94.43-1.672 1.194-1.672a1.263 1.263 0 0 1 .987.589c1.815 2.166 4.7 7.1 6.577 10.3.191.334.382.669.573 1.019 2.819 4.9 6.131 11.147 6.593 12.262.064.159.111.414-.064.526a.387.387 0 0 1-.4-.08c-.016-.016-.143-.143-.207-.191a40.26 40.26 0 0 0-12.384-7.767z" transform="translate(-908.12 -9.674)"/>
            <path id="Path_87466" data-name="Path 87466" class="cls-1" d="M78.394 1175.878c1.067-.764 1.624-1.162 3.121-.812a36.242 36.242 0 0 1 7.6 3.328 29.329 29.329 0 0 1 3.695 2.484c.733.621 1.226 1.21.86 1.863a1.259 1.259 0 0 1-1 .573 102.2 102.2 0 0 1-12.214.541H79.27c-5.653-.016-12.708-.271-13.918-.43-.175-.032-.414-.112-.4-.319a.342.342 0 0 1 .255-.3 1.924 1.924 0 0 1 .271-.08 40.549 40.549 0 0 0 12.916-6.848z" transform="translate(-63.737 -1156.061)"/>
        </g>
    </g>
</svg>
