<svg xmlns="http://www.w3.org/2000/svg" width="193.986" height="28.086" viewBox="0 0 193.986 28.086">
    <defs>
        <clipPath id="clip-path">
            <path id="Rectangle_10352" data-name="Rectangle 10352" style="fill:none" d="M0 0h193.986v28.086H0z"/>
        </clipPath>
        <style>
            .cls-3{fill:#fff}
        </style>
    </defs>
    <g id="Component_48_4" data-name="Component 48 – 4" style="clip-path:url(#clip-path)">
        <path id="Path_575" data-name="Path 575" class="cls-3" d="M32.738 5.529C32.5 5.162 29.016 0 22.971 0H10.044a7.58 7.58 0 0 0-7.58 7.579v14.183c0 .419-.651.186-.651.186a2 2 0 0 0-.558-.094A1.251 1.251 0 0 0 0 23.11c0 1.49 2.325 2.09 3.255 2.09a4.255 4.255 0 0 0 .79-.047 7.674 7.674 0 0 0 6 2.93h12.88a7.58 7.58 0 0 0 7.58-7.579v-7.763s1.58-2 1.767-2.185 1.255-1.72 1.58-2.37.047-.93-1.116-2.651"/>
        <path id="Path_576" data-name="Path 576" d="M26.224 23.473a2.8 2.8 0 0 0 .93.14c1.395 0 2-.558 2-1.209 0-.744-1.023-.744-1.116-1.441-.14-.837-.047-4.557 1.395-6.6l.977.419a1.514 1.514 0 0 0 .6.14.878.878 0 0 0 .651-.326 18.81 18.81 0 0 0 2.513-3.441c.14-.233-1.906-2.79-3.023-3.673a4.652 4.652 0 0 0-2.832-.982 4.488 4.488 0 0 0-4.278 3.023 21.723 21.723 0 0 1-6.417 3.072c-3.116.837-6.324.047-8.463.186a4.408 4.408 0 0 0-4.417 4.557c.047 2.418 1.72 4.6 1.72 6.882A2.489 2.489 0 0 1 4 26.775c-1.209 0-1.255-.465-1.627-.465a.3.3 0 0 0-.373.278c0 .6 1.492 1.163 2.325 1.163a3.686 3.686 0 0 0 3.16-1.58 2.779 2.779 0 0 0 2.79 1.627c1.767 0 2.511-.837 2.511-1.534 0-.558-.326-.79-.6-1.163a1.683 1.683 0 0 1-.326-1.07 8.291 8.291 0 0 0 .93.047c1.255 0 1.674-.512 1.674-1.023 0-.651-.744-.6-.744-1.674 0-.837.465-1.07.837-1.07.419 0 2.046.14 4.045.372.651.047 2.282.7 2.282 3.255v.93c0 1.534.6 3.488 3.395 3.488 1.86 0 2.93-1.023 2.93-1.813 0-.512-.419-.7-.651-1.023a2.4 2.4 0 0 1-.326-2.046" transform="translate(-1.07 -3.477)" style="fill:#f26724"/>
        <path id="Path_577" data-name="Path 577" class="cls-3" d="M63.426 19.1a.326.326 0 1 0 .326.326.318.318 0 0 0-.326-.326" transform="translate(-33.759 -10.219)"/>
        <path id="Path_578" data-name="Path 578" class="cls-3" d="M65.879 17a.279.279 0 1 0 .279.279.268.268 0 0 0-.279-.279" transform="translate(-35.096 -9.095)"/>
        <path id="Path_579" data-name="Path 579" class="cls-3" d="M67.133 14.7a.233.233 0 1 0 .233.233.249.249 0 0 0-.233-.233" transform="translate(-35.791 -7.865)"/>
        <path id="Path_580" data-name="Path 580" class="cls-3" d="M46.972 17.144a.372.372 0 1 0-.372-.372c.047.233.186.372.372.372" transform="translate(-24.931 -8.774)"/>
        <path id="Path_581" data-name="Path 581" class="cls-3" d="M49.925 36.2a.332.332 0 0 0-.326.372.359.359 0 0 0 .326.372.367.367 0 0 0 .372-.372c-.047-.186-.186-.372-.372-.372" transform="translate(-26.536 -19.367)"/>
        <path id="Path_582" data-name="Path 582" class="cls-3" d="M54.372 37a.372.372 0 1 0 .372.372c-.044-.232-.186-.372-.372-.372" transform="translate(-28.89 -19.795)"/>
        <path id="Path_583" data-name="Path 583" class="cls-3" d="M50.472 29.4a.372.372 0 1 0 0 .744.342.342 0 0 0 .372-.372.367.367 0 0 0-.372-.372" transform="translate(-26.804 -15.729)"/>
        <path id="Path_584" data-name="Path 584" class="cls-3" d="M53.119 23.444a.376.376 0 1 0-.324-.372.372.372 0 0 0 .324.372" transform="translate(-28.241 -12.144)"/>
        <path id="Path_585" data-name="Path 585" class="cls-3" d="M41.272 20.344a.372.372 0 1 0-.372-.372c.047.233.186.372.372.372" transform="translate(-21.881 -10.486)"/>
        <path id="Path_586" data-name="Path 586" class="cls-3" d="M45.572 34.7a.372.372 0 1 0 .372.372c-.047-.233-.186-.372-.372-.372" transform="translate(-24.182 -18.565)"/>
        <path id="Path_587" data-name="Path 587" class="cls-3" d="M43.472 24.044a.332.332 0 0 0 .326-.372.359.359 0 0 0-.326-.372.372.372 0 0 0 0 .744" transform="translate(-23.059 -12.466)"/>
        <path id="Path_588" data-name="Path 588" class="cls-3" d="M38.672 29.2a.372.372 0 1 0 .372.372.4.4 0 0 0-.372-.372" transform="translate(-20.491 -15.622)"/>
        <path id="Path_589" data-name="Path 589" class="cls-3" d="M46.472 27.544a.372.372 0 1 0-.372-.372c.047.233.186.372.372.372" transform="translate(-24.663 -14.338)"/>
        <path id="Path_590" data-name="Path 590" class="cls-3" d="M34.572 21.7a.372.372 0 1 0 .372.372.367.367 0 0 0-.372-.372" transform="translate(-18.297 -11.609)"/>
        <path id="Path_591" data-name="Path 591" class="cls-3" d="M36.272 25.6a.372.372 0 1 0 .372.372c-.047-.233-.186-.372-.372-.372" transform="translate(-19.206 -13.696)"/>
        <path id="Path_592" data-name="Path 592" class="cls-3" d="M41.772 32.1a.372.372 0 1 0 .372.372c-.047-.186-.186-.372-.372-.372" transform="translate(-22.149 -17.173)"/>
        <path id="Path_593" data-name="Path 593" class="cls-3" d="M49.472 20.644a.372.372 0 1 0-.372-.372c.047.233.186.372.372.372" transform="translate(-26.269 -10.647)"/>
        <path id="Path_594" data-name="Path 594" class="cls-3" d="M54.972 30.8a.372.372 0 1 0 .372.372.367.367 0 0 0-.372-.372" transform="translate(-29.211 -16.478)"/>
        <path id="Path_595" data-name="Path 595" class="cls-3" d="M56.872 24.7a.372.372 0 0 0 0 .744.342.342 0 0 0 .372-.372.367.367 0 0 0-.372-.372" transform="translate(-30.227 -13.215)"/>
        <path id="Path_596" data-name="Path 596" class="cls-3" d="M56.372 18.5a.372.372 0 1 0 .372.372.342.342 0 0 0-.372-.372" transform="translate(-29.96 -9.898)"/>
        <path id="Path_597" data-name="Path 597" class="cls-3" d="M59.972 19.6a.372.372 0 1 0 .372.372.4.4 0 0 0-.372-.372" transform="translate(-31.886 -10.486)"/>
        <path id="Path_598" data-name="Path 598" class="cls-3" d="M53.772 16.2a.372.372 0 1 0 .372.372c-.047-.233-.186-.372-.372-.372" transform="translate(-28.569 -8.667)"/>
        <path id="Path_599" data-name="Path 599" class="cls-3" d="M52.272 13.3a.372.372 0 1 0 .372.372c-.047-.186-.186-.372-.372-.372" transform="translate(-27.766 -7.116)"/>
        <path id="Path_600" data-name="Path 600" class="cls-3" d="M55.372 13.3a.372.372 0 1 0 .372.372.4.4 0 0 0-.372-.372" transform="translate(-29.425 -7.116)"/>
        <path id="Path_601" data-name="Path 601" class="cls-3" d="M52.2 10.979a.3.3 0 0 1 .279-.279.268.268 0 0 1 .279.279.279.279 0 0 1-.558 0" transform="translate(-27.927 -5.724)"/>
        <path id="Path_602" data-name="Path 602" class="cls-3" d="M54.1 8.733a.233.233 0 1 1 .233.233.249.249 0 0 1-.233-.233" transform="translate(-28.944 -4.548)"/>
        <path id="Path_603" data-name="Path 603" class="cls-3" d="M56.5 7.686a.186.186 0 1 1 .186.186.2.2 0 0 1-.186-.186" transform="translate(-30.227 -4.012)"/>
        <path id="Path_604" data-name="Path 604" class="cls-3" d="M66.9 12.886a.186.186 0 1 1 .186.186.2.2 0 0 1-.186-.186" transform="translate(-35.791 -6.795)"/>
        <path id="Path_605" data-name="Path 605" class="cls-3" d="M66.3 20.386a.186.186 0 1 1 .186.186c-.047 0-.14-.093-.186-.186" transform="translate(-35.47 -10.807)"/>
        <path id="Path_606" data-name="Path 606" class="cls-3" d="M67.4 18.986a.186.186 0 1 1 .186.186.2.2 0 0 1-.186-.186" transform="translate(-36.059 -10.058)"/>
        <path id="Path_607" data-name="Path 607" class="cls-3" d="M65.2 21.886a.186.186 0 1 1 .186.186.2.2 0 0 1-.186-.186" transform="translate(-34.882 -11.609)"/>
        <path id="Path_608" data-name="Path 608" class="cls-3" d="M63.9 23.186a.186.186 0 1 1 .186.186c-.093 0-.14-.093-.186-.186" transform="translate(-34.187 -12.305)"/>
        <path id="Path_609" data-name="Path 609" class="cls-3" d="M68.4 17.486a.186.186 0 1 1 .186.186.2.2 0 0 1-.186-.186" transform="translate(-36.594 -9.255)"/>
        <path id="Path_610" data-name="Path 610" class="cls-3" d="M69.1 16.186a.186.186 0 1 1 .186.186c-.093 0-.14-.047-.186-.186" transform="translate(-36.969 -8.56)"/>
        <path id="Path_611" data-name="Path 611" class="cls-3" d="M20.383 40.319a5.631 5.631 0 0 1-.419-4.464 3.718 3.718 0 0 1 3.813-2.185 3.267 3.267 0 0 0-1.492-.279 3.719 3.719 0 0 0-3.386 4 4.28 4.28 0 0 0 1.492 2.93" transform="translate(-10.107 -17.86)"/>
        <path id="Path_612" data-name="Path 612" class="cls-3" d="M10.984 27.148a2.984 2.984 0 0 1-.884-2.139 3.077 3.077 0 0 1 3.023-3.023c1.72-.093 4.883.419 6.928.14.7 3.116 3.023 5.3 4.74 6.7-2.092-.93-4.185-3.395-6.6-4.74-2.511-1.395-5.069-1.627-6.417-.372a3.474 3.474 0 0 0-.79 3.441" transform="translate(-5.403 -11.757)"/>
        <path id="Path_613" data-name="Path 613" class="cls-3" d="M25.692 39.9c.14.884-1.492 1.209-1.492 1.209 1.492.279 1.953-.512 1.953-.512a3.55 3.55 0 0 0-.465-.7" transform="translate(-12.947 -21.346)"/>
        <path id="Path_614" data-name="Path 614" class="cls-3" d="M50.4 40.9a4.663 4.663 0 0 0-.279 3.862 5.021 5.021 0 0 1-1.72.878s2.232.279 2.93-.884c-1.395-1.07-.977-3.673-.93-3.862" transform="translate(-25.894 -21.881)"/>
        <path id="Path_615" data-name="Path 615" class="cls-3" d="M60.092 10.266a1.481 1.481 0 0 0-1.813 1.023 1.445 1.445 0 0 0 1.348 1.58 1.481 1.481 0 0 0 1.813-1.023 1.445 1.445 0 0 0-1.348-1.58m1.117 1.534a1.08 1.08 0 0 1-1.3.744 1.023 1.023 0 0 1-.93-1.116 1.08 1.08 0 0 1 1.3-.744 1.023 1.023 0 0 1 .93 1.116" transform="translate(-31.169 -5.476)"/>
        <path id="Path_616" data-name="Path 616" class="cls-3" d="M62.094 12.61a.6.6 0 0 1 .7-.419.562.562 0 0 1 .512.6.6.6 0 0 1-.7.419.562.562 0 0 1-.512-.6" transform="translate(-33.217 -6.518)"/>
        <path id="Path_617" data-name="Path 617" class="cls-3" d="M56.862 38.3c.512.977-1.163 1.348-1.163 1.348 1.209.186 1.86-.512 1.86-.837a3.011 3.011 0 0 1-.7-.512" transform="translate(-29.799 -20.491)"/>
        <path id="Path_618" data-name="Path 618" class="cls-3" d="M35.393 31.293s.233.279.6.651A14.92 14.92 0 0 0 37.49 33.2a11.372 11.372 0 0 0 1.627 1.023 3.058 3.058 0 0 0 .558.279 1.957 1.957 0 0 1 .233.093 1.955 1.955 0 0 0-.233-.093 3.2 3.2 0 0 1-.6-.279 13.969 13.969 0 0 1-1.72-.977 11.792 11.792 0 0 1-1.534-1.209 6.82 6.82 0 0 1-.651-.651.141.141 0 0 1 0-.186.351.351 0 0 1 .233.093" transform="translate(-18.793 -16.692)"/>
        <path id="Path_619" data-name="Path 619" class="cls-3" d="M60.222 10.072a2.512 2.512 0 0 0-4.231-.186.4.4 0 1 1-.6-.512 2.845 2.845 0 0 1 2.181-.974 2.809 2.809 0 0 1 2.651 1.674" transform="translate(-29.579 -4.492)"/>
        <path id="Path_620" data-name="Path 620" class="cls-3" d="M54.137 18.662a6.117 6.117 0 0 1-3.116-1.255 6.511 6.511 0 0 1-1.953-2.185c-.047-.14-.047-.326.093-.372a.251.251 0 0 1 .372.093 7.07 7.07 0 0 0 1.86 2.37 6.852 6.852 0 0 0 2.744 1.35" transform="translate(-26.237 -7.917)"/>
        <path id="Path_621" data-name="Path 621" class="cls-3" d="M49.962 22.575a7.548 7.548 0 0 1-4.882-2.418 10.21 10.21 0 0 1-1.534-2.139.271.271 0 1 1 .465-.279 9.165 9.165 0 0 0 1.813 2.7 7.027 7.027 0 0 0 4.138 2.139" transform="translate(-23.272 -9.416)"/>
        <path id="Path_622" data-name="Path 622" class="cls-3" d="M37.7 20.487a.263.263 0 0 1 .326.186 9.936 9.936 0 0 0 2.37 3.813 8.812 8.812 0 0 0 5.813 2.6 8.9 8.9 0 0 1-6.277-2.6 10.286 10.286 0 0 1-2.37-3.627.247.247 0 0 1 .14-.372" transform="translate(-20.073 -10.954)"/>
        <path id="Path_623" data-name="Path 623" class="cls-3" d="M57.8 14.77a2.73 2.73 0 0 0 1.534.465 1.888 1.888 0 0 0 2-1.535 2.194 2.194 0 0 1-2.185 1.953 3.24 3.24 0 0 1-1.627-.372.293.293 0 0 1-.14-.372c.14-.14.326-.233.419-.14" transform="translate(-30.689 -7.33)"/>
        <g id="Group_22616" data-name="Group 22616" transform="translate(37.572 9.694)">
            <path id="Path_636" data-name="Path 636" class="cls-3" d="M80.8 20.422V15.1h1.754v5.205c0 1.52.7 2.164 1.754 2.164 1.112 0 1.813-.585 1.813-1.579 0-1.17-1.287-1.4-1.287-2.807h1.754c.059.761 1.346 1.112 1.346 2.981 0 1.754-1.52 3.041-3.626 3.041S80.8 22.878 80.8 20.422" transform="translate(-80.8 -14.853)"/>
            <path id="Path_637" data-name="Path 637" class="cls-3" d="M94.9 20.422v-.585h1.754v.468c0 1.52.7 2.164 1.813 2.164a1.6 1.6 0 0 0 1.754-1.754c0-2.047-2.807-2.632-2.807-5.088V15.1h1.756v.41c0 1.93 2.87 2.105 2.87 5.205a3.26 3.26 0 0 1-3.626 3.392 3.312 3.312 0 0 1-3.514-3.685" transform="translate(-86.656 -14.853)"/>
            <path id="Path_638" data-name="Path 638" class="cls-3" d="M109.2 20.69v-.585h1.754v.468a1.613 1.613 0 0 0 1.7 1.754c1.053 0 1.754-.644 1.754-2.164v-1.344a1.444 1.444 0 0 0-1.52-1.637 1.281 1.281 0 0 0-1.463 1.287v.176h-1.754v-.176a2.8 2.8 0 0 1 2.87-2.87 2.118 2.118 0 0 1 1.877.994V14.9h1.741v5.322c0 2.456-1.4 3.685-3.509 3.685a3.021 3.021 0 0 1-3.45-3.217" transform="translate(-92.592 -14.77)"/>
            <path id="Path_639" data-name="Path 639" class="cls-3" d="M123.2 20.422v-.585h1.754v.468c0 1.52.7 2.164 1.813 2.164a1.6 1.6 0 0 0 1.754-1.754c0-2.047-2.807-2.632-2.807-5.088V15.1h1.754v.41c0 1.93 2.87 2.105 2.87 5.205a3.26 3.26 0 0 1-3.626 3.392 3.312 3.312 0 0 1-3.509-3.685" transform="translate(-98.404 -14.853)"/>
            <path id="Path_640" data-name="Path 640" class="cls-3" d="M148.21 21.024v2.87h-1.81v-2.748c0-.994-.468-1.52-1.17-1.52a1.294 1.294 0 0 0-1.287 1.4v1.808h-1.813v-1.873c0-.878-.468-1.4-1.229-1.4-.7 0-1.287.527-1.287 1.579v2.7H137.8v-3.983c0-3.974 2.87-4.857 5.205-4.857h2.633v1.637h-2.456c-1.93 0-3.451.585-3.685 2.047a1.968 1.968 0 0 1 1.579-.761 2.109 2.109 0 0 1 1.93 1.4 2.613 2.613 0 0 1 2.4-1.4 2.918 2.918 0 0 1 2.807 3.1" transform="translate(-104.463 -14.812)"/>
            <path id="Path_641" data-name="Path 641" class="cls-3" d="M157.8 20.34v-1.754c0-2.456 1.463-3.685 3.334-3.685a2.56 2.56 0 0 1 2.573 1.52 2.581 2.581 0 0 1 2.515-1.52 3.056 3.056 0 0 1 2.981 3.334v5.673h-1.754v-5.673c0-1.053-.585-1.7-1.4-1.7s-1.4.642-1.4 1.7v2.105c0 2.456-1.463 3.685-3.451 3.685S157.8 22.8 157.8 20.34m5.088-.117v-1.637c0-1.463-.7-2.105-1.637-2.105s-1.637.644-1.637 2.105v1.637c0 1.52.7 2.164 1.637 2.164.878 0 1.637-.644 1.637-2.164" transform="translate(-112.765 -14.772)"/>
            <path id="Path_642" data-name="Path 642" class="cls-3" d="M180.1 20.761V20.3h1.754v.353a1.669 1.669 0 0 0 1.877 1.637c1.17 0 1.877-.468 1.877-1.17 0-.761-.7-1.053-1.462-1.053h-.936v-1.581h.936c.761 0 1.287-.234 1.287-.936 0-.644-.644-1.17-1.7-1.17-1.17 0-1.877.7-1.877 1.52v.234H180.1v-.293c0-1.7 1.463-3.041 3.685-3.041 2.047 0 3.509 1.229 3.509 2.749a1.752 1.752 0 0 1-1.4 1.754 1.766 1.766 0 0 1 1.52 1.93c0 1.579-1.463 2.69-3.685 2.69-2.222.059-3.626-1.17-3.626-3.158" transform="translate(-122.022 -14.729)"/>
            <path id="Path_643" data-name="Path 643" class="cls-3" d="M194.7 20.608v-.585h1.754v.529a1.613 1.613 0 0 0 1.754 1.7c1.053 0 1.7-.644 1.7-2.105v-1.7c0-1.463-.7-2.105-1.7-2.105a1.643 1.643 0 0 0-1.754 1.7v.176H194.7v-.176a3.241 3.241 0 0 1 3.51-3.342 3.312 3.312 0 0 1 3.509 3.685v1.755c0 2.456-1.4 3.685-3.509 3.685a3.067 3.067 0 0 1-3.509-3.217" transform="translate(-128.084 -14.69)"/>
            <path id="Path_644" data-name="Path 644" class="cls-3" d="M208.9 18.953v-1.111a2.87 2.87 0 0 1 2.807-3.041 2.429 2.429 0 0 1 2.222 1.4 2.4 2.4 0 0 1 2.164-1.4 2.318 2.318 0 0 1 2.047 1.4 2.473 2.473 0 0 1 2.34-1.4 2.789 2.789 0 0 1 2.749 3.041v2.339h-1.754V17.9c0-.994-.468-1.52-1.17-1.52a1.325 1.325 0 0 0-1.287 1.4v2.105h-1.754v-2.104a1.252 1.252 0 0 0-1.229-1.4 1.284 1.284 0 0 0-1.229 1.4v2.105h-1.754v-2.105c0-.878-.468-1.4-1.17-1.4-.644 0-1.229.527-1.229 1.579v.878c0 2.281.994 3.392 4.153 3.392h5.8v1.637h-6.024C212 23.8 208.9 22.926 208.9 18.95" transform="translate(-133.979 -14.73)"/>
            <path id="Path_645" data-name="Path 645" class="cls-3" d="M246.41 17.841V23.8h-1.81v-5.848c0-.994-.468-1.52-1.17-1.52a1.294 1.294 0 0 0-1.287 1.4v3.685h-1.813v-3.676c0-.878-.468-1.4-1.229-1.4-.7 0-1.287.527-1.287 1.579v5.79H236v-5.965a2.924 2.924 0 0 1 2.924-3.041 2.447 2.447 0 0 1 2.281 1.4 2.5 2.5 0 0 1 2.4-1.4 2.833 2.833 0 0 1 2.807 3.041" transform="translate(-145.23 -14.73)"/>
            <path id="Path_646" data-name="Path 646" class="cls-3" d="M256.9 20.422V15.1h1.754v5.205c0 1.52.7 2.164 1.754 2.164 1.112 0 1.813-.585 1.813-1.579 0-1.17-1.287-1.4-1.287-2.807h1.754c.058.761 1.346 1.112 1.346 2.981 0 1.754-1.52 3.041-3.626 3.041s-3.508-1.229-3.508-3.685" transform="translate(-153.905 -14.853)"/>
            <path id="Path_647" data-name="Path 647" class="cls-3" d="M283.536 21.061c0 1.754-1.4 3.041-3.568 3.041s-3.568-1.282-3.568-3.041a3 3 0 0 1 2.87-2.981v-.644c0-.936-1.112-.936-1.112-2.339h1.754c0 .819 1.112.936 1.112 2.047v.994a2.938 2.938 0 0 1 2.515 2.924M281.726 21a1.588 1.588 0 1 0-.526 1.181 1.587 1.587 0 0 0 .526-1.181" transform="translate(-162.001 -14.855)"/>
            <path id="Path_648" data-name="Path 648" class="cls-3" d="M290.5 20.422v-.585h1.754v.468c0 1.52.7 2.164 1.813 2.164a1.6 1.6 0 0 0 1.754-1.754c0-2.047-2.807-2.632-2.807-5.088V15.1h1.754v.41c0 1.93 2.87 2.105 2.87 5.205a3.26 3.26 0 0 1-3.626 3.392 3.312 3.312 0 0 1-3.509-3.685" transform="translate(-167.857 -14.853)"/>
            <path id="Path_649" data-name="Path 649" class="cls-3" d="M305 21.062v-3.388a2.787 2.787 0 0 1 3.041-2.573h3.451v1.52h-3.217c-.819 0-1.521.351-1.521 1.229v1.17a2.283 2.283 0 0 1 2.164-.994 3.045 3.045 0 0 1 3.158 3.041c0 1.754-1.462 3.041-3.568 3.041S305 22.821 305 21.062m5.2-.062a1.557 1.557 0 1 0-1.49 1.585A1.557 1.557 0 0 0 310.2 21" transform="translate(-173.874 -14.855)"/>
            <path id="Path_650" data-name="Path 650" class="cls-3" d="M318.9 20.873v-.351h1.754v.293a1.691 1.691 0 0 0 1.877 1.754c1.17 0 1.877-.468 1.877-1.463 0-.936-.7-1.346-1.877-1.346h-.761v-1.58h.936c1.053 0 1.52-.41 1.52-1.346V15.2h1.754v1.877a1.987 1.987 0 0 1-1.52 1.93 2.239 2.239 0 0 1 1.754 2.4c0 1.637-1.463 2.87-3.685 2.87-2.222-.117-3.626-1.346-3.626-3.392" transform="translate(-179.643 -14.895)"/>
            <path id="Path_651" data-name="Path 651" class="cls-3" d="M333.9 18.527a3.455 3.455 0 1 1 6.9 0v5.381h-1.754v-5.323c0-1.4-.7-2.047-1.7-2.047-.936 0-1.637.644-1.637 2.047v5.322h-1.754v-5.38z" transform="translate(-185.87 -14.771)"/>
        </g>
    </g>
</svg>
