<svg xmlns="http://www.w3.org/2000/svg" width="131.66" height="25.546" viewBox="0 0 131.66 25.546">
    <defs>
        <style>
            .cls-1{fill:#fff}
        </style>
    </defs>
    <g id="Layer_x0020_1" transform="translate(-.029 .209)">
        <g id="Group_22619" data-name="Group 22619" transform="translate(0 -2.757)">
            <path id="Path_87432" data-name="Path 87432" class="cls-1" d="M2493.854 810.795a4.644 4.644 0 0 0-.134-1.22 1.064 1.064 0 0 0-.429-.63 1.641 1.641 0 0 0-.845-.188 1.467 1.467 0 0 0-.791.188 1.114 1.114 0 0 0-.416.63 4.745 4.745 0 0 0-.121 1.22v2.655a4.862 4.862 0 0 0 .121 1.234 1.124 1.124 0 0 0 .416.617 1.355 1.355 0 0 0 .791.188 1.516 1.516 0 0 0 .845-.188 1.072 1.072 0 0 0 .429-.617 4.758 4.758 0 0 0 .134-1.234zm5.819-2.87a4.191 4.191 0 0 1 .778 2.722v2.427a10.463 10.463 0 0 1-.737 4.023h-2.025a12.05 12.05 0 0 0 .67-4.023v-2.413a2.816 2.816 0 0 0-.281-1.475 1 1 0 0 0-.912-.429 1.045 1.045 0 0 0-.952.443 2.963 2.963 0 0 0-.268 1.462v2.8a4.035 4.035 0 0 1-.885 2.843 3.415 3.415 0 0 1-2.615.952 3.317 3.317 0 0 1-2.574-.965 4.083 4.083 0 0 1-.872-2.829v-2.682a4.16 4.16 0 0 1 .844-2.816 3.1 3.1 0 0 1 2.467-.965 3.177 3.177 0 0 1 1.636.375 2.028 2.028 0 0 1 .912 1.086 2.6 2.6 0 0 1 .992-1.113 3.178 3.178 0 0 1 1.555-.349 2.8 2.8 0 0 1 2.267.926z" transform="translate(-2455.598 -796.385)"/>
            <path id="Path_87433" data-name="Path 87433" class="cls-1" d="M3494.021 807.952a4.044 4.044 0 0 1 .885 2.829v2.293a10.2 10.2 0 0 1-.738 4.023h-2.052a12.05 12.05 0 0 0 .671-4.023v-2.279a4.143 4.143 0 0 0-.134-1.22 1.037 1.037 0 0 0-.4-.63 1.465 1.465 0 0 0-.791-.188 1.484 1.484 0 0 0-.8.188 1.041 1.041 0 0 0-.4.63 4.16 4.16 0 0 0-.134 1.22v2.266a12.316 12.316 0 0 0 .67 4.036h-2.051a10.61 10.61 0 0 1-.737-4.009v-2.306a4.108 4.108 0 0 1 .871-2.829 3.372 3.372 0 0 1 2.588-.952 3.31 3.31 0 0 1 2.552.951z" transform="translate(-3441.202 -796.385)"/>
            <path id="Path_87434" data-name="Path 87434" class="cls-1" d="M4133.492 826.018a2.275 2.275 0 0 0 0-2.373 1.3 1.3 0 0 0-1.046-.376 1.243 1.243 0 0 0-1.007.376 2.352 2.352 0 0 0 0 2.373 1.59 1.59 0 0 0 2.053 0zm2.453-1.167c0 2.172-1.166 3.258-3.486 3.258s-3.459-1.086-3.459-3.258c0-1.9.872-2.99 2.628-3.231v-.55a.782.782 0 0 0-.175-.536 3.617 3.617 0 0 0-.6-.577c-.174-.161-.308-.281-.4-.389a1.359 1.359 0 0 1-.229-.416 2.263 2.263 0 0 1-.08-.684V818h2.146v.228a.679.679 0 0 0 .147.469 2.432 2.432 0 0 0 .5.483 2.425 2.425 0 0 1 .631.67 1.767 1.767 0 0 1 .188.9v.952c1.452.361 2.189 1.407 2.189 3.15z" transform="translate(-4073.606 -807.237)"/>
            <path id="Path_87435" data-name="Path 87435" class="cls-1" d="M4784.021 807.952a4.041 4.041 0 0 1 .871 2.829v2.293a10.457 10.457 0 0 1-.724 4.023h-2.051a12.069 12.069 0 0 0 .657-4.023v-2.279a4.771 4.771 0 0 0-.12-1.22 1.043 1.043 0 0 0-.4-.63 1.519 1.519 0 0 0-.805-.188 1.466 1.466 0 0 0-.791.188 1.055 1.055 0 0 0-.417.63 4.793 4.793 0 0 0-.12 1.22v2.266a11.956 11.956 0 0 0 .67 4.036h-2.051a10.36 10.36 0 0 1-.738-4.009v-2.306a4.11 4.11 0 0 1 .871-2.829 3.321 3.321 0 0 1 2.575-.952 3.362 3.362 0 0 1 2.573.951z" transform="translate(-4713.904 -796.385)"/>
            <path id="Path_87436" data-name="Path 87436" class="cls-1" d="M5438 818h2.119v6.825a1.714 1.714 0 0 0 .349 1.193 1.442 1.442 0 0 0 1.125.376 1.532 1.532 0 0 0 1.126-.362 1.713 1.713 0 0 0 .336-1.193 1.97 1.97 0 0 0-.094-.644c-.081-.188-.175-.429-.322-.711a6.811 6.811 0 0 1-.361-.858 2.758 2.758 0 0 1-.121-.858v-.2h2.119a2.914 2.914 0 0 0 .121.724 8.374 8.374 0 0 0 .322.791 9.29 9.29 0 0 1 .348.912 2.74 2.74 0 0 1 .107.858q0 3.258-3.581 3.258c-2.4 0-3.593-1.1-3.593-3.272z" transform="translate(-5365.055 -807.237)"/>
            <path id="Path_87437" data-name="Path 87437" class="cls-1" d="M6105.006 807.952a4.039 4.039 0 0 1 .885 2.829v2.293a10.221 10.221 0 0 1-.736 4.023h-2.055a11.749 11.749 0 0 0 .67-4.023v-2.279a4.771 4.771 0 0 0-.12-1.22 1.048 1.048 0 0 0-.416-.63 1.467 1.467 0 0 0-.791-.188 1.519 1.519 0 0 0-.8.188 1.043 1.043 0 0 0-.4.63 4.771 4.771 0 0 0-.12 1.22v2.266a12.307 12.307 0 0 0 .656 4.036h-2.051a10.609 10.609 0 0 1-.725-4.009v-2.306a4.041 4.041 0 0 1 .872-2.829 3.938 3.938 0 0 1 5.135 0z" transform="translate(-6017.189 -796.385)"/>
            <path id="Path_87438" data-name="Path 87438" class="cls-1" d="M6980.653 820.783a2.672 2.672 0 0 0 .482-1.8 2.771 2.771 0 0 0-.482-1.837 2.04 2.04 0 0 0-1.556-.536 2 2 0 0 0-1.529.536 2.771 2.771 0 0 0-.482 1.837 2.662 2.662 0 0 0 .5 1.8 2.465 2.465 0 0 0 3.07 0zm.952-3.956a3.57 3.57 0 0 1 .63 2.172 3.349 3.349 0 0 1-.818 2.413 3.033 3.033 0 0 1-2.306.858 3.19 3.19 0 0 1-1.582-.4 2.927 2.927 0 0 1-1.126-1.126A3.632 3.632 0 0 1 6976 819a3.722 3.722 0 0 1 .361-1.69 2.859 2.859 0 0 1 1.006-1.14 3 3 0 0 1 1.448-.483v-.858a1.11 1.11 0 0 0-.188-.671 1.613 1.613 0 0 0-.549-.469 1.451 1.451 0 0 1-.563-.536 1.39 1.39 0 0 1-.188-.7V812h1.1v.295a.749.749 0 0 0 .134.469 1.731 1.731 0 0 0 .482.4 1.792 1.792 0 0 1 .644.617 1.72 1.72 0 0 1 .214.925v1.046a2.714 2.714 0 0 1 1.704 1.075z" transform="translate(-6882.434 -801.318)"/>
            <path id="Path_87439" data-name="Path 87439" class="cls-1" d="M7567.54 812v.4a3.985 3.985 0 0 0 .106.992 2.286 2.286 0 0 0 .309.751c.147.228.39.55.71.952.377.483.657.871.859 1.167a4.082 4.082 0 0 1 .455 1.113 6.367 6.367 0 0 1 .188 1.663 3.6 3.6 0 0 1-.4 1.743 2.689 2.689 0 0 1-1.085 1.1 3.331 3.331 0 0 1-1.609.389 3.032 3.032 0 0 1-2.239-.845 3.2 3.2 0 0 1-.832-2.333 4.131 4.131 0 0 1 .685-2.387l.884.322a4.975 4.975 0 0 0-.348.885 4.778 4.778 0 0 0-.136 1.167 2.541 2.541 0 0 0 .471 1.73 2.5 2.5 0 0 0 3.043-.013 2.74 2.74 0 0 0 .47-1.81 5.307 5.307 0 0 0-.134-1.341 3.2 3.2 0 0 0-.362-.912c-.161-.255-.416-.6-.751-1.032a10.335 10.335 0 0 1-.8-1.126 3.278 3.278 0 0 1-.4-.952 4.441 4.441 0 0 1-.134-1.193V812z" transform="translate(-7462.549 -801.318)"/>
            <path id="Path_87440" data-name="Path 87440" class="cls-1" d="M8174.626 820.783a2.6 2.6 0 0 0 .5-1.8 2.482 2.482 0 0 0-.537-1.8 2.086 2.086 0 0 0-1.542-.536 3.1 3.1 0 0 0-1.072.188 2.625 2.625 0 0 0-.9.536v1.609a2.672 2.672 0 0 0 .482 1.8 2.467 2.467 0 0 0 3.071 0zm.106-4.72a2.685 2.685 0 0 1 1.074 1.113 3.862 3.862 0 0 1 .4 1.824 3.34 3.34 0 0 1-.832 2.44 3.111 3.111 0 0 1-5.376-2.333v-4.532a2.438 2.438 0 0 1 .764-1.877 2.794 2.794 0 0 1 2-.7h2.815v.979h-2.677a2.076 2.076 0 0 0-1.407.389 1.711 1.711 0 0 0-.416 1.287v1.9a2.493 2.493 0 0 1 .952-.644 3.345 3.345 0 0 1 1.221-.228 3.217 3.217 0 0 1 1.482.382z" transform="translate(-8060.42 -801.318)"/>
            <path id="Path_87441" data-name="Path 87441" class="cls-1" d="m8759.375 817.98.979.228a3.379 3.379 0 0 0-.256 1.287c0 1.22.659 1.824 1.985 1.824a1.975 1.975 0 0 0 1.543-.5 2.593 2.593 0 0 0 .456-1.743 2.775 2.775 0 0 0-.483-1.8 1.868 1.868 0 0 0-1.542-.59h-.591v-.939h.765a1.508 1.508 0 0 0 1.261-.469 2.135 2.135 0 0 0 .35-1.26 2.915 2.915 0 0 0-.162-.965 6.983 6.983 0 0 0-.522-1.059h1.046a3.655 3.655 0 0 1 .709 2.105 2.313 2.313 0 0 1-.455 1.408 2.039 2.039 0 0 1-1.433.738 2.086 2.086 0 0 1 1.646.925 3.7 3.7 0 0 1 .5 1.958 2.825 2.825 0 0 1-3.084 3.138 3.617 3.617 0 0 1-1.595-.349 2.515 2.515 0 0 1-1.087-.952 2.655 2.655 0 0 1-.4-1.462 3.073 3.073 0 0 1 .37-1.523z" transform="translate(-8641.523 -801.318)"/>
            <path id="Path_87442" data-name="Path 87442" class="cls-1" d="M9371.283 802.885a3.913 3.913 0 0 1 .791 2.668v1.81a14.855 14.855 0 0 1-.254 2.8 6.638 6.638 0 0 1-.713 2.078h-1.059a9.882 9.882 0 0 0 .965-4.894v-1.73a5.445 5.445 0 0 0-.186-1.6 1.351 1.351 0 0 0-.605-.818 2.4 2.4 0 0 0-1.178-.241 2.362 2.362 0 0 0-1.168.241 1.427 1.427 0 0 0-.617.818 5.5 5.5 0 0 0-.187 1.6v1.73a13.485 13.485 0 0 0 .295 2.816 8.678 8.678 0 0 0 .686 2.078h-1.1a8.861 8.861 0 0 1-.672-2.092 13.584 13.584 0 0 1-.281-2.789v-1.82a3.922 3.922 0 0 1 .789-2.668 2.9 2.9 0 0 1 2.256-.872 2.819 2.819 0 0 1 2.238.885z" transform="translate(-9240.385 -791.452)"/>
        </g>
        <g id="Group_22618" data-name="Group 22618">
            <path id="Path_87443" data-name="Path 87443" class="cls-1" d="M12.713 13.94a2.852 2.852 0 0 1-.791 2.856 32.364 32.364 0 0 1-6.168 4.546 24.919 24.919 0 0 1-3.714 1.81c-.831.308-1.529.429-1.877-.174a1.135 1.135 0 0 1 0-1.059 92.3 92.3 0 0 1 5.216-10.03c.174-.308.362-.617.536-.939C8.543 6.431 12.016.894 12.7.009c.094-.134.282-.282.442-.188a.347.347 0 0 1 .121.362 1.767 1.767 0 0 1-.063.241 37.993 37.993 0 0 0-.487 13.516z"/>
            <path id="Path_87444" data-name="Path 87444" class="cls-1" d="M1015.937 26.407c-1.1-.51-1.676-.764-2.078-2.132a32.364 32.364 0 0 1-.858-7.616 27.361 27.361 0 0 1 .282-4.1c.161-.885.4-1.555 1.1-1.555a1.177 1.177 0 0 1 .925.536 92.215 92.215 0 0 1 6.074 9.547c.174.295.349.6.536.925 2.6 4.532 5.658 10.311 6.087 11.344.067.147.107.375-.067.483a.355.355 0 0 1-.362-.08l-.174-.174a37.606 37.606 0 0 0-11.465-7.178z" transform="translate(-999.389 -11.059)"/>
            <path id="Path_87445" data-name="Path 87445" class="cls-1" d="M83.43 1291.012a2.925 2.925 0 0 1 2.883-.738 33.2 33.2 0 0 1 7.026 3.071 28.262 28.262 0 0 1 3.419 2.306c.67.577 1.14 1.113.791 1.716a1.17 1.17 0 0 1-.925.536 94.125 94.125 0 0 1-11.3.5h-1.076c-5.229-.013-11.76-.255-12.872-.4-.161-.013-.375-.094-.375-.295a.331.331 0 0 1 .241-.282c.027 0 .188-.054.241-.067a37.321 37.321 0 0 0 11.947-6.347z" transform="translate(-70.02 -1273.063)"/>
        </g>
    </g>
</svg>
