<svg id="games" xmlns="http://www.w3.org/2000/svg" width="31" height="31" viewBox="0 0 31 31">
    <defs>
        <style>
            .cls-1{fill:#6a7787}
        </style>
    </defs>
    <path id="Path_58" data-name="Path 58" class="cls-1" d="M23.87 1.674a5.464 5.464 0 0 1 5.456 5.456v16.678a5.464 5.464 0 0 1-5.456 5.456H7.13a5.464 5.464 0 0 1-5.456-5.456V7.13A5.464 5.464 0 0 1 7.13 1.674h16.74m0-1.674H7.13A7.171 7.171 0 0 0 0 7.13v16.678A7.184 7.184 0 0 0 7.13 31h16.678A7.184 7.184 0 0 0 31 23.87V7.13A7.171 7.171 0 0 0 23.87 0z"/>
    <g id="Group_19" data-name="Group 19" transform="translate(3.682 9.854)">
        <path id="Path_59" data-name="Path 59" class="cls-1" d="M21.935 20.343a1.617 1.617 0 0 1 1.194.5 1.737 1.737 0 0 1 .5 1.194 1.617 1.617 0 0 1-.5 1.194 1.737 1.737 0 0 1-1.194.5 1.617 1.617 0 0 1-1.194-.5 1.737 1.737 0 0 1-.5-1.194 1.7 1.7 0 0 1 1.692-1.692m0-1.343a3.059 3.059 0 0 0-2.139.9 3.026 3.026 0 1 0 4.279 0 2.86 2.86 0 0 0-2.139-.9z" transform="translate(-10.117 -13.278)"/>
        <path id="Path_60" data-name="Path 60" class="cls-1" d="M10.435 31.743a1.617 1.617 0 0 1 1.194.5 1.737 1.737 0 0 1 .5 1.194 1.617 1.617 0 0 1-.5 1.194 1.737 1.737 0 0 1-1.194.5 1.617 1.617 0 0 1-1.194-.5 1.737 1.737 0 0 1-.5-1.194 1.617 1.617 0 0 1 .5-1.194 1.836 1.836 0 0 1 1.194-.5m0-1.343a3.059 3.059 0 0 0-2.139.9 3 3 0 1 0 2.139-.9z" transform="translate(-7.4 -19.006)"/>
        <path id="Path_61" data-name="Path 61" class="cls-1" d="M33.435 8.843a1.617 1.617 0 0 1 1.194.5 1.737 1.737 0 0 1 .5 1.194 1.617 1.617 0 0 1-.5 1.194 1.737 1.737 0 0 1-1.194.5 1.617 1.617 0 0 1-1.194-.5 1.737 1.737 0 0 1-.5-1.194 1.7 1.7 0 0 1 1.692-1.692m0-1.343a3.059 3.059 0 0 0-2.139.9 3.035 3.035 0 0 0 2.139 5.175 3.059 3.059 0 0 0 2.139-.9 3 3 0 0 0 0-4.279 3.059 3.059 0 0 0-2.139-.9z" transform="translate(-12.834 -7.5)"/>
    </g>
</svg>
