<svg id="poker" xmlns="http://www.w3.org/2000/svg" width="31" height="31">
    <defs>
        <style>
            .cls-1{fill:#6a7787}
        </style>
    </defs>
    <path id="Path_54" data-name="Path 54" class="cls-1" d="m18.766 39.68 3.672 2.667h-7.344l3.672-2.667m0-1.18a1.122 1.122 0 0 0-.787.306l-3.672 2.667A1.2 1.2 0 0 0 14 42.784a1.129 1.129 0 0 0 1.093.743h7.345a1.191 1.191 0 0 0 1.093-.743 1.22 1.22 0 0 0-.306-1.312l-3.672-2.667a1.054 1.054 0 0 0-.787-.306z" transform="translate(-3.266 -12.528)"/>
    <path id="Path_55" data-name="Path 55" class="cls-1" d="M25 30.275z" transform="translate(-9.5 -11.492)"/>
    <path id="Path_56" data-name="Path 56" class="cls-1" d="M25 30.275z" transform="translate(-9.5 -11.492)"/>
    <path id="Path_57" data-name="Path 57" class="cls-1" d="M30.752 16.187a9.542 9.542 0 0 0-2.108-4.03l-.682-.661L16.616.462a1.578 1.578 0 0 0-2.232 0L2.976 11.5l-.62.595a9.412 9.412 0 0 0-2.108 4.1A7.883 7.883 0 0 0 0 18.3a8.457 8.457 0 0 0 8.184 8.721A8.174 8.174 0 0 0 15.5 22.2a8.174 8.174 0 0 0 7.316 4.823A8.457 8.457 0 0 0 31 18.3a7.883 7.883 0 0 0-.248-2.113zm-7.936 8.985a6.539 6.539 0 0 1-6.2-4.889 1.182 1.182 0 0 0-2.232 0 6.539 6.539 0 0 1-6.2 4.889 6.733 6.733 0 0 1-6.51-6.937 6.183 6.183 0 0 1 .126-1.123 9.677 9.677 0 0 1 .556-1.912 7.291 7.291 0 0 1 1.24-1.85L7.5 9.514l8-7.73 8 7.8 3.9 3.762a14.12 14.12 0 0 1 1.24 1.85 6.773 6.773 0 0 1 .558 1.916 6.918 6.918 0 0 1 .124 1.123 6.733 6.733 0 0 1-6.506 6.937z"/>
</svg>
