<svg id="promotions" xmlns="http://www.w3.org/2000/svg" width="31" height="30.984" viewBox="0 0 31 30.984">
    <defs>
        <style>
            .cls-1{fill:#6a7787}
        </style>
    </defs>
    <path id="Path_62" data-name="Path 62" class="cls-1" d="M26.079 1.673A3.2 3.2 0 0 1 29.3 4.9v6.879a3.419 3.419 0 0 1-.682 1.983l-.124.186-.186.186-14.251 14.248a3.293 3.293 0 0 1-4.586 0l-6.816-6.817a3.293 3.293 0 0 1 0-4.586l14.129-14.19.186-.189.186-.124a3.259 3.259 0 0 1 1.983-.676h6.941m0-1.8H19.2a4.588 4.588 0 0 0-2.975 1.053l-.372.31-.248.248L1.416 15.74a4.9 4.9 0 0 0 0 6.941L8.232 29.5a5.033 5.033 0 0 0 3.532 1.487 4.982 4.982 0 0 0 3.47-1.425l14.13-14.132.248-.248.31-.372a4.954 4.954 0 0 0 1.053-2.975V4.9a4.946 4.946 0 0 0-4.9-4.9z" transform="translate(.025)"/>
    <path id="Path_63" data-name="Path 63" class="cls-1" d="M34.384 7.676a1.537 1.537 0 0 1 1.135.473 1.569 1.569 0 0 1 0 2.222 1.651 1.651 0 0 1-1.135.473 1.537 1.537 0 0 1-1.135-.473 1.569 1.569 0 0 1 0-2.222 1.537 1.537 0 0 1 1.135-.473m0-1.276a2.906 2.906 0 0 0-2.033.851 2.884 2.884 0 0 0 2.033 4.917 2.906 2.906 0 0 0 2.033-.851 2.854 2.854 0 0 0 0-4.066 2.906 2.906 0 0 0-2.033-.851z" transform="translate(-9.246 -3.374)"/>
    <path id="Path_64" data-name="Path 64" class="cls-1" d="M18.593 28.014a.672.672 0 0 1-.284-.095l-1.844-.945-1.844.945a.658.658 0 0 1-.662-.047.615.615 0 0 1-.236-.615l.331-2.033-1.466-1.466a.585.585 0 0 1-.142-.662.681.681 0 0 1 .52-.425l2.08-.284.9-1.844a.664.664 0 0 1 1.135 0l.9 1.844 2.033.284a.647.647 0 0 1 .378 1.087l-1.466 1.466.331 2.033a.615.615 0 0 1-.236.615.763.763 0 0 1-.428.142zM16.466 25.6a.672.672 0 0 1 .284.095l.993.52-.189-1.087a.65.65 0 0 1 .189-.567l.8-.756-1.087-.142a.683.683 0 0 1-.473-.331l-.473-.993-.473.993a.569.569 0 0 1-.473.331l-1.087.142.8.756a.65.65 0 0 1 .189.567l-.189 1.087.993-.52c.007-.095.101-.095.196-.095z" transform="translate(-3.737 -6.231)"/>
</svg>
