<svg xmlns="http://www.w3.org/2000/svg" width="31.405" height="31.405" viewBox="0 0 31.405 31.405">
  <g id="ufo" transform="translate(0.002 0.002)">
    <g id="Group_2083" data-name="Group 2083" transform="translate(3.364 7.627)">
      <g id="Group_2079" data-name="Group 2079">
        <path id="Path_674" data-name="Path 674" d="M29.313,18.46A9.142,9.142,0,0,0,26.8,16.827a18.086,18.086,0,0,0-1.947-.816c0-.628-.377-1.445-1.821-2.261a12.276,12.276,0,0,0-4.208-1.382,13.008,13.008,0,0,0-4.4-.063c-1.633.314-2.261.942-2.449,1.507a20.419,20.419,0,0,0-2.073.126,10.757,10.757,0,0,0-2.952.691,2.4,2.4,0,0,0-1.57,1.759,2.326,2.326,0,0,0,.942,2.135,7.1,7.1,0,0,0,1.821,1.256,4.327,4.327,0,0,0-.188.5c-.188,1,.691,1.884,2.7,2.763a26.955,26.955,0,0,0,6.155,1.7,30.9,30.9,0,0,0,5.087.5,8.007,8.007,0,0,0,1.256-.063c2.135-.126,3.329-.691,3.454-1.7h0v-.5a5.77,5.77,0,0,0,2.073-.628,2.4,2.4,0,0,0,1.57-1.759A2.382,2.382,0,0,0,29.313,18.46ZM14.679,13.813a11.364,11.364,0,0,1,1.57-.126,15.1,15.1,0,0,1,2.324.188,12.847,12.847,0,0,1,3.705,1.193.476.476,0,0,0,.251.126c.691.44.816.754.816.816s-.251.377-1.319.565a.231.231,0,0,0-.188.063,12.585,12.585,0,0,1-3.705-.126c-4.145-.691-4.71-2.135-4.71-2.2s.251-.314,1-.5Zm7.913,9.86a26.212,26.212,0,0,1-5.59-.44,30.161,30.161,0,0,1-5.4-1.445,6.726,6.726,0,0,1-2.073-1.256,35.988,35.988,0,0,0,7.537,2.135,36.041,36.041,0,0,0,6.092.565,15.879,15.879,0,0,0,1.759-.063A6.233,6.233,0,0,1,22.593,23.673Zm2.952-2.135h-.188a22.141,22.141,0,0,1-3.58.063,39.805,39.805,0,0,1-4.522-.5,41.231,41.231,0,0,1-4.4-1,24.824,24.824,0,0,1-3.329-1.256c-.063,0-.126-.063-.188-.063-2.01-.942-2.638-1.821-2.575-2.135s.942-.942,3.14-1.193c.628-.063,1.382-.126,2.135-.126a4.025,4.025,0,0,0,1.507,1.319,12.276,12.276,0,0,0,4.208,1.382,18.776,18.776,0,0,0,2.575.251,15.558,15.558,0,0,0,1.821-.126,4.477,4.477,0,0,0,1.884-.754c.691.251,1.382.565,2.01.816,2.01.942,2.638,1.821,2.575,2.135C28.622,20.721,27.743,21.286,25.544,21.538Z" transform="translate(-5.357 -12.145)" fill="#6a7787"/>
      </g>
      <g id="Group_2080" data-name="Group 2080" transform="translate(18.566 6.942)">
        <path id="Path_675" data-name="Path 675" d="M35.346,23.263a.807.807,0,0,0-.314,1.13.835.835,0,0,0,1.068.5.807.807,0,0,0,.314-1.13C36.163,23.325,35.723,23.074,35.346,23.263Z" transform="translate(-34.918 -23.199)" fill="#6a7787"/>
      </g>
      <g id="Group_2081" data-name="Group 2081" transform="translate(11.449 6.621)">
        <path id="Path_676" data-name="Path 676" d="M24.6,22.7a.888.888,0,1,0,.754,1A.968.968,0,0,0,24.6,22.7Z" transform="translate(-23.587 -22.687)" fill="#6a7787"/>
      </g>
      <g id="Group_2082" data-name="Group 2082" transform="translate(4.656 4.732)">
        <path id="Path_677" data-name="Path 677" d="M13.041,20.007a.743.743,0,1,0,1.13-.126A.756.756,0,0,0,13.041,20.007Z" transform="translate(-12.771 -19.68)" fill="#6a7787"/>
      </g>
    </g>
    <path id="Path_678" data-name="Path 678" d="M32.663,30.7Z" transform="translate(-12.126 -11.42)" fill="#6a7787"/>
    <path id="Path_679" data-name="Path 679" d="M21.416,1.067a15.71,15.71,0,1,0,8.918,20.349A15.746,15.746,0,0,0,21.416,1.067Zm7.348,19.721A14.019,14.019,0,0,1,2.637,10.613,14.019,14.019,0,0,1,28.764,20.788Z" transform="translate(0 0)" fill="#6a7787"/>
    <g id="Group_2084" data-name="Group 2084" transform="translate(8.79 21.35)">
      <path id="Path_680" data-name="Path 680" d="M22.463,35.091a.449.449,0,0,0-.565.314l-1.507,5.024a.449.449,0,0,0,.314.565c.126.063.188,0,.314,0a.49.49,0,0,0,.251-.251l1.507-5.024A.489.489,0,0,0,22.463,35.091Z" transform="translate(-16.368 -34.397)" fill="#6a7787"/>
      <path id="Path_681" data-name="Path 681" d="M27.97,35.593a.4.4,0,0,0-.377.5l.5,5.213a.4.4,0,0,0,.5.377.326.326,0,0,0,.251-.126.48.48,0,0,0,.126-.314l-.5-5.213C28.409,35.718,28.221,35.53,27.97,35.593Z" transform="translate(-19.049 -34.585)" fill="#6a7787"/>
      <path id="Path_682" data-name="Path 682" d="M17.578,34.061a.5.5,0,0,0-.628.126L14.061,38.52a.487.487,0,0,0,.126.628.471.471,0,0,0,.314.063.345.345,0,0,0,.314-.188L17.7,34.689A.472.472,0,0,0,17.578,34.061Z" transform="translate(-13.996 -33.996)" fill="#6a7787"/>
    </g>
  </g>
</svg>
