<svg id="virtual" xmlns="http://www.w3.org/2000/svg" width="31" height="31" viewBox="0 0 31 31">
    <defs>
        <style>
            .cls-1{fill:#6a7787}
        </style>
    </defs>
    <path id="Path_49" data-name="Path 49" class="cls-1" d="M21.14 1.053a15.508 15.508 0 1 0 8.8 20.087 15.543 15.543 0 0 0-8.8-20.087zm7.253 19.467A13.838 13.838 0 0 1 2.6 10.477 13.838 13.838 0 0 1 28.393 20.52z" transform="translate(.002 .002)"/>
    <path id="Path_50" data-name="Path 50" class="cls-1" d="m28.857 15.875-2.871-1.555-7.538-.12-3.231 2.333a1.036 1.036 0 0 0-.239 1.436.97.97 0 0 0 .838.419 1.154 1.154 0 0 0 .6-.179l2.692-1.914h1.077l-1.137 4.487-1.974 4.128a1.175 1.175 0 0 0 .6 1.615 1.747 1.747 0 0 0 .538.12 1.1 1.1 0 0 0 1.077-.718l.6-1.256-1.556 6.282a1.232 1.232 0 0 0 .9 1.5c.12 0 .179.06.3.06a1.275 1.275 0 0 0 1.2-.9l3.769-15.2h1.017l2.441 1.317a1.053 1.053 0 0 0 1.376-.419 1.222 1.222 0 0 0-.479-1.436z" transform="translate(-5.315 -4.619)"/>
    <path id="Path_51" data-name="Path 51" class="cls-1" d="M26.907 10.9a2.167 2.167 0 1 0-1.914-2.393 2.16 2.16 0 0 0 1.914 2.393z" transform="translate(-9.401 -2.643)"/>
    <circle id="Ellipse_6" data-name="Ellipse 6" class="cls-1" cx="2.154" cy="2.154" r="2.154" transform="rotate(-75.46 20.764 8.48)"/>
</svg>
